<?xml version="1.0" standalone="no"?>
<!DOCTYPE svg PUBLIC "-//W3C//DTD SVG 1.1//EN" "http://www.w3.org/Graphics/SVG/1.1/DTD/svg11.dtd" >
<svg>
<metadata>
Created by FontForge 20090914 at Sat Sep 16 12:52:50 2017
 By www-data
Copyright Kulbir S. Thind, 3724 Hacienda Street, San Mateo, CA 94403, U.S.A. May not be used, displayed, modified, disclosed or transferred without express written approval.
</metadata>
<defs>
<font id="Asees" horiz-adv-x="10" >
  <font-face 
    font-family="Asees"
    font-weight="400"
    font-stretch="normal"
    units-per-em="1000"
    panose-1="0 0 4 0 0 0 0 0 0 0"
    ascent="800"
    descent="-200"
    x-height="599"
    cap-height="599.001"
    bbox="-550.001 -348.113 2036.74 928"
    underline-thickness="50"
    underline-position="-275"
    unicode-range="U+0020-U+2039"
  />
<missing-glyph horiz-adv-x="500" 
d="M63 0v650h375v-650h-375zM125 63h250v525h-250v-525z" />
    <glyph glyph-name=".notdef" horiz-adv-x="500" 
d="M63 0v650h375v-650h-375zM125 63h250v525h-250v-525z" />
    <glyph glyph-name="space" unicode=" " horiz-adv-x="400" 
 />
    <glyph glyph-name="exclam" unicode="!" horiz-adv-x="401" 
d="M194 524c-90 17.333 -135 39 -135 65c0 14 7 21 21 21c23.333 0 61.333 -28.667 114 -86zM201 532c-16.667 48 -25 85 -25 111c0 25.333 8.33301 38 25 38c16 0 24 -12.667 24 -38s-8 -62.333 -24 -111zM194 514c-54 -57.333 -92.667 -86 -116 -86
c-12.667 0 -19 7 -19 21c0 26 45 47.667 135 65zM200 506c16.667 -47.333 25 -83.667 25 -109c0 -24.667 -8 -37 -24 -37c-16.667 0 -25 12.667 -25 38s8 61.333 24 108zM207 514.999c90.667 -19.333 135.999 -41.667 135.999 -67c0 -14 -7 -21 -21 -21
c-23.333 0 -61.666 29.333 -114.999 88zM206.999 522.998c52 58.667 90 88 114 88c14 0 21 -7 21 -21c0 -24 -45 -46.333 -135 -67z" />
    <glyph glyph-name="quotedbl" unicode="&#x22;" 
d="M-144 668c7.33301 16 13.667 39 19 69c-6.66699 45.333 -31.334 68.666 -74.001 69.999c-18 0.666992 -34.333 -6.16602 -49 -20.499s-22.667 -31.166 -24 -50.499c-0.666992 -8.66699 2.33301 -21.834 9 -39.501s9.66699 -27.5 9 -29.5c-1.33301 -1.33301 -3 -2 -5 -2
c-5.33301 0 -13.333 4.33301 -24 13s-17.334 16.667 -20.001 24c-6.66699 13.333 -10.334 32.333 -11.001 57c-2.66699 18 -14.667 26.333 -36 25c-34 -2 -66 4.66699 -96 20c-27.333 14 -44 34.667 -50 62c-2.66699 12 -4 25 -4 39c0.666992 14 3.33398 21.333 8.00098 22
c2 0 6.66699 -8.33301 14 -25c8 -18.667 13 -29 15 -31c24.667 -25.333 59.334 -38 104.001 -38c30.667 0 58.667 3.66699 84 11c36 10.667 65 15 87 13c36 -4 62.667 -18 80 -42c14 -19.333 21 -41 21 -65c0 -16 -3.33301 -31.667 -10 -47
c-3.33301 -7.33301 -9.66602 -15.333 -18.999 -24s-17 -13 -23 -13c-2 0 -3.66699 0.666992 -5 2z" />
    <glyph glyph-name="numbersign" unicode="#" horiz-adv-x="814" 
d="M367 563c0 -40 -14.667 -74.334 -44 -103.001s-64 -43 -104 -43c-40.667 0 -75.667 14.333 -105 43s-44 63.334 -44 104.001c0 40 14.667 74.333 44 103s64.333 43 105 43s75.5 -14.5 104.5 -43.5s43.5 -63.5 43.5 -103.5zM114 563.999
c-0.666992 -29.333 9.33105 -54.667 29.998 -76s45.334 -31.666 74.001 -30.999c29.333 0.666992 54 11.167 74 31.5s30.333 44.833 31 73.5c0.666992 29.333 -9.16602 54.5 -29.499 75.5s-44.833 31.5 -73.5 31.5c-29.333 0 -54.333 -10.333 -75 -31
s-31 -45.334 -31 -74.001zM216.998 -14.002h-56l405 708h47zM738.998 180.998c-0.666992 -40 -15.667 -74.334 -45 -103.001s-64 -43 -104 -43s-74.5 14.333 -103.5 43s-43.5 63.334 -43.5 104.001c0 40 14.5 74.5 43.5 103.5s63.833 43.5 104.5 43.5
s75.5 -14.667 104.5 -44s43.5 -64 43.5 -104zM484.998 181.997c-0.666992 -28.667 9.49707 -53.499 30.4971 -74.499s45.833 -31.5 74.5 -31.5s53.334 10.333 74.001 31s31 45.334 31 74.001c0.666992 29.333 -9.16602 54.166 -29.499 74.499s-45.166 30.833 -74.499 31.5
c-28.667 0 -53.5 -10.333 -74.5 -31s-31.5 -45.334 -31.5 -74.001z" />
    <glyph glyph-name="dollar" unicode="$" horiz-adv-x="322" 
d="M55 -15h-60l273 720h60z" />
    <glyph glyph-name="percent" unicode="%" horiz-adv-x="666" 
d="M357 307l161 -162l-41 -41l-161 161l-161 -161l-42 41l161 162l-161 161l42 41l161 -161l161 161l41 -41z" />
    <glyph glyph-name="ampersand" unicode="&#x26;" horiz-adv-x="622" 
d="M56 396v60h478v-60h-478zM56 144v60h478v-60h-478z" />
    <glyph glyph-name="quotesingle" unicode="'" 
d="M-126 672c-8 -0.666992 -18.334 16.6641 -31.001 51.9971c-6.66699 18.667 -11.334 29.334 -14.001 32.001c-10 8.66699 -29.667 13.334 -59 14.001c-21.333 0 -42.666 -0.333008 -63.999 -1c-30.667 0 -68.334 1 -113.001 3c-18.667 2.66699 -33 15.334 -43 38.001
c-8 18 -12.333 37.667 -13 59c-0.666992 39.333 0.333008 59 3 59c7.33301 0 14 -8.66699 20 -26l10 -38c4.66699 -17.333 13.334 -29.333 26.001 -36c4.66699 -2.66699 21 -4.33398 49 -5.00098h50l89 -2c38.667 -3.33301 64.334 -13.666 77.001 -30.999
c5.33301 -7.33301 10 -23 14 -47c3.33301 -19.333 5 -36 5 -50c0 -13.333 -2 -20.333 -6 -21z" />
    <glyph glyph-name="parenleft" unicode="(" horiz-adv-x="386" 
d="M131 306c0 -219.333 72.333 -371.666 217 -456.999l-2 -7c-86.667 41.333 -157 105 -211 191c-52.667 84 -79 172.333 -79 265c0 88 25.5 169.5 76.5 244.5s122.833 136.833 215.5 185.5l1 -7c-67.333 -46.667 -115.333 -90.334 -144 -131.001
c-49.333 -71.333 -74 -166 -74 -284z" />
    <glyph glyph-name="parenright" unicode=")" horiz-adv-x="386" 
d="M40 728c92.667 -48.667 164.5 -110.5 215.5 -185.5s76.5 -156.5 76.5 -244.5c0 -92.667 -26.333 -181 -79 -265c-54 -86 -124.333 -149.667 -211 -191l-2 7c144.667 85.333 217 237.666 217 456.999c0 118 -24.667 212.667 -74 284
c-28.667 40.667 -76.667 84.334 -144 131.001z" />
    <glyph glyph-name="asterisk" unicode="*" horiz-adv-x="313" 
d="M206 672c0 -32.667 -16.334 -66.333 -49.001 -101c-27.333 -28.667 -54.666 -49.334 -81.999 -62.001l-9 21c35.333 22 60 46 74 72c6 10.667 10 23.334 12 38.001c0.666992 10 1.66699 20.333 3 31c-5.33301 6 -17.333 9.33301 -36 10c-24.667 0 -40.667 1.33301 -48 4
c-16 4.66699 -24.667 15.667 -26 33c-2 19.333 4.66699 34.333 20 45c12 8.66699 27 13 45 13c22 0 41.333 -6 58 -18c25.333 -18 38 -46.667 38 -86z" />
    <glyph glyph-name="plus" unicode="+" horiz-adv-x="670" 
d="M29 -12c-12 0 -23 4.16797 -33 12.501s-15 19.833 -15 34.5c0 13.333 4 24.333 12 33c8 11.333 20 17 36 17c12.667 0 23.667 -4 33 -12s14 -19.333 14 -34c0 -12.667 -4 -24.334 -12 -35.001s-19.667 -16 -35 -16zM353 191.001l-86 158.998
c-39.333 0 -72 -14.5 -98 -43.5s-39 -64.167 -39 -105.5c0 -40 14.333 -74.333 43 -103s63 -43 103 -43v-58c-56 0 -104 19.833 -144 59.5s-60 87.834 -60 144.501c0 50.667 15.667 94.834 47 132.501s71.333 60.5 120 68.5l-73 136h-174v61h694v-61h-137l-73 -136
c48.667 -8 88.5 -30.667 119.5 -68s46.5 -81.666 46.5 -132.999c0 -56.667 -20 -104.834 -60 -144.501s-88.333 -59.5 -145 -59.5v58c40.667 0 75.167 14.333 103.5 43s42.5 63 42.5 103c0 41.333 -12.833 76.5 -38.5 105.5s-58.167 43.5 -97.5 43.5l-86 -159h-8z
M353 299.999h9l115 238h-239z" />
    <glyph glyph-name="comma" unicode="," horiz-adv-x="350" 
d="M246 2c0 -32.667 -16.334 -66.333 -49.001 -101c-27.333 -28.667 -54.666 -49.334 -81.999 -62.001l-9 21c35.333 22 60 46 74 72c6 10.667 10 23.334 12 38.001c0.666992 10 1.66699 20.333 3 31c-5.33301 6 -17.333 9.33301 -36 10c-24.667 0 -40.667 1.33301 -48 4
c-16 4.66699 -24.667 15.667 -26 33c-2 19.333 4.66699 34.333 20 45c12 8.66699 27 13 45 13c22 0 41.333 -6 58 -18c25.333 -18 38 -46.667 38 -86z" />
    <glyph glyph-name="hyphen" unicode="-" 
d="M-167 -129c12 -8.66699 21.001 -13.335 27.001 -14.002s17.667 -3.66699 35 -9c28 -13.333 42 -30.666 42 -51.999c0 -18.667 -5 -26.667 -15 -24c-19.333 4 -45 15.333 -77 34c-29.333 16.667 -63 47.334 -101 92.001c-23.333 27.333 -40 53 -50 77h25
c15.333 -22 37.166 -44.167 65.499 -66.5s44.5 -34.833 48.5 -37.5z" />
    <glyph glyph-name="hyphen" unicode="&#x2010;" 
d="M-167 -129c12 -8.66699 21.001 -13.335 27.001 -14.002s17.667 -3.66699 35 -9c28 -13.333 42 -30.666 42 -51.999c0 -18.667 -5 -26.667 -15 -24c-19.333 4 -45 15.333 -77 34c-29.333 16.667 -63 47.334 -101 92.001c-23.333 27.333 -40 53 -50 77h25
c15.333 -22 37.166 -44.167 65.499 -66.5s44.5 -34.833 48.5 -37.5z" />
    <glyph glyph-name="period" unicode="." horiz-adv-x="600" 
d="M343 -10h-60v609h60v-609z" />
    <glyph glyph-name="slash" unicode="/" 
d="M-268 796c28.667 -20.667 59.999 -53.168 93.999 -97.501s51 -72.833 51 -85.5c0 -1.33301 -0.333008 -2.33301 -1 -3c-3.33301 -2.66699 -11.666 4 -24.999 20c-23.333 26.667 -43.333 47.334 -60 62.001c-32 30 -67.667 55.333 -107 76
c-36.667 20 -94.667 31.333 -174 34c-10.667 8 -16 18 -16 30c0 27.333 21 39 63 35c60.667 -6 119 -29.667 175 -71z" />
    <glyph glyph-name="zero" unicode="0" horiz-adv-x="529" 
d="M461 322c0 -84 -11 -153 -33 -207c-34 -80.667 -91.333 -121 -172 -121c-134.667 0 -202 109.333 -202 328c0 219.333 67.333 329 202 329c80.667 0 138 -40.667 172 -122c22 -54 33 -123 33 -207zM391 322c0 205.333 -45 308 -135 308
c-57.333 0 -95.333 -42.667 -114 -128c-8 -38.667 -12 -98.667 -12 -180c0 -84.667 4 -146 12 -184c18 -82.667 56 -124 114 -124c90 0 135 102.667 135 308z" />
    <glyph glyph-name="one" unicode="1" horiz-adv-x="452" 
d="M359 -1h-253v7c36.667 1.33301 60.667 5 72 11c17.333 10 26 31.667 26 65v433c0 34.667 -14.333 52 -43 52c-6 0 -23.667 -5.66699 -53 -17v17l153 85v-588c0 -24 6.33301 -39.667 19 -47s39 -11.333 79 -12v-6z" />
    <glyph glyph-name="two" unicode="2" horiz-adv-x="529" 
d="M478 123l-36.001 -123h-404v3l180 189c100.667 106 151 196 151 270c0 80 -48.333 128.333 -145 145c-6 1.33301 -12 2 -18 2c-25.333 0 -45.333 -12.333 -60 -37l-29 -68c-10 -23.333 -22.667 -35 -38 -35c-24 0 -36 9 -36 27c0 26 25.5 58.5 76.5 97.5
s94.167 58.5 129.5 58.5c48 0 89.333 -14.667 124 -44c37.333 -32 56 -73 56 -123c0 -77.333 -37.333 -155 -112 -233l-185 -193h245c22 0 38.667 3 50 9c14.667 8.66699 31.334 27 50.001 55h1z" />
    <glyph glyph-name="three" unicode="3" horiz-adv-x="514" 
d="M436 210c1.33301 -64 -24.668 -115.997 -78.001 -155.997s-120 -60 -200 -60c-72.667 0 -109 11.667 -109 35c0 3.33301 0.666992 6.66602 2 9.99902c8 18 23 27 45 27c14.667 0 37.334 -5 68.001 -15c33.333 -11.333 55.333 -17.666 66 -18.999
c7.33301 -1.33301 14.666 -2 21.999 -2c40 0 71.333 15 94 45c20.667 26 31 58.333 31 97c0 20 -5.33301 41.333 -16 64c-14.667 32.667 -37.167 56.334 -67.5 71.001s-67.166 22 -110.499 22c-10 0 -21 -0.333008 -33 -1v1c130 42 195 99 195 171
c0 50.667 -40.333 86.667 -121 108c-18 4.66699 -33.667 7 -47 7c-26 0 -44.333 -10.333 -55 -31l-21 -56c-10 -20 -27.333 -29.333 -52 -28c-11.333 0.666992 -17.666 8 -18.999 22c2 20 20.333 45 55 75c46 39.333 100 57.666 162 54.999
c54.667 -2.66699 96 -19.334 124 -50.001c20 -22.667 30 -47.334 30 -74.001c0 -56.667 -40 -110.334 -120 -161.001c50.667 -20 83 -35.333 97 -46c37.333 -27.333 56.666 -64.333 57.999 -111z" />
    <glyph glyph-name="four" unicode="4" horiz-adv-x="514" 
d="M478 181h-110v-183h-60v183h-289v52l317 426h32v-433h110v-45zM308 226v319h-15l-238 -319h253z" />
    <glyph glyph-name="five" unicode="5" horiz-adv-x="522" 
d="M461 648l-33.001 -61c-5.33301 -5.33301 -11 -8 -17 -8h-230l-48 -106c120 -20.667 201.333 -55.667 244 -105c22 -25.333 37 -49 45 -71s10.667 -50 8 -84c-4 -60 -30 -111 -78 -153c-50.667 -44 -114 -66 -190 -66c-34.667 0 -64.167 3.5 -88.5 10.5
s-36.5 16.5 -36.5 28.5c0 2.66699 0.666992 5.33398 2 8.00098c8 15.333 23 23 45 23c14.667 0 37.834 -4.5 69.501 -13.5s53.167 -13.833 64.5 -14.5c103.333 -4.66699 155 48.666 155 159.999c0 82.667 -33.333 141 -100 175c-44 22 -110.667 35 -200 39l1 2l110 226h232
c12.667 0 27.667 3.33301 45 10z" />
    <glyph glyph-name="six" unicode="6" horiz-adv-x="529" 
d="M463 212c0 -51.333 -11.668 -96 -35.001 -134c-34 -56 -89.667 -84 -167 -84c-64 0 -114.667 23 -152 69c-42 50.667 -60.667 124.334 -56 221.001c2.66699 57.333 17 111.666 43 162.999c28.667 56 67.334 100.667 116.001 134c36 24.667 82.667 45 140 61
c50 14 80 19 90 15l16 -6c2 -0.666992 -10 -4.66699 -36 -12c-37.333 -9.33301 -68.333 -19 -93 -29c-40 -16.667 -69 -35.667 -87 -57c-55.333 -64.667 -88 -127.667 -98 -189c52.667 34 102 49.333 148 46c50.667 -4 92.667 -27 126 -69c30 -38.667 45 -81.667 45 -129z
M396.999 175c0 133.333 -49.667 200.002 -149 200.002c-24.667 0 -41.667 -1.33301 -51 -4c-18 -6 -36 -19.667 -54 -41c-4.66699 -10.667 -9.16699 -21.834 -13.5 -33.501s-6.5 -30.834 -6.5 -57.501c0 -74.667 15.333 -131 46 -169c26 -32.667 61 -49 105 -49
c82 0 123 51.333 123 154z" />
    <glyph glyph-name="seven" unicode="7" horiz-adv-x="514" 
d="M467 631l-215 -632h-66l203 582h-231c-32 0 -57 -6.66699 -75 -20c-13.333 -9.33301 -29.333 -28.333 -48 -57l-4 2l62 156l9 -1l12 -23h353v-7z" />
    <glyph glyph-name="eight" unicode="8" horiz-adv-x="529" 
d="M461 145c0 -36 -12.001 -67.0029 -36.001 -93.0029c-35.333 -38.667 -92.666 -58 -171.999 -58c-63.333 0 -113 15.667 -149 47c-32.667 27.333 -49 61.333 -49 102c0 38.667 10.667 70.334 32 95.001c17.333 19.333 55 48 113 86c-56 41.333 -91.667 72 -107 92
c-20 24.667 -30 55.334 -30 92.001c0 44.667 20.667 80.334 62 107.001c36 24 79.333 36 130 36c58.667 0 104.667 -12.667 138 -38c30 -24 45 -54.667 45 -92c0 -66 -53.667 -122 -161 -168c76 -48 126.667 -87.333 152 -118c21.333 -25.333 32 -55.333 32 -90z
M383.999 524.997c0 32 -11 58.333 -33 79c-24 23.333 -58 35 -102 35c-42 0 -74.667 -11.333 -98 -34c-20 -19.333 -30 -43 -30 -71c0 -35.333 17.333 -71.333 52 -108c25.333 -26 54.333 -48.333 87 -67c82.667 48.667 124 104 124 166zM398.999 122.997
c0 34.667 -13.333 64.999 -40 90.999c-20.667 19.333 -68.667 52.333 -144 99c-30.667 -20.667 -52.334 -39.667 -65.001 -57c-22 -28 -33 -62.667 -33 -104s13 -75.666 39 -102.999c28 -29.333 65 -44 111 -44c38.667 0 70.334 10.833 95.001 32.5s37 50.167 37 85.5z" />
    <glyph glyph-name="nine" unicode="9" horiz-adv-x="529" 
d="M151 -2c-55.333 0 -83.001 12.668 -83.001 38.001c0 3.33301 0.666992 7 2 11c3.33301 11.333 10.333 17 21 17c8 0 27.5 -6.66699 58.5 -20s56.167 -20 75.5 -20c39.333 0 70.333 25 93 75c23.333 52.667 44.666 113 63.999 181c-47.333 -26.667 -90 -40 -128 -40
c-9.33301 0 -20.666 0.666992 -33.999 2c-99.333 8 -147 79 -143 213c1.33301 48 13.333 89.333 36 124c32 50.667 82 76 150 76c7.33301 0 15.333 -0.333008 24 -1c54.667 -4.66699 97.334 -27.334 128.001 -68.001c32 -43.333 48 -104.333 48 -183
c0 -71.333 -9.33301 -138 -28 -200c-24 -78.667 -60 -132.5 -108 -161.5s-106.667 -43.5 -176 -43.5zM402.999 388.001c1.33301 15.333 2 30 2 44c0 124 -44.333 190 -133 198c-81.333 7.33301 -126.333 -40.667 -135 -144c-1.33301 -12.667 -2 -24.667 -2 -36
c0 -119.333 51 -179 153 -179c32.667 0 61.667 12.333 87 37c8 8 13.333 14.667 16 20c6 12 10 32 12 60z" />
    <glyph glyph-name="colon" unicode=":" horiz-adv-x="684" 
d="M574 538l0.000976562 -537.999h-59v266h-139v-98c0 -37.333 -10.667 -66.5 -32 -87.5s-48.666 -31.5 -81.999 -31.5c-36 0 -78.333 15.5 -127 46.5s-81.334 62.5 -98.001 94.5c13.333 40.667 29.666 97.667 48.999 171c6 35.333 9 65.666 9 90.999
c0 14 -3.66699 42.667 -11 86h-90v61h706v-61h-126zM102.001 207.001c23.333 -28.667 45.999 -49.667 67.999 -63c40.667 -26 72.334 -39 95.001 -39c34.667 0 51.667 29.333 51 88l-1 133h200v212h-371c7.33301 -40 11 -69.333 11 -88c0 -23.333 -2 -51 -6 -83
c-6 -40.667 -21.667 -94 -47 -160z" />
    <glyph glyph-name="semicolon" unicode=";" horiz-adv-x="620" 
d="M510 538l-0.000976562 -538.001h-61v259h-253l-35 -149c-12 -54 -31.667 -81 -59 -81c-8 0 -16.667 2.33301 -26 7c-18.667 10.667 -28 26.667 -28 48c0 16 6 36.667 18 62c26.667 56.667 41.334 88.334 44.001 95.001c14.667 36 22.667 69 24 99
c1.33301 27.333 -2 61 -10 101c-8 32 -15.667 64.333 -23 97h-108v61h642v-61h-125zM448.999 537.999h-287c22.667 -73.333 34 -146 34 -218h253v218z" />
    <glyph glyph-name="less" unicode="&#x3c;" horiz-adv-x="540" 
d="M409 637c22.667 -26.667 34.001 -63 34.001 -109c0 -20 -12.333 -46.667 -37 -80l-60 -70c-26 -30 -43.667 -67.667 -53 -113c-1.33301 -28 -5 -70 -11 -126h-16c0.666992 22.667 0 54.667 -2 96c-4.66699 36.667 -6.33398 59.667 -5.00098 69
c5.33301 37.333 14.333 66 27 86c2.66699 4.66699 22 30.667 58 78c21.333 28.667 32 52.667 32 72c0 96 -38.333 144 -115 144c-26 0 -53 -8.33301 -81 -25c-30.667 -17.333 -46 -36.666 -46 -57.999c0 -7.33301 9.83301 -21 29.5 -41s29.5 -36.667 29.5 -50
c0 -12 -8 -22 -24 -30c-9.33301 -4.66699 -18 -7 -26 -7c-28.667 0 -43 26.333 -43 79c0 49.333 14.667 86.833 44 112.5s70.333 38.5 123 38.5c27.333 0 55.333 -7.33301 84 -22c24.667 -12.667 44 -27.334 58 -44.001zM218.001 30c0 16.667 5.83301 30.834 17.5 42.501
s26.167 17.5 43.5 17.5c16.667 0 30.834 -5.83301 42.501 -17.5s17.5 -25.834 17.5 -42.501c0 -17.333 -5.83301 -31.833 -17.5 -43.5s-25.834 -17.5 -42.501 -17.5c-17.333 0 -31.833 5.83301 -43.5 17.5s-17.5 26.167 -17.5 43.5z" />
    <glyph glyph-name="equal" unicode="=" 
d="M-284 -24c-2.66699 -38.667 -1.66602 -71.832 3.00098 -99.499s23.334 -51.834 56.001 -72.501c7.33301 -4.66699 16.666 -7 27.999 -7c21.333 0 36.333 5.33301 45 16c5.33301 6 12.666 16.667 21.999 32l10 23c3.33301 7.33301 7 10.666 11 9.99902
c8 -0.666992 10.333 -12.334 7 -35.001c-2.66699 -24 -10.334 -46 -23.001 -66c-14.667 -22 -36.667 -33 -66 -33c-28 0 -53.667 10 -77 30c-26 22.667 -42.333 52.334 -49 89.001c-7.33301 40.667 -5.66602 78.334 5.00098 113.001h28z" />
    <glyph glyph-name="greater" unicode="&#x3e;" horiz-adv-x="1535" 
d="M1007 761l77.999 -57.998c36.667 -26.667 62.334 -39 77.001 -37c25.333 2 71 30.333 137 85c20 17.333 62.333 45.666 127 84.999c54.667 34 116.667 51 186 51c106.667 0 189.334 -33.667 248.001 -101c26 -30 45 -61.667 57 -95c4.66699 -12 7 -23.333 7 -34
c0 -18 -7 -27 -21 -27c-8.66699 0 -18 11.333 -28 34c-11.333 26 -28.333 52.333 -51 79c-48.667 57.333 -114.667 86 -198 86c-97.333 0 -198 -44.667 -302 -134c-40 -34.667 -68.333 -57.667 -85 -69c-28.667 -18.667 -54.334 -28 -77.001 -28c-24 0 -55 13.333 -93 40
l-72 56c-68 47.333 -128.333 78.666 -181 93.999c-23.333 7.33301 -45.666 11 -66.999 11c-60 0 -110.667 -25 -152 -75c-32.667 -38 -52.667 -79.667 -60 -125h500v-61h-38c-18 -55.333 -37 -97.666 -57 -126.999c-24.667 -36 -59.667 -66.333 -105 -91
c80 -43.333 119.667 -98 119 -164c0 -42 -13 -77.333 -39 -106c-30.667 -33.333 -75 -50 -133 -50c-94.667 0 -168.334 36.667 -221.001 110c-44.667 62 -71.667 145.667 -81 251c-4 44.667 -5.66699 103.667 -5 177h-44v61h44c4 70.667 31.833 131.667 83.5 183
s114.5 77 188.5 77c27.333 0 55.333 -4 84 -12c49.333 -14.667 107.333 -43.334 174 -86.001zM378.999 323.002c-7.33301 -68 -10.999 -111.332 -10.999 -129.999c0 -62.667 10 -118.334 30 -167.001l36 -66c1.33301 -2.66699 2 -4.66699 2 -6c0 -4 -2.66699 -6 -8 -6
c-12 0 -23.667 4.33301 -35 13c-48 35.333 -77.667 103.333 -89 204c-1.33301 10.667 -2 23 -2 37c0 39.333 4.66699 92.333 14 159c-40 -27.333 -81 -42.333 -123 -45c-49.333 -4 -92 8.5 -128 37.5s-54 67.5 -54 115.5c0 114.667 65 170 195 166
c70.667 -2 120 -21 148 -57c24 -31.333 34 -79.333 30 -144c-0.666992 -28 -2.33398 -65 -5.00098 -111zM182 374.003c27.333 0 54.668 7 82.001 21c38 18.667 57 45 57 79c1.33301 67.333 -40.334 101 -125.001 101s-126 -34 -124 -102c0.666992 -32 12 -57 34 -75
c20 -16 45.333 -24 76 -24zM939.002 538.003h-401.999c0 -80 2.66699 -145.333 8 -196h108c65.333 1.33301 106.666 5.33301 123.999 12c42.667 14.667 74.667 34.667 96 60c24 28.667 46 70 66 124zM750.003 287.003c-24 -3.33301 -89.333 -5 -196 -5
c11.333 -43.333 26.333 -80.666 45 -111.999c45.333 -74.667 105.666 -111.334 180.999 -110.001c34 1.33301 61.667 10 83 26c24 18 34.667 43.667 32 77c-1.33301 28 -18.666 56.667 -51.999 86s-64.333 42 -93 38z" />
    <glyph glyph-name="question" unicode="?" 
d="M-122 613l-93.002 41.998c-70 32 -123 51.667 -159 59c-19.333 4 -45.166 5 -77.499 3s-56.833 -1.66699 -73.5 1s-25 10.667 -25 24c0 18.667 19.667 30 59 34c40 4.66699 83.333 -1 130 -17c41.333 -14 85 -34.667 131 -62l67 -43c2 4.66699 -7.33301 19.667 -28 45
c-24 30 -51 57 -81 81c-39.333 32 -78.333 54.333 -117 67c-19.333 6.66699 -41.333 9.33398 -66 8.00098c-30 -2 -51 -2 -63 0c-13.333 2 -20 10.333 -20 25c0 16.667 15.667 28.334 47 35.001c10.667 2 22 3 34 3c44.667 0 89 -13.333 133 -40
c42 -26 80.667 -61.333 116 -106c26.667 -34 49.334 -69.333 68.001 -106c15.333 -32 21.333 -49.667 18 -53z" />
    <glyph glyph-name="at" unicode="@" horiz-adv-x="515" 
d="M466 672c0 -32.667 -16.334 -66.333 -49.001 -101c-27.333 -28.667 -54.666 -49.334 -81.999 -62.001l-9 21c35.333 22 60 46 74 72c6 10.667 10 23.334 12 38.001c0.666992 10 1.66699 20.333 3 31c-5.33301 6 -17.333 9.33301 -36 10c-24.667 0 -40.667 1.33301 -48 4
c-16 4.66699 -24.667 15.667 -26 33c-2 19.333 4.66699 34.333 20 45c12 8.66699 27 13 45 13c22 0 41.333 -6 58 -18c25.333 -18 38 -46.667 38 -86zM205.999 672.001c0 -32.667 -16.334 -66.333 -49.001 -101c-27.333 -28.667 -54.666 -49.334 -81.999 -62.001l-9 21
c35.333 22 60 46 74 72c6 10.667 10 23.334 12 38.001c0.666992 10 1.66699 20.333 3 31c-5.33301 6 -17.333 9.33301 -36 10c-24.667 0 -40.667 1.33301 -48 4c-16 4.66699 -24.667 15.667 -26 33c-2 19.333 4.66699 34.333 20 45c12 8.66699 27 13 45 13
c22 0 41.333 -6 58 -18c25.333 -18 38 -46.667 38 -86z" />
    <glyph glyph-name="A" unicode="A" horiz-adv-x="123" 
d="M54 794c16 0 29.667 -5.66699 41 -17s17 -25 17 -41s-5.66699 -29.667 -17 -41s-25 -17 -41 -17s-29.667 5.66699 -41 17s-17 25 -17 41s5.66699 29.667 17 41s25 17 41 17zM145 538h-157v61h157v-61z" />
    <glyph glyph-name="B" unicode="B" horiz-adv-x="584" 
d="M101 187c0 -33.333 5.49805 -59.167 16.498 -77.5s31.5 -35.166 61.5 -50.499v-61c-46 20 -78.667 40.667 -98 62c-26.667 30.667 -40 73 -40 127c0 50.667 20 96.667 60 138s87.667 67 143 77v136h-255v61h612v-61h-297v-136c55.333 -10 103.333 -35.667 144 -77
s61 -87.333 61 -138c0 -54 -13.333 -96.333 -40 -127c-19.333 -21.333 -52 -42 -98 -62v61c30 15.333 50.5 32.166 61.5 50.499s16.5 44.166 16.5 77.499c0 41.333 -18.167 77.333 -54.5 108s-76.166 46 -119.499 46s-82.666 -15 -117.999 -45
c-37.333 -31.333 -56 -67.666 -56 -108.999z" />
    <glyph glyph-name="C" unicode="C" horiz-adv-x="610" 
d="M124 538l0.000976562 -110.002h231c58 0 99.667 -17.333 125 -52c20 -28 30 -55.667 30 -83c0 -18 -4.33301 -36 -13 -54c-16 -32.667 -41.333 -63 -76 -91c34.667 -33.333 65 -82.666 91 -147.999h-64c-22 44.667 -45.333 83 -70 115c-15.333 -14 -31 -26.333 -47 -37
c-38.667 -24.667 -76.334 -37.667 -113.001 -39c-44.667 -1.33301 -82 8.66699 -112 30c-34 24 -50.333 57.667 -49 101c0.666992 34.667 12 62.334 34 83.001s50.667 32 86 34c49.333 2.66699 91.666 -6.33301 126.999 -27c22.667 -12.667 50.334 -35.667 83.001 -69
l40.5 48.5c13.667 16.333 20.5 34.833 20.5 55.5c0 25.333 -10 44.333 -30 57c-16 10.667 -44.667 16 -86 16h-268v170h-73v61h632v-61h-499zM337.001 156.998c-47.333 47.333 -93.333 71 -138 71c-50 0 -77.667 -18 -83 -54c-4.66699 -28 6 -48.333 32 -61
c19.333 -10 44.333 -14.333 75 -13c42 2.66699 80 21.667 114 57z" />
    <glyph glyph-name="D" unicode="D" horiz-adv-x="570" 
d="M210 538c21.333 -24.667 76.334 -53.001 165.001 -85.001c52 -19.333 98 -33 138 -41v-56c-45.333 7.33301 -83 17.333 -113 30v-187h-14c-20 37.333 -41.667 62.333 -65 75c-42 22.667 -74.333 34 -97 34c-45.333 0 -90 -46.667 -134 -140
c22.667 -34 59.667 -62.333 111 -85c40.667 -17.333 81.667 -27 123 -29c13.333 -0.666992 46.333 6 99 20l48 18c27.333 9.33301 46 14 56 14c4 0 7 -1 9 -3c3.33301 -5.33301 -5.33398 -16.333 -26.001 -33c-23.333 -18 -50 -33.333 -80 -46c-36 -16 -70 -24 -102 -24
c-66 0 -126.333 14 -181 42c-63.333 32.667 -104 74.667 -122 126c18.667 44 41.667 84.333 69 121c40 54 84.333 80 133 78c43.333 -2 81.333 -16.667 114 -44v82c-32 12.667 -73.667 31.334 -125 56.001c-40 25.333 -68.667 51 -86 77h-137v61h595v-61h-378z" />
    <glyph glyph-name="E" unicode="E" horiz-adv-x="590" 
d="M420 0l0.000976562 133c-56 -38.667 -115 -58 -177 -58c-61.333 0 -127.333 40.333 -198 121c16 40.667 31.667 108 47 202c5.33301 36 2.66602 82.667 -8.00098 140h-90v61h614v-61h-128v-538h-60zM420.001 378v159.999h-276c3.33301 -16.667 7 -43.667 11 -81
c0.666992 -27.333 -1 -53.666 -5 -78.999h270zM254.001 135.999c46 0 101.334 19 166.001 57v125h-281l-27 -106c39.333 -50.667 86.666 -76 141.999 -76z" />
    <glyph glyph-name="F" unicode="F" horiz-adv-x="193" 
d="M212 538h-224v61h224v-61z" />
    <glyph glyph-name="G" unicode="G" horiz-adv-x="579" 
d="M200 196c-11.333 -2.66699 -22.6689 -4.00293 -34.002 -4.00293c-34.667 0 -64.167 10.333 -88.5 31s-37.833 45.334 -40.5 74.001c-4.66699 48 9 84.667 41 110c30 23.333 71.667 35 125 35c58.667 0 110.334 -23 155.001 -69c8 8.66699 15.333 17.334 22 26.001
c15.333 20.667 26 39 32 55c10.667 28.667 16 56.667 16 84h-437v61h602v-61h-105c1.33301 -29.333 -5 -64 -19 -104c-12 -36 -35 -71 -69 -105c24 -28.667 38 -46 42 -52c17.333 -26.667 26 -56.667 26 -90c0 -58 -20 -104 -60 -138c-42 -35.333 -99 -51.666 -171 -48.999
c-41.333 2 -85.5 13.667 -132.5 35s-67.167 39 -60.5 53c2.66699 6 8.33398 9 17.001 9c7.33301 0 21.333 -3.33301 42 -10c26.667 -8.66699 47 -14.667 61 -18c28 -6 65.333 -9 112 -9c35.333 0 65.5 12.5 90.5 37.5s37.5 54.833 37.5 89.5c0 38 -14 70 -42 96
c-28 -26 -52.333 -45 -73 -57c-23.333 -12.667 -53 -22.667 -89 -30zM96.9971 297.997c5.33301 -30 28 -45 68 -45c10 0 22.667 1 38 3c34 4.66699 73.333 28 118 70c-39.333 37.333 -81 56 -125 56c-66.667 0 -100 -23 -100 -69c0 -4.66699 0.333008 -9.66699 1 -15z" />
    <glyph glyph-name="H" unicode="H" horiz-adv-x="290" 
d="M210 50c0 -19.333 -7.16602 -34.668 -21.499 -46.001s-28.833 -17 -43.5 -17s-28.334 5 -41.001 15c-15.333 12 -23 28 -23 48c0 18.667 6.33301 34.334 19 47.001s27.667 19 45 19s32.5 -6.5 45.5 -19.5s19.5 -28.5 19.5 -46.5z" />
    <glyph glyph-name="I" unicode="I" horiz-adv-x="606" 
d="M294 11c-12 0 -22.665 3.66797 -31.998 11.001c-11.333 10 -17 22.667 -17 38c0 12.667 4.16699 24 12.5 34s20.166 15 35.499 15c13.333 0 24.666 -3.66699 33.999 -11c11.333 -9.33301 17 -21.333 17 -36c0 -12.667 -4.33301 -24.334 -13 -35.001s-21 -16 -37 -16z
M496.002 538.001v-538h-60v259h-267v-259h-61v259h-49c-23.333 0 -35 11.667 -35 35c0 30.667 11.333 57 34 79c20.667 20.667 47 31 79 31c21.333 0 32 -8.66699 32 -26v-59h267v219h-446v61h630v-61h-124z" />
    <glyph glyph-name="J" unicode="J" horiz-adv-x="618" 
d="M508 311c-8 0 -25.999 0.337891 -53.999 1.00488c-22.667 0.666992 -41 1 -55 1c-57.333 -0.666992 -100 -5 -128 -13c-37.333 -10.667 -71.833 -29.834 -103.5 -57.501s-51.834 -49.167 -60.501 -64.5c6 -12 24.333 -29 55 -51
c22.667 -16.667 42.334 -29.334 59.001 -38.001c49.333 -27.333 94.333 -40 135 -38c24.667 1.33301 48.667 9.33301 72 24c14.667 9.33301 30.667 23.333 48 42c14.667 14.667 23.667 22 27 22c4 0 6 -3.66699 6 -11c0 -20.667 -13.667 -45.334 -41 -74.001
c-30 -32.667 -62 -50.334 -96 -53.001c-20 -1.33301 -45.667 0.666992 -77 6c-49.333 8 -92 23 -128 45c-67.333 41.333 -109 82.666 -125 123.999c6.66699 27.333 29.667 59 69 95c34.667 31.333 64 54 88 68c-19.333 17.333 -45.333 45 -78 83
c-24.667 37.333 -40.334 76 -47.001 116h-84v61h640v-61h-122v-227zM134.001 538.005c11.333 -42.667 26.833 -74.999 46.5 -96.999s34.834 -36.667 45.501 -44c17.333 -12.667 38.666 -21.334 63.999 -26.001h159v167h-315z" />
    <glyph glyph-name="K" unicode="K" horiz-adv-x="260" 
d="M141 539v-305h-60v305h-93v60h285v-60h-132zM117 794c16 0 29.667 -5.66699 41 -17s17 -25 17 -41s-5.66699 -29.667 -17 -41s-25 -17 -41 -17s-29.667 5.66699 -41 17s-17 25 -17 41s5.66699 29.667 17 41s25 17 41 17z" />
    <glyph glyph-name="L" unicode="L" horiz-adv-x="350" 
d="M113 476c0 15.333 5.5 28.5 16.5 39.5s24.5 16.5 40.5 16.5c15.333 0 28.5 -5.5 39.5 -16.5s16.5 -24.167 16.5 -39.5c0 -16 -5.5 -29.5 -16.5 -40.5s-24.167 -16.5 -39.5 -16.5c-16 0 -29.5 5.5 -40.5 16.5s-16.5 24.5 -16.5 40.5zM113 56c0 15.333 5.5 28.5 16.5 39.5
s24.5 16.5 40.5 16.5c15.333 0 28.5 -5.5 39.5 -16.5s16.5 -24.167 16.5 -39.5c0 -16 -5.5 -29.5 -16.5 -40.5s-24.167 -16.5 -39.5 -16.5c-16 0 -29.5 5.5 -40.5 16.5s-16.5 24.5 -16.5 40.5z" />
    <glyph glyph-name="M" unicode="M" horiz-adv-x="587" 
d="M494 538c-10 -39.333 -22.666 -71 -37.999 -95c-19.333 -29.333 -46 -52.333 -80 -69c25.333 -8.66699 47.333 -22.334 66 -41.001c31.333 -29.333 45.666 -64.666 42.999 -105.999c-4.66699 -54 -27.334 -94 -68.001 -120c-30.667 -19.333 -71.667 -29 -123 -29
c-11.333 0 -22 0.666992 -32 2c1.33301 -2.66699 10 -13.667 26 -33c14 -16.667 21 -29 21 -37s-4 -12 -12 -12c-10.667 0 -26 7 -46 21c-16.667 12 -28 21.667 -34 29c-29.333 37.333 -65.333 54.666 -108 51.999c-24 -0.666992 -36 13 -36 41c0 13.333 4 25.333 12 36
c11.333 13.333 24.333 20 39 20c12.667 0 24 -6.33301 34 -19c20 -25.333 39.333 -40.666 58 -45.999c8.66699 -2 33.667 -2.66699 75 -2c32.667 0 62.5 8.16699 89.5 24.5s41.5 40.5 43.5 72.5c2.66699 34 -12.333 63.333 -45 88c-29.333 23.333 -59 33.333 -89 30
c-20 -2 -66 -12.667 -138 -32c-29.333 -8 -44.666 -12 -45.999 -12c-9.33301 0 -22.333 6 -39 18c-7.33301 5.33301 -11 10.333 -11 15c0 10 15 19.333 45 28c4.66699 1.33301 31.334 8 80.001 20c-44.667 24 -76.334 50 -95.001 78c-9.33301 13.333 -21 39.333 -35 78h-58
v61h607v-61h-106zM111.001 538c16 -32 33.999 -56.667 53.999 -74c44.667 -38 86 -57 124 -57c40 0 74.667 18.667 104 56c18.667 24 32.334 49 41.001 75h-323z" />
    <glyph glyph-name="N" unicode="N" horiz-adv-x="596" 
d="M486 538v-181.999c-34.667 2 -72.334 0.333008 -113.001 -5c-55.333 -7.33301 -98 -20.333 -128 -39c-58.667 -36.667 -109 -83.334 -151 -140.001c11.333 -14.667 33 -32 65 -52c28.667 -18.667 54.667 -33 78 -43c36.667 -16 68.334 -24 95.001 -24c16.667 0 35 3 55 9
c15.333 4.66699 36 17.667 62 39c24 19.333 39 29 45 29s9 -3.66699 9 -11c0 -14 -12.667 -33.167 -38 -57.5s-51.666 -41.5 -78.999 -51.5c-23.333 -8.66699 -46.333 -13 -69 -13c-38 0 -95 19.667 -171 59c-17.333 9.33301 -37 23 -59 41
c-31.333 26.667 -50 50.667 -56 72c4 23.333 24.333 54.333 61 93c32 35.333 66 65.333 102 90c31.333 22.667 71.666 38.667 120.999 48l111 16v122h-433v61h623v-61h-130z" />
    <glyph glyph-name="O" unicode="O" horiz-adv-x="673" 
d="M351 269v-239h-61v239h-239v61h239v239h61v-239h239v-61h-239z" />
    <glyph glyph-name="P" unicode="P" horiz-adv-x="620" 
d="M343 64c1.33301 -13.333 -2.5 -25.1689 -11.5 -35.502s-20.167 -16.166 -33.5 -17.499s-25.333 2.66699 -36 12s-16.667 20.666 -18 33.999c-1.33301 12.667 2.83398 24.334 12.501 35.001s21.167 16.667 34.5 18c12.667 1.33301 24.167 -2.66699 34.5 -12
s16.166 -20.666 17.499 -33.999zM510 537.997l-0.000976562 -538.001h-61v259h-253l-35 -149c-12 -54 -31.667 -81 -59 -81c-8 0 -16.667 2.33301 -26 7c-18.667 10.667 -28 26.667 -28 48c0 16 6 36.667 18 62c26.667 56.667 41.334 88.334 44.001 95.001
c14.667 36 22.667 69 24 99c1.33301 27.333 -2 61 -10 101c-8 32 -15.667 64.333 -23 97h-108v61h642v-61h-125zM448.999 537.996h-287c22.667 -73.333 34 -146 34 -218h253v218z" />
    <glyph glyph-name="Q" unicode="Q" 
d="M-114 -130c0 -47.333 -10.0029 -82.3311 -30.0029 -104.998c-24.667 -28 -54.667 -42 -90 -42c-40 0 -78.667 21 -116 63c-30 34 -45 65.667 -45 95c0 30 11.333 51 34 63c10.667 5.33301 24.667 8 42 8c22.667 0 34.334 -4 35.001 -12
c0.666992 -6 -3.66602 -10.5 -12.999 -13.5s-18.666 -5.83301 -27.999 -8.5c-16.667 -4 -25 -14 -25 -30c0 -22.667 11 -45.334 33 -68.001c32 -32.667 62 -48.334 90 -47.001c16.667 0.666992 30.667 9.5 42 26.5s17 40.167 17 69.5v107h54v-106z" />
    <glyph glyph-name="R" unicode="R" horiz-adv-x="594" 
d="M155 538c14.667 -32.667 33.667 -58 57 -76c32 -24 59.667 -36 83 -36h129v112h-269zM484 538l0.00195312 -170.999h-296c-15.333 0 -32.333 -5 -51 -15c-20.667 -12 -31 -25.333 -31 -40c0 -16.667 7.66699 -32.334 23 -47.001c13.333 -14 26 -21 38 -21h313v-60h-234
c8.66699 -31.333 18 -54.333 28 -69c14.667 -21.333 37 -38.666 67 -51.999c20.667 -9.33301 44 -14 70 -14c20.667 0 42 3 64 9l-11 -39c-36.667 -14.667 -68.334 -22 -95.001 -22c-8 0 -15 1 -21 3c-22.667 5.33301 -45.167 15 -67.5 29s-38.5 28.333 -48.5 43
c-17.333 24.667 -32 55 -44 91c-2.66699 6.66699 -15.334 14 -38.001 22c-27.333 9.33301 -42.333 14.666 -45 15.999c-39.333 24.667 -59 58.667 -59 102c0 64 43.333 105 130 123c-14 10 -34 29.333 -60 58c-8.66699 12.667 -15.667 30.667 -21 54h-101v61h615v-61h-125z
" />
    <glyph glyph-name="S" unicode="S" horiz-adv-x="612" 
d="M501 538l-0.000976562 -189.002h-345c-28 0 -42 -16 -42 -48c0 -9.33301 1.66699 -19.666 5 -30.999l10 -35c7.33301 -12 22.666 -16.667 45.999 -14c18.667 4.66699 56.334 7 113.001 7c103.333 0 172.333 -10 207 -30c26.667 -15.333 39.667 -42.666 39 -81.999
c-0.666992 -41.333 -13.667 -69.666 -39 -84.999c-34 -20.667 -103 -31 -207 -31c-110.667 0 -182.334 9.66699 -215.001 29c-22.667 14 -34.667 43 -36 87c0 22 4.66699 39 14 51c4.66699 6 13 13 25 21c8.66699 5.33301 12.334 10.666 11.001 15.999
c-11.333 22 -19.333 41 -24 57c-7.33301 21.333 -9.66602 43.333 -6.99902 66c2 20.667 12.5 39.5 31.5 56.5s40.167 25.5 63.5 25.5h290v129h-449v61h633v-61h-124zM314.999 166.998l0.000976562 -106c55.333 0.666992 93 3.66699 113 9
c30.667 7.33301 46 22.666 46 45.999c0 22.667 -15.333 37.334 -46 44.001c-16.667 4 -54.334 6.33301 -113.001 7zM255 166.998c-58 -0.666992 -95.333 -3 -112 -7c-30 -6.66699 -45 -21.334 -45 -44.001c0 -23.333 15 -38.666 45 -45.999
c20 -5.33301 57.333 -8.33301 112 -9v106z" />
    <glyph glyph-name="T" unicode="T" horiz-adv-x="636" 
d="M316 801c-82.667 0 -141.333 -25.668 -176 -77.001c-22 -33.333 -33 -75 -33 -125h411c-3.33301 56.667 -13 98.334 -29 125.001c-31.333 51.333 -89 77 -173 77zM317.001 860.999c86.667 0 152.669 -24.334 198.002 -73.001c42 -45.333 63 -108.333 63 -189h79v-61h-78
c-17.333 -55.333 -36 -97.666 -56 -126.999c-25.333 -38 -60.666 -68.333 -105.999 -91c73.333 -43.333 109.666 -98 108.999 -164c0 -42 -13 -77.333 -39 -106c-30.667 -33.333 -75 -50 -133 -50c-94.667 0 -168.334 36.667 -221.001 110
c-44.667 62 -71.667 145.667 -81 251c-4 44.667 -5.66699 103.667 -5 177h-54v61h54c0 78.667 21.667 141 65 187c47.333 50 115.666 75 204.999 75zM519.003 537.998h-412c0 -80 2.66699 -145.333 8 -196h113c68.667 1.33301 111.667 5.33301 129 12
c42.667 14.667 74.667 34.667 96 60c24 28.667 46 70 66 124zM330.003 286.998c-24 -3.33301 -92.666 -5 -205.999 -5c11.333 -43.333 26.333 -80.666 45 -111.999c45.333 -74.667 105.666 -111.334 180.999 -110.001c34 1.33301 61.667 10 83 26c24 18 34.667 43.667 32 77
c-1.33301 28.667 -17 57.5 -47 86.5s-59.333 41.5 -88 37.5z" />
    <glyph glyph-name="U" unicode="U" horiz-adv-x="637" 
d="M519 538h-412c0 -80 2.66699 -145.333 8 -196h113c68.667 1.33301 111.667 5.33301 129 12c42.667 14.667 74.667 34.667 96 60c24 28.667 46 70 66 124zM579 538c-17.333 -55.333 -35.999 -97.668 -55.999 -127.001c-25.333 -38 -60.666 -68.333 -105.999 -91
c73.333 -43.333 109.666 -98 108.999 -164c0 -42 -13 -77.333 -39 -106c-30.667 -33.333 -75 -50 -133 -50c-94.667 0 -168.334 36.667 -221.001 110c-44.667 62 -71.667 145.667 -81 251c-4 44.667 -5.66699 103.667 -5 177h-54v61h54
c4.66699 84.667 30.667 152.667 78 204c50 55.333 117 83 201 83c4.66699 0 17 0.333008 37 1h49c127.333 0 190 -15.333 188 -46c0 -10.667 -35.333 -16.667 -106 -18l-141 2c-93.333 -1.33301 -159.666 -29.333 -198.999 -84
c-20.667 -29.333 -36.334 -76.666 -47.001 -141.999h550v-61h-78zM330.001 286.998c-24 -3.33301 -92.666 -5 -205.999 -5c11.333 -43.333 26.333 -80.666 45 -111.999c45.333 -74.667 105.666 -111.334 180.999 -110.001c34 1.33301 61.667 10 83 26
c24 18 34.667 43.667 32 77c-1.33301 28.667 -17 57.5 -47 86.5s-59.333 41.5 -88 37.5z" />
    <glyph glyph-name="V" unicode="V" horiz-adv-x="610" 
d="M517 538c-4 -24 -15.001 -52.3408 -33.001 -85.0078c-14 -26 -38.667 -53 -74 -81c22 -7.33301 41.667 -20.666 59 -39.999c22 -25.333 32.333 -53.666 31 -84.999c-4.66699 -75.333 -46 -130.333 -124 -165l33 -32c16 -15.333 24 -27.666 24 -36.999
c0 -10.667 -4.66699 -16 -14 -16s-27 10.333 -53 31c-30.667 24.667 -49 38.334 -55 41.001c-41.333 -3.33301 -67.333 -4.66602 -78 -3.99902c-50 4 -87.667 12.333 -113 25l26 -39c10 -15.333 15 -27.333 15 -36c0 -10.667 -4.33301 -16 -13 -16
c-17.333 0 -43.333 25.333 -78 76c-16 22.667 -25 36.334 -27 41.001c-9.33301 14.667 -14.333 27 -15 37c-1.33301 18 5.66699 27 21 27c4.66699 0 10 -0.666992 16 -2c70 -36 138.667 -54 206 -54c47.333 0 85 9.66699 113 29c34.667 24 53.334 51 56.001 81
c6 62 -35 93 -123 93c-19.333 0 -44 -1.33301 -74 -4c-39.333 -4 -61.333 -6.33301 -66 -7c-30 -1.33301 -56 0.666992 -78 6c-27.333 6.66699 -41 18.334 -41 35.001c0 31.333 44.667 45.333 134 42c15.333 0 35.333 -2 60 -6c22.667 -4 39 -6 49 -6
c34 0 68.333 18.667 103 56c22 22.667 40 54.334 54 95.001h-464v61h631v-61h-108z" />
    <glyph glyph-name="W" unicode="W" horiz-adv-x="576" 
d="M466 154c0 -42.667 -8.33496 -77.668 -25.002 -105.001c-21.333 -33.333 -52.666 -50 -93.999 -50c-49.333 0 -100.666 24.667 -153.999 74c-44.667 40.667 -80.667 87.334 -108 140.001c-14.667 28 -22 55.667 -22 83c0 66.667 40.333 100 121 100h222v142h-412v61h597
v-61h-125v-384zM190.998 335.999c-47.333 0 -70.999 -12.667 -70.999 -38c0 -36 28.167 -85 84.5 -147s103.166 -93 140.499 -93c20 0 35.667 8.66699 47 26c9.33301 14.667 14 32.667 14 54v198h-215zM486.999 -82.001v-60.001
c-58.667 -23.333 -115.334 -35.666 -170.001 -36.999c-51.333 -1.33301 -108.666 11 -171.999 37v61c62 -25.333 119.333 -38 172 -38c54 0 110.667 12.333 170 37z" />
    <glyph glyph-name="X" unicode="X" horiz-adv-x="586" 
d="M475 538v-538h-60v153c-56 -38 -113.333 -57 -172 -57c-61.333 0 -127.333 40.333 -198 121c20 50 35.667 110.333 47 181c6.66699 42 5 88.667 -5 140h-97v61h611v-61h-126zM147 538c8.66699 -54 10.334 -102.999 5.00098 -146.999
c-4 -34.667 -17.333 -87.334 -40 -158.001c39.333 -50.667 86.666 -76 141.999 -76c43.333 0 97 18.667 161 56v325h-268z" />
    <glyph glyph-name="Y" unicode="Y" horiz-adv-x="610" 
d="M499 538l-0.00195312 -220h-334c0 -51.333 11.333 -97.333 34 -138c12 -20.667 26.667 -41.667 44 -63c21.333 34 44.833 59.5 70.5 76.5s53.834 25.5 84.501 25.5c13.333 0 27 -1.66699 41 -5c24.667 -5.33301 44.667 -18.833 60 -40.5s22.333 -46.167 21 -73.5
c-2.66699 -36 -17 -63 -43 -81c-23.333 -16.667 -53.333 -25 -90 -25c-41.333 0 -81.666 10.5 -120.999 31.5s-76.333 56.167 -111 105.5c-32 46 -48.667 108.333 -50 187h-54c-19.333 0 -29 10 -29 30c0 28 9.66699 50.333 29 67c10.667 9.33301 25.5 17.833 44.5 25.5
s35.167 11.5 48.5 11.5c14 0 21 -4.66699 21 -14v-60h274v160h-448v61h632v-61h-124zM395.998 53c43.333 2 65 19.667 65 53c0 4 -0.333008 8.33301 -1 13c-4.66699 30.667 -27.667 46 -69 46c-10.667 0 -19.667 -1 -27 -3c-22.667 -6 -51 -31 -85 -75
c25.333 -14.667 43.333 -24 54 -28c17.333 -5.33301 38.333 -7.33301 63 -6z" />
    <glyph glyph-name="Z" unicode="Z" 
d="M-264 745c-8.66699 16.667 -12.999 39.334 -12.999 68.001c-0.666992 24.667 1 37 5 37c2.66699 0 6.66699 -9 12 -27c8.66699 -27.333 17.334 -47.666 26.001 -60.999c22 -33.333 54.333 -50 97 -50c44 0 77 16.667 99 50c8.66699 13.333 17.334 33.666 26.001 60.999
c5.33301 18 9.33301 27 12 27c4 0 5.66699 -12.333 5 -37c0 -28.667 -4.33301 -51.334 -13 -68.001c-10.667 -22 -27.334 -41 -50.001 -57c-24.667 -17.333 -50.334 -26 -77.001 -26c-28 0 -54.333 8.66699 -79 26c-22.667 15.333 -39.334 34.333 -50.001 57z" />
    <glyph glyph-name="bracketleft" unicode="[" 
d="M-133 -82v-60.001c-58.667 -23.333 -115.334 -35.666 -170.001 -36.999c-51.333 -1.33301 -108.666 11 -171.999 37v61c62 -25.333 119.333 -38 172 -38c54 0 110.667 12.333 170 37z" />
    <glyph glyph-name="backslash" unicode="\" horiz-adv-x="570" 
d="M229 -16c-12 0 -23 4.16797 -33 12.501s-15 19.833 -15 34.5c0 13.333 4 24.333 12 33c8 11.333 20 17 36 17c12.667 0 23.667 -4 33 -12s14 -19.333 14 -34c0 -12.667 -4 -24.334 -12 -35.001s-19.667 -16 -35 -16zM147 368.001c-6 -30.667 -22 -71.332 -48 -121.999
c29.333 -26.667 79 -42.334 149 -47.001c56 -3.33301 109 8 159 34v135h-260zM466 0.00292969l-58.998 -0.000976562v173c-41.333 -25.333 -92.333 -37.333 -153 -36c-46 0.666992 -90.167 10.334 -132.5 29.001s-70.5 41 -84.5 67c1.33301 8 11.333 36.333 30 85
c17.333 46 26.666 79 27.999 99c2.66699 38.667 -0.333008 70 -9 94c-6.66699 18 -13.334 27 -20.001 27h-76v61h82c16.667 0 32.167 -7 46.5 -21s24.5 -32 30.5 -54c4 -14 6 -46 6 -96h252v171h181v-61h-122v-538z" />
    <glyph glyph-name="bracketright" unicode="]" horiz-adv-x="770" 
d="M332 -10h-60v609h60v-609zM506 -10h-60v609h60v-609z" />
    <glyph glyph-name="asciicircum" unicode="^" horiz-adv-x="520" 
d="M462 272h-406v57h406v-57z" />
    <glyph glyph-name="underscore" unicode="_" 
d="M-296 -119c-32.667 0 -49.002 -12 -49.002 -36c0 -9.33301 6 -17.833 18 -25.5s21.667 -11.5 29 -11.5h163v-42h-119c2 -14 5.33301 -27.333 10 -40s14.667 -23.334 30 -32.001c12 -6.66699 28.333 -8 49 -4c2 0.666992 11 3 27 7c-0.666992 -4.66699 -3 -11.667 -7 -21
c-10 -13.333 -24.333 -20 -43 -20c-34.667 0 -60.667 11.333 -78 34c-2.66699 3.33301 -10 16.333 -22 39c-3.33301 8.66699 -7.66602 19 -12.999 31c-2.66699 5.33301 -10.667 11 -24 17c-9.33301 4 -18.666 8.33301 -27.999 13c-20.667 10.667 -32 29.334 -34 56.001
c-1.33301 20 5.16699 37.667 19.5 53s31.833 23 52.5 23h146v49h41v-90h-168z" />
    <glyph glyph-name="grave" unicode="`" horiz-adv-x="342" 
d="M169 173l-10 106.999c-12.667 131.333 -19 235.666 -19 312.999v18c-0.666992 8 -1 14 -1 18c0 27.333 12.667 41 38 41c20.667 0 33 -8.33301 37 -25c0.666992 -3.33301 1 -20.666 1 -51.999c0 -63.333 -6.66699 -167.666 -20 -312.999l-10 -107h-16zM125 53.999
c0 14.667 5 27 15 37s22.333 15 37 15s27 -5 37 -15s15 -22.333 15 -37s-5 -27 -15 -37s-22.333 -15 -37 -15s-27 5 -37 15s-15 22.333 -15 37z" />
    <glyph glyph-name="a" unicode="a" horiz-adv-x="13" 
d="M-300 -62c16 0 29.667 -5.66699 41 -17s17 -25 17 -41s-5.66699 -29.667 -17 -41s-25 -17 -41 -17s-29.667 5.66699 -41 17s-17 25 -17 41s5.66699 29.667 17 41s25 17 41 17z" />
    <glyph glyph-name="b" unicode="b" horiz-adv-x="632" 
d="M313 191l-86 158.998c-39.333 0 -72 -14.5 -98 -43.5s-39 -64.167 -39 -105.5c0 -40 14.333 -74.333 43 -103s63 -43 103 -43v-58c-56 0 -104 19.833 -144 59.5s-60 87.834 -60 144.501c0 50.667 15.667 94.834 47 132.501s71.333 60.5 120 68.5l-73 136h-136v61h656v-61
h-137l-73 -136c48.667 -8 88.5 -30.667 119.5 -68s46.5 -81.666 46.5 -132.999c0 -56.667 -20 -104.834 -60 -144.501s-88.333 -59.5 -145 -59.5v58c40.667 0 75.167 14.333 103.5 43s42.5 63 42.5 103c0 41.333 -12.833 76.5 -38.5 105.5s-58.167 43.5 -97.5 43.5l-86 -159
h-8zM313 299.998h9l115 238h-239z" />
    <glyph glyph-name="c" unicode="c" horiz-adv-x="608" 
d="M497 538l-0.00292969 -169.001h-285c-46 -2.66699 -76 -14.667 -90 -36c-12 -17.333 -18 -36.333 -18 -57c0 -25.333 8.66699 -51.666 26 -78.999c8.66699 -10.667 23.334 -30.334 44.001 -59.001c20.667 26 41.667 47 63 63c30.667 22.667 69.334 36 116.001 40
c43.333 4 80.833 -6.33301 112.5 -31s45.834 -57.667 42.501 -99c-3.33301 -35.333 -22 -63.333 -56 -84c-29.333 -18 -63.333 -27 -102 -27c-14 0 -27 1.33301 -39 4c-60 12.667 -110 35.334 -150 68.001c-34 28 -62 60.333 -84 97c-21.333 34.667 -32 71 -32 109
c0 30 6.66699 55.333 20 76c15.333 24.667 29.833 41.5 43.5 50.5s35.5 17.5 65.5 25.5h264v108h-444v61h628v-61h-125zM216.997 98.999c52 -28 96.667 -42.001 134 -42.001c28 -0.666992 51.333 5 70 17c22 14.667 31 34.334 27 59.001c-6 33.333 -33 50 -81 50
c-10.667 0 -20 -1 -28 -3c-53.333 -12 -94 -39 -122 -81z" />
    <glyph glyph-name="d" unicode="d" horiz-adv-x="616" 
d="M506 538l0.000976562 -264h-330c0 -64 9.66699 -112.667 29 -146c28 -48 77 -72 147 -72c27.333 0 60 7.5 98 22.5s59.333 22.5 64 22.5c5.33301 0 8 -2 8 -6c0 -14.667 -15 -33 -45 -55c-36.667 -26.667 -79 -40 -127 -40c-102.667 0 -171.667 36.667 -207 110
c-18 38.667 -27 93 -27 163h-66c-14 0 -21 8 -21 24c0 13.333 4.16699 29 12.5 47s17.166 31.167 26.499 39.5s22.333 16.833 39 25.5c19.333 9.33301 35 14 47 14c14 0 21 -6.66699 21 -20v-69h272v204h-455v61h638v-61h-124z" />
    <glyph glyph-name="e" unicode="e" horiz-adv-x="638" 
d="M547 538l-5.99902 -59.9961c-2.66699 -26.667 -8 -54.334 -16 -83.001c-15.333 -56 -37 -104.667 -65 -146c8 -17.333 23.333 -53.333 46 -108c18.667 -46 35.334 -93 50.001 -141h-63c-6.66699 16 -19.334 51.667 -38.001 107c-7.33301 22 -18 51.333 -32 88
c-26.667 -46.667 -56.667 -80.334 -90 -101.001c-44.667 -28 -87 -42 -127 -42c-10 0 -20 0.666992 -30 2c-44 7.33301 -80 29.666 -108 66.999c-26 34.667 -39 73 -39 115c0 55.333 19.5 100.166 58.5 134.499s86.167 50.166 141.5 47.499
c64.667 -2.66699 129.667 -40.667 195 -114c11.333 18.667 26 56.334 44 113.001c11.333 36.667 17.666 77 18.999 121h-495v61h660v-61h-105zM206.001 359.004c-33.333 0 -61.333 -12 -84 -36s-34 -53 -34 -87c0 -31.333 10 -59 30 -83s46.333 -38 79 -42
c17.333 -2 37.833 1.66699 61.5 11s43.5 21.333 59.5 36c24 22 48.333 53.333 73 94c-44 44 -66.667 66.333 -68 67c-34 26.667 -73 40 -117 40z" />
    <glyph glyph-name="f" unicode="f" horiz-adv-x="286" 
d="M172 538l0.00195312 -538h-60v538h-114v61h114c0 45.333 0.333008 72.333 1 81c4 53.333 15.333 95 34 125c27.333 44.667 79.666 67 156.999 67c29.333 0 57 -8 83 -24s43.667 -36.667 53 -62c12 -33.333 17.333 -65.333 16 -96h-59
c-0.666992 9.33301 -2.66699 24.666 -6 45.999c-8.66699 52.667 -43.334 79 -104.001 79c-54 0 -88.667 -25.667 -104 -77c-8 -25.333 -11.667 -71.666 -11 -138.999h146v-61h-146z" />
    <glyph glyph-name="g" unicode="g" horiz-adv-x="601" 
d="M620 538h-128.997v-538h-60v164c-15.333 -13.333 -36.333 -26.333 -63 -39c-34 -16 -64.667 -24.333 -92 -25c-65.333 -0.666992 -121.666 16.333 -168.999 51c-31.333 23.333 -50 44 -56 62c-0.666992 12 9.66602 45.667 30.999 101c23.333 60 36.333 98.333 39 115
c0.666992 4.66699 1 10.334 1 17.001c0 23.333 -5 43.333 -15 60c-12.667 21.333 -32.334 32 -59.001 32h-52v61h87c24.667 0 47.5 -15 68.5 -45s31.5 -64 31.5 -102c0 -8.66699 -0.666992 -17.334 -2 -26.001c-12.667 -78.667 -36.334 -145 -71.001 -199
c15.333 -13.333 31.666 -25 48.999 -35c35.333 -21.333 69 -32.333 101 -33c49.333 -1.33301 106.333 20.667 171 66v374h189v-61z" />
    <glyph glyph-name="h" unicode="h" horiz-adv-x="286" 
d="M77 538l-85.998 0.000976562v61h86c0.666992 67.333 -3 113.666 -11 138.999c-15.333 51.333 -50 77 -104 77c-60.667 0 -95.334 -26.333 -104.001 -79c-0.666992 -2.66699 -2.66699 -18 -6 -46h-59c-1.33301 30.667 4 62.667 16 96c9.33301 25.333 27 46 53 62
s53.667 24 83 24c77.333 0 129.666 -22.333 156.999 -67c18.667 -30 30 -71.667 34 -125c0.666992 -8.66699 1 -35.667 1 -81h164v-61h-164v-538h-60v538z" />
    <glyph glyph-name="i" unicode="i" horiz-adv-x="606" 
d="M496 538v-538h-60v259h-267v-259h-61v259h-49c-23.333 0 -35 11.667 -35 35c0 30.667 11.333 57 34 79c20.667 20.667 47 31 79 31c21.333 0 32 -8.66699 32 -26v-59h267v219h-446v61h630v-61h-124z" />
    <glyph glyph-name="j" unicode="j" horiz-adv-x="570" 
d="M460 538v-386.001c0 -42 -11 -76.667 -33 -104c-25.333 -32 -61.666 -48 -108.999 -48c-34 0 -69.333 10 -106 30c-34.667 18 -65 41.667 -91 71c-46.667 52 -70 105 -70 159c0 26 10.333 50 31 72c23.333 25.333 53.666 38 90.999 38h46v-60h-38
c-48.667 0 -72 -20 -70 -60c2 -35.333 22.667 -73.666 62 -114.999c47.333 -50 94.333 -75 141 -75c58 0 87 30 87 90v388h-411v61h596v-61h-126z" />
    <glyph glyph-name="k" unicode="k" horiz-adv-x="260" 
d="M141 538v-304h-60v304h-93v61h285v-61h-132z" />
    <glyph glyph-name="l" unicode="l" horiz-adv-x="350" 
d="M236 2c0 -32.667 -16.334 -66.333 -49.001 -101c-27.333 -28.667 -54.666 -49.334 -81.999 -62.001l-9 21c35.333 22 60 46 74 72c6 10.667 10 23.334 12 38.001c0.666992 10 1.66699 20.333 3 31c-5.33301 6 -17.333 9.33301 -36 10c-24.667 0 -40.667 1.33301 -48 4
c-16 4.66699 -24.667 15.667 -26 33c-2 19.333 4.66699 34.333 20 45c12 8.66699 27 13 45 13c22 0 41.333 -6 58 -18c25.333 -18 38 -46.667 38 -86zM112.999 476.001c0 15.333 5.5 28.5 16.5 39.5s24.5 16.5 40.5 16.5c15.333 0 28.5 -5.5 39.5 -16.5
s16.5 -24.167 16.5 -39.5c0 -16 -5.5 -29.5 -16.5 -40.5s-24.167 -16.5 -39.5 -16.5c-16 0 -29.5 5.5 -40.5 16.5s-16.5 24.5 -16.5 40.5z" />
    <glyph glyph-name="m" unicode="m" horiz-adv-x="570" 
d="M262 374c-52 0 -95.999 -16.999 -131.999 -50.999s-54 -76 -54 -126c-0.666992 -93.333 61.666 -140 186.999 -140c56.667 0 101.334 10.333 134.001 31c38 24 57 60.333 57 109c-0.666992 49.333 -19.834 91.166 -57.501 125.499s-82.5 51.5 -134.5 51.5z
M295.001 538.001l-0.000976562 -104c64.667 -9.33301 117.167 -35.5 157.5 -78.5s60.5 -94.833 60.5 -155.5c0.666992 -63.333 -22.666 -113.333 -69.999 -150c-44.667 -34.667 -103.667 -52 -177 -52s-133 17.333 -179 52c-48 36.667 -71.667 86.667 -71 150
c0.666992 60.667 21.167 112.5 61.5 155.5s92.833 69.167 157.5 78.5v104h-247v61h601v-61h-294z" />
    <glyph glyph-name="n" unicode="n" horiz-adv-x="800" 
d="M690 538l0.00292969 -537.997h-61v338c-44.667 -18.667 -69 -29 -73 -31c-20 -11.333 -44 -31 -72 -59c-12.667 -13.333 -22.667 -33 -30 -59l-16 -66c-12 -43.333 -34 -65 -66 -65c-8 0 -16.667 1.33301 -26 4c-21.333 6 -32 18.667 -32 38c0 14 6 32.333 18 55
c4.66699 8.66699 24 33.334 58 74.001c21.333 25.333 32 54.666 32 87.999c0 8 -0.666992 16.667 -2 26c-2 21.333 -7.33301 47 -16 77c-10.667 34 -20.667 55.667 -30 65c-45.333 -28 -89 -67 -131 -117c-28 -32.667 -46.333 -55.334 -55 -68.001
c-18.667 -28.667 -28.334 -54.834 -29.001 -78.501s-7.66699 -43.167 -21 -58.5s-29.333 -23 -48 -23c-14.667 0 -27.334 4.33301 -38.001 13s-16 20.667 -16 36c0 14 4.66699 29 14 45l47 72c10 16.667 15 39.334 15 68.001c0 13.333 -0.666992 30.333 -2 51
c-6 75.333 -27.333 113 -64 113h-53v61h87c16 0 32.333 -12.333 49 -37c14 -20.667 23.667 -41.334 29 -62.001c8 -30.667 13 -69.334 15 -116.001c12 9.33301 25.333 22 40 38c23.333 26 35.666 39.667 36.999 41c59.333 60 101.666 90 126.999 90
c3.33301 0 6 -0.666992 8 -2c32.667 -14 57.334 -47.333 74.001 -100c12.667 -40 20.667 -82 24 -126c14.667 10.667 36 25 64 43c0.666992 0.666992 28 11.667 82 33v198h186v-61h-125z" />
    <glyph glyph-name="o" unicode="o" horiz-adv-x="576" 
d="M466 154c0 -42.667 -8.33496 -77.668 -25.002 -105.001c-21.333 -33.333 -52.666 -50 -93.999 -50c-49.333 0 -100.666 24.667 -153.999 74c-44.667 40.667 -80.667 87.334 -108 140.001c-14.667 28 -22 55.667 -22 83c0 66.667 40.333 100 121 100h222v142h-412v61h597
v-61h-125v-384zM190.998 335.999c-47.333 0 -70.999 -12.667 -70.999 -38c0 -36 28.167 -85 84.5 -147s103.166 -93 140.499 -93c20 0 35.667 8.66699 47 26c9.33301 14.667 14 32.667 14 54v198h-215z" />
    <glyph glyph-name="p" unicode="p" horiz-adv-x="580" 
d="M470 538v-538.001h-61v110c-16 -20.667 -46 -38 -90 -52c-35.333 -11.333 -60 -16.666 -74 -15.999c-64 6 -116.333 27 -157 63c-24 21.333 -41 45 -51 71c12 26 34.333 55.667 67 89c14.667 14 31.334 28.333 50.001 43c23.333 17.333 35.666 26.666 36.999 27.999
c-24 19.333 -40.333 33 -49 41c-19.333 18.667 -34.333 37.334 -45 56.001c-20 36 -32.333 71 -37 105h-69v61h604v-61h-125zM409 537.999l-287.999 -0.000976562c11.333 -41.333 25.666 -73.333 42.999 -96c21.333 -27.333 51.333 -54.666 90 -81.999h155v178z
M409.001 299.998h-166.001c-14.667 -6.66699 -36 -22.667 -64 -48s-54 -52 -78 -80c53.333 -46 104.333 -69 153 -69c30 0 63 10 99 30c32.667 18 51.334 33.333 56.001 46v121z" />
    <glyph glyph-name="q" unicode="q" 
d="M-102 -143c30.667 -38 45.999 -63.668 45.999 -77.001c0 -4.66699 -2 -8 -6 -10c-6.66699 -2.66699 -18.334 4 -35.001 20l-40 41c-26 25.333 -48.667 40.333 -68 45c-22 -28.667 -44.667 -43 -68 -43c-15.333 0 -29.333 6.66699 -42 20c-10 10 -15 22.667 -15 38
s4.83301 29.5 14.5 42.5s26.834 19.5 51.501 19.5c20.667 0 41 -4 61 -12c4 6 9 17.667 15 35h51c-6 -17.333 -15 -36.666 -27 -57.999c18.667 -12 39.334 -32.333 62.001 -61z" />
    <glyph glyph-name="r" unicode="r" horiz-adv-x="654" 
d="M543 538l-0.000976562 -538h-60v538h-129v-398c0 -93.333 -41 -140 -123 -140c-46 -0 -87.333 17.333 -124 52c-32.667 32 -55.667 72.333 -69 121c-4.66699 17.333 -7 34.333 -7 51c0 42 13.833 77 41.5 105s64.834 43 111.501 45h110v164h-300v61h674v-61h-125z
M213.999 315c-82.667 2 -124 -28 -124 -90c0 -21.333 5.33301 -43.333 16 -66c12.667 -28 29.667 -51 51 -69c23.333 -20 48 -30 74 -30c35.333 0 56.333 18 63 54v201h-80z" />
    <glyph glyph-name="s" unicode="s" horiz-adv-x="600" 
d="M474 425c-18 -41.333 -46.001 -77 -84.001 -107c30.667 -17.333 53 -33 67 -47c30 -30 45 -65.667 45 -107c0 -46.667 -14.333 -84.667 -43 -114c-30 -31.333 -72.333 -47 -127 -47c-20.667 0 -43 2.33301 -67 7c-28.667 6 -69.667 19.333 -123 40
c-63.333 25.333 -95 44.333 -95 57c0 7.33301 6.33301 11 19 11c15.333 0 44.333 -7.66699 87 -23c46.667 -16.667 76.334 -26 89.001 -28c36.667 -5.33301 64.667 -8 84 -8c80.667 0 119 38.333 115 115c-2 38.667 -22 68 -60 88c-33.333 17.333 -75.333 26 -126 26
c-34 0 -66.333 -3.66699 -97 -11c-5.33301 -1.33301 -12.333 -2 -21 -2c-47.333 0 -71 16.333 -71 49c0 29.333 19.333 44 58 44c18 0 44.667 -4.16699 80 -12.5s62 -12.5 80 -12.5c50 0 90 25.333 120 76c14 24.667 27 64.334 39 119.001h-449v61h620v-61h-111
c-8 -50.667 -17.667 -88.334 -29 -113.001z" />
    <glyph glyph-name="t" unicode="t" horiz-adv-x="582" 
d="M472 538l0.000976562 -170.999h-303c-20.667 0 -39.667 -5 -57 -15s-26 -23.333 -26 -40s7.33301 -31.834 22 -45.501s28 -20.5 40 -20.5h312v-60h-234c7.33301 -38.667 23.833 -70.167 49.5 -94.5s59.167 -36.5 100.5 -36.5c22.667 0 49.334 3.66699 80.001 11l-12 -47
c-36.667 -14.667 -68.334 -22 -95.001 -22c-8 0 -15 1 -21 3c-79.333 19.333 -133.333 74.333 -162 165c-2.66699 9.33301 -15 18.333 -37 27c-28.667 10 -49 20 -61 30c-22 18.667 -35.667 46 -41 82c-4.66699 31.333 7.16602 59.5 35.499 84.5s61.5 37.5 99.5 37.5h251
v112h-420v61h605v-61h-126z" />
    <glyph glyph-name="u" unicode="u" horiz-adv-x="626" 
d="M517 538l-0.000976562 -371c0 -40 -13.333 -75.333 -40 -106c-34 -40.667 -83.667 -61 -149 -61c-8.66699 -0 -17.667 0.333008 -27 1c-90 7.33301 -151.333 58.333 -184 153c-7.33301 22 -12.666 64 -15.999 126h-53c-22 0 -33 12.333 -33 37s8.33301 46 25 64
c24.667 25.333 54 38 88 38c22 0 33 -9.33301 33 -28v-51h295v198h-463v61h646v-61h-122zM160.999 280c1.33301 -29.333 2.33398 -47.332 3.00098 -53.999c2 -20.667 5.66699 -38.334 11 -53.001c23.333 -68.667 63.666 -105.667 120.999 -111c10 -0.666992 19.333 -1 28 -1
c44.667 0 78.667 10.667 102 32c20 18.667 30 41.667 30 69v118h-295z" />
    <glyph glyph-name="v" unicode="v" horiz-adv-x="610" 
d="M501 538c-29.333 -66 -70.3291 -119.33 -122.996 -159.997c36 -14.667 65.333 -37 88 -67c26 -34.667 37.333 -71.334 34 -110.001c-11.333 -132 -104 -198.667 -278 -200c-53.333 -0.666992 -96 9.5 -128 30.5s-49.333 49.5 -52 85.5
c-2.66699 35.333 7.66602 63.666 30.999 84.999s56.666 32 99.999 32c20 0 41.667 -2.33301 65 -7c56.667 -12 113.667 -47 171 -105l15 27c10 22 15 43 15 63c1.33301 39.333 -16.334 70.666 -53.001 93.999c-34 22 -76.667 33 -128 33c-27.333 0 -54 -3.33301 -80 -10
c-16.667 -4.66699 -33.334 -7 -50.001 -7c-49.333 0 -74 15 -74 45c0 15.333 8.5 28 25.5 38s37.5 15 61.5 15c13.333 0 32.666 -3.5 57.999 -10.5s45 -10.5 59 -10.5c70.667 0 131.334 46.333 182.001 139h-448v61h633v-61h-124zM221.004 170.003
c-12.667 1.33301 -24.334 1.99902 -35.001 1.99902c-55.333 0 -83.333 -16.333 -84 -49c-0.666992 -34 39.333 -54.333 120 -61c38.667 -3.33301 86.334 5.33398 143.001 26.001c-28 26.667 -49.667 44.667 -65 54c-22.667 14 -49 23.333 -79 28z" />
    <glyph glyph-name="w" unicode="w" horiz-adv-x="610" 
d="M500 538v-538.002h-60v262h-261c-8 -68 -16.333 -118.667 -25 -152c-14 -53.333 -35.333 -80 -64 -80c-33.333 0 -50 17.667 -50 53c0 16.667 3.66699 33.334 11 50.001l54 121c14 40 21 86.333 21 139c0 51.333 -2.33301 86.333 -7 105c-6 26.667 -19.333 40 -40 40h-86
v61h97c48.667 0 79.667 -37 93 -111c4 -19.333 5.66699 -46.666 5 -81.999c-0.666992 -28 -1.66699 -56 -3 -84h255v277h184v-61h-124z" />
    <glyph glyph-name="x" unicode="x" horiz-adv-x="700" 
d="M586 538l-0.00292969 -538.002h-60v132c-21.333 -19.333 -52.333 -29.666 -93 -30.999c-34 -1.33301 -71 19 -111 61c-25.333 -22.667 -44 -37.667 -56 -45c-22 -13.333 -45.333 -20 -70 -20c-38.667 0 -77 18.333 -115 55c-29.333 28 -47.666 51.667 -54.999 71
c4.66699 8.66699 20.667 51 48 127c16 43.333 24 80.333 24 111c0 46.667 -19.333 72.334 -58 77.001h-47v61h78c9.33301 0 21.5 -5.66699 36.5 -17s26.5 -25 34.5 -41c12 -24.667 17.333 -51 16 -79c-1.33301 -32 -23.666 -110.667 -66.999 -236c46 -46 81 -69 105 -69
c32 0 57 12.833 75 38.5s27 61.167 27 106.5c0 33.333 -5 70 -15 110c-2.66699 10.667 -4 21.667 -4 33c0 28.667 6.83301 55 20.5 79s26.167 36 37.5 36c8.66699 0 18.334 -11.833 29.001 -35.5s16 -48.5 16 -74.5c0 -14.667 -1.66699 -27.667 -5 -39
c-16.667 -50.667 -25 -95 -25 -133c0 -78 30.333 -117 91 -117c26 0 45 3.83301 57 11.5s20.667 21.167 26 40.5v386h188v-61h-128z" />
    <glyph glyph-name="y" unicode="y" horiz-adv-x="590" 
d="M419 368h-255c-6 -40.667 -21.667 -88.667 -47 -144c40 -38 96.667 -57 170 -57c20.667 0 45.667 7.66699 75 23c24 13.333 43 27 57 41v137zM479 538l0.000976562 -538h-60v163c-40.667 -37.333 -92.334 -56 -155.001 -56c-95.333 0 -167 35.333 -215 106
c20.667 56 32 86.333 34 91c13.333 38 21.5 68 24.5 90s4.5 41.333 4.5 58c0 24 -3.33301 43.667 -10 59l-16 27h-93v61h95c36 0 61 -25 75 -75c5.33301 -18.667 8 -50.667 8 -96h248v171h189v-61h-129z" />
    <glyph glyph-name="z" unicode="z" 
d="M-248 743c0.666992 -9.33301 5.66699 -23.833 15 -43.5s14 -31.5 14 -35.5c0 -1.33301 -0.333008 -2.33301 -1 -3c-4 -4.66699 -14.167 2.5 -30.5 21.5s-26.166 35.833 -29.499 50.5c-2 9.33301 -3 18 -3 26c0 24.667 9 48.334 27 71.001
c21.333 26.667 55.666 40 102.999 40s81.666 -13.333 102.999 -40c18 -22.667 27 -46.334 27 -71.001c0 -8 -1 -16.667 -3 -26c-3.33301 -14.667 -13.166 -31.5 -29.499 -50.5s-26.5 -26.167 -30.5 -21.5c-0.666992 0.666992 -1 1.66699 -1 3c0 4 4.66699 15.833 14 35.5
s14.333 34.167 15 43.5c2 21.333 -6.16699 40.5 -24.5 57.5s-41.833 25.5 -70.5 25.5s-52.167 -8.5 -70.5 -25.5s-26.5 -36.167 -24.5 -57.5z" />
    <glyph glyph-name="braceleft" unicode="{" 
d="M-133 -82v-60.001c-58.667 -23.333 -115.334 -35.666 -170.001 -36.999c-51.333 -1.33301 -108.666 11 -171.999 37v61c62 -25.333 119.333 -38 172 -38c54 0 110.667 12.333 170 37zM-133 -222.001v-60.001c-58.667 -23.333 -115.334 -35.666 -170.001 -36.999
c-51.333 -1.33301 -108.666 11 -171.999 37v61c62 -25.333 119.333 -38 172 -38c54 0 110.667 12.333 170 37z" />
    <glyph glyph-name="bar" unicode="|" horiz-adv-x="610" 
d="M93 38c0 -12.667 -5 -23.8359 -15 -33.5029s-21.667 -14.5 -35 -14.5s-24.833 5 -34.5 15s-14.5 21.667 -14.5 35c0 12.667 5.16699 23.834 15.5 33.501s22.166 14.5 35.499 14.5c12.667 0.666992 23.834 -4.16602 33.501 -14.499s14.5 -22.166 14.5 -35.499z
M500 537.998l-0.00292969 -169.001h-285c-46 -2.66699 -76 -14.667 -90 -36c-12 -17.333 -18 -36.333 -18 -57c0 -25.333 8.66699 -51.666 26 -78.999c8.66699 -10.667 23.334 -30.334 44.001 -59.001c20.667 26 41.667 47 63 63c30.667 22.667 69.334 36 116.001 40
c43.333 4 80.833 -6.33301 112.5 -31s45.834 -57.667 42.501 -99c-3.33301 -35.333 -22 -63.333 -56 -84c-29.333 -18 -63.333 -27 -102 -27c-14 0 -27 1.33301 -39 4c-60 12.667 -110 35.334 -150 68.001c-34 28 -62 60.333 -84 97c-21.333 34.667 -32 71 -32 109
c0 30 6.66699 55.333 20 76c15.333 24.667 29.833 41.5 43.5 50.5s35.5 17.5 65.5 25.5h264v108h-446v61h630v-61h-125zM219.997 98.9971c52 -28 96.667 -42.001 134 -42.001c28 -0.666992 51.333 5 70 17c22 14.667 31 34.334 27 59.001c-6 33.333 -33 50 -81 50
c-10.667 0 -20 -1 -28 -3c-53.333 -12 -94 -39 -122 -81z" />
    <glyph glyph-name="braceright" unicode="}" horiz-adv-x="710" 
d="M43 -11c-12 0 -23.167 4.16797 -33.5 12.501s-15.5 19.833 -15.5 34.5c0 13.333 4.33301 24.333 13 33c8 11.333 20 17 36 17c12 0 22.667 -4 32 -12s14 -19.333 14 -34c0 -12.667 -4 -24.334 -12 -35.001s-19.333 -16 -34 -16zM598 538.001l-0.000976562 -538h-60v538
h-124v-398c0 -93.333 -41 -140 -123 -140c-46 0 -87.333 17.333 -124 52c-32.667 32 -55.667 72.333 -69 121c-4.66699 17.333 -7 34.333 -7 51c0 42 13.833 77 41.5 105s64.834 43 111.501 45h110v164h-360v61h732v-61h-128zM273.999 315.001c-82.667 2 -124 -28 -124 -90
c0 -21.333 5.33301 -43.333 16 -66c12.667 -28 29.667 -51 51 -69c23.333 -20 48 -30 74 -30c35.333 0 56.333 18 63 54v201h-80z" />
    <glyph glyph-name="asciitilde" unicode="~" horiz-adv-x="200" 
d="M-8 744c-4.66699 11.333 -6.99902 34.332 -6.99902 68.999c-0.666992 24.667 0.333008 37 3 37s7.66699 -9 15 -27c3.33301 -13.333 10 -33.666 20 -60.999c16 -33.333 44 -50 84 -50c42 0 71 16.667 87 50c4 14.667 10.667 35 20 61c7.33301 18 12.333 27 15 27
s3.66699 -12.333 3 -37c0 -17.333 -2.33301 -40.333 -7 -69c-20.667 -54.667 -59.334 -82 -116.001 -82c-57.333 0 -96.333 27.333 -117 82zM219.001 537.999h-231v61h231v-61z" />
    <glyph glyph-name="nonbreakingspace" unicode="&#xa0;" horiz-adv-x="400" 
 />
    <glyph glyph-name="exclamdown" unicode="&#xa1;" horiz-adv-x="910" 
d="M612 240c-13.333 -20 -34.002 -39 -62.002 -57c42 -24.667 62.667 -55.667 62 -93c0 -25.333 -7.66699 -46.333 -23 -63c-18.667 -20.667 -44.667 -31 -78 -31c-101.333 0 -159.333 71.333 -174 214c-3.33301 35.333 -3.66602 69 -0.999023 101h-34v32h33
c10.667 54 26.667 94.333 48 121c26 31.333 63.333 49.333 112 54c15.333 1.33301 45 1 89 -1l187 252c63.333 78.667 139 118 227 118c82.667 0 141.667 -37 177 -111c14.667 -32 22.334 -64.333 23.001 -97c0 -30 -3.33301 -45 -10 -45c-3.33301 0 -9 13 -17 39
c-3.33301 15.333 -9.66602 37.333 -18.999 66c-34 77.333 -85.667 116 -155 116c-37.333 0 -75.5 -11.667 -114.5 -35s-72.167 -53 -99.5 -89l-182 -246c-20.667 0 -56.667 -0.333008 -108 -1c-64.667 -1.33301 -106 -48.333 -124 -141h311v-32h-36
c-6.66699 -24 -17.334 -47.667 -32.001 -71zM242.998 263c0 -16 -1.16504 -39.6641 -3.49805 -70.9971s-3.5 -54.666 -3.5 -69.999c0 -62.667 11.667 -108.334 35 -137.001c0 -2.66699 -0.666992 -4.33398 -2 -5.00098c-2 0 -4.5 0.666992 -7.5 2s-6.16699 3.33301 -9.5 6
c-26.667 20.667 -43.334 60 -50.001 118c-2.66699 23.333 -0.333984 63.666 6.99902 120.999c-38.667 -22.667 -71.667 -34 -99 -34c-23.333 0 -45.5 9.16699 -66.5 27.5s-31.5 39.166 -31.5 62.499c0 26.667 8.66699 48.667 26 66c21.333 21.333 52.666 31.333 93.999 30
c40 -2 68.333 -12.333 85 -31s25.334 -47 26.001 -85zM368 311.003v-55c0.666992 -12.667 1.66699 -33 3 -61c80.667 -1.33301 128.667 0.666992 144 6c25.333 10 44.333 22.333 57 37c16.667 20 30.667 44.333 42 73h-246zM378 164.003
c20.667 -92 64.666 -137.332 131.999 -135.999c20 0.666992 36.667 6 50 16c16.667 11.333 24.334 27.666 23.001 48.999c-1.33301 18 -11.5 35.5 -30.5 52.5s-37.833 24.167 -56.5 21.5c-16 -2 -55.333 -3 -118 -3zM40.999 286.004
c0.666992 -20 9.66602 -35.667 26.999 -47c15.333 -10.667 32.666 -16 51.999 -16c16.667 0 34.334 4.66699 53.001 14c25.333 12.667 37.333 29 36 49c-1.33301 40.667 -28.666 61 -81.999 61c-25.333 0 -46 -5.5 -62 -16.5s-24 -25.833 -24 -44.5z" />
    <glyph glyph-name="cent" unicode="&#xa2;" horiz-adv-x="528" 
d="M420 552l-0.000976562 -48.999c-38 23.333 -87.333 36.666 -148 39.999v-404c58.667 3.33301 107.334 16.666 146.001 39.999v-51c-34.667 -24 -83.334 -37.333 -146.001 -40v-84h-35v85c-75.333 6.66699 -134.666 35.667 -177.999 87c-39.333 46.667 -59 102 -59 166
s19.667 119.667 59 167c44 52 103.333 81.667 178 89v79h35v-79c62.667 -3.33301 112 -18.666 148 -45.999zM236.999 139.001v404c-56 -8.66699 -100.333 -33 -133 -73c-29.333 -36.667 -44 -79.667 -44 -129s14.667 -92.333 44 -129c32.667 -40 77 -64.333 133 -73z" />
    <glyph glyph-name="sterling" unicode="&#xa3;" horiz-adv-x="590" 
d="M220 426l24 -93c6 -28.667 7.33301 -44 4 -46h124v-25h-121c-2 -18.667 -6 -47 -12 -85c-7.33301 -34.667 -27.333 -67.667 -60 -99c52 -23.333 98.667 -33.333 140 -30c56.667 4 106 19 148 45l26 -40c-47.333 -30 -105.666 -47.667 -174.999 -53
c-28 -2 -63.667 3 -107 15c-46 12 -79.333 18 -100 18c-28 0 -55.667 -11.333 -83 -34l-28 48l51 29c6 3.33301 18.333 7 37 11c16.667 4 28 8 34 12c33.333 26.667 54 55 62 85c3.33301 14.667 6.33301 40 9 76h-122v27h125c0.666992 9.33301 0 18.5 -2 27.5
s-4.33301 17.833 -7 26.5l-19 75c-3.33301 16 -5 31.333 -5 46c0 42.667 14.667 76.167 44 100.5s69 35.833 119 34.5c57.333 -1.33301 105 -24 143 -68c7.33301 -9.33301 20.666 -33.666 39.999 -72.999h-55c-8.66699 20.667 -18 36.667 -28 48c-24 28.667 -55 43 -93 43
c-78.667 0 -118 -28.667 -118 -86c0 -10.667 1.66699 -22.334 5 -35.001z" />
    <glyph glyph-name="currency" unicode="&#xa4;" horiz-adv-x="217" 
d="M-24 745c-8.66699 16.667 -12.999 39.334 -12.999 68.001c-0.666992 24.667 1 37 5 37c2.66699 0 6.66699 -9 12 -27c8.66699 -27.333 17.334 -47.666 26.001 -60.999c22 -33.333 54.333 -50 97 -50c44 0 77 16.667 99 50c8.66699 13.333 17.334 33.666 26.001 60.999
c5.33301 18 9.33301 27 12 27c4 0 5.66699 -12.333 5 -37c0 -28.667 -4.33301 -51.334 -13 -68.001c-10.667 -22 -27.334 -41 -50.001 -57c-24.667 -17.333 -50.334 -26 -77.001 -26c-28 0 -54.333 8.66699 -79 26c-22.667 15.333 -39.334 34.333 -50.001 57zM239.001 538
h-251v61h251v-61z" />
    <glyph glyph-name="yen" unicode="&#xa5;" horiz-adv-x="556" 
d="M344 375h170v-38h-201v-108h201v-38h-201v-191h-70v191h-200v38h200v108h-200v38h169l-200 313h78l188 -314l188 314h78z" />
    <glyph glyph-name="section" unicode="&#xa7;" 
d="M-114 -108c0 -39.333 -9.99902 -68.335 -29.999 -87.002c-26 -24 -56.667 -36 -92 -36c-40.667 0 -78.667 17.667 -114 53c-26 26 -39 52 -39 78c0 24.667 9.33301 42.334 28 53.001c9.33301 5.33301 22.666 8 39.999 8c24 0 36.333 -3.33301 37 -10
c0.666992 -7.33301 -13 -13.666 -41 -18.999c-14.667 -2.66699 -22 -10.667 -22 -24c0 -20.667 10 -39.667 30 -57c28 -24 58 -35.667 90 -35c39.333 1.33301 59 26.333 59 75v89h54v-88zM-226.999 -244.002c54.667 0 111.332 11.334 169.999 34.001v-37
c-17.333 -6 -34.666 -11.333 -51.999 -16c-42 -11.333 -81.333 -17.333 -118 -18c-50.667 -0.666992 -108 10.666 -172 33.999v37c62 -22.667 119.333 -34 172 -34zM-227.001 -311.001c54.667 0 111.332 10.666 169.999 31.999v-37c-17.333 -6 -34.666 -11 -51.999 -15
c-42 -10 -81.333 -15.667 -118 -17c-50.667 -1.33301 -108 9.33398 -172 32.001v37c62 -21.333 119.333 -32 172 -32z" />
    <glyph glyph-name="dieresis" unicode="&#xa8;" 
d="M-227 -225c54.667 0 111.332 11.334 169.999 34.001v-40c-17.333 -6 -34.666 -11.333 -51.999 -16c-42 -11.333 -81.333 -17.333 -118 -18c-50.667 -0.666992 -108 10.666 -172 33.999v40c62 -22.667 119.333 -34 172 -34zM-227.002 -307.999
c54.667 0 111.332 10.666 169.999 31.999v-40c-17.333 -6 -34.666 -11 -51.999 -15c-42 -10 -81.333 -15.667 -118 -17c-50.667 -1.33301 -108 9.33398 -172 32.001v40c62 -21.333 119.333 -32 172 -32z" />
    <glyph glyph-name="ordfeminine" unicode="&#xaa;" horiz-adv-x="604" 
 />
    <glyph glyph-name="guillemotleft" unicode="&#xab;" horiz-adv-x="775" 
d="M517 383l-41 -165h140v-53h-156l-36 -142h-52l36 142h-166l-36 -142h-53l36 142h-159v53h174l41 165h-140v53h153l37 144h54l-39 -144h168l37 144h53l-36 -144h158v-53h-173zM297 383l-41 -165h168l41 165h-168z" />
    <glyph glyph-name="registered" unicode="&#xae;" 
d="M-272 -103c30.667 -38 45.999 -63.668 45.999 -77.001c0 -4.66699 -2 -8 -6 -10c-6.66699 -2.66699 -18.334 4 -35.001 20l-40 41c-26 25.333 -48.667 40.333 -68 45c-22 -28.667 -44.667 -43 -68 -43c-15.333 0 -29.333 6.66699 -42 20c-10 10 -15 22.667 -15 38
s4.83301 29.5 14.5 42.5s26.834 19.5 51.501 19.5c20.667 0 41 -4 61 -12c4 6 9 17.667 15 35h51c-6 -17.333 -15 -36.666 -27 -57.999c18.667 -12 39.334 -32.333 62.001 -61z" />
    <glyph glyph-name="degree" unicode="&#xb0;" horiz-adv-x="350" 
d="M173 748c42 0 78 -15.167 108 -45.5s45.333 -66.166 46 -107.499c0 -41.333 -15.167 -77 -45.5 -107s-66.5 -45 -108.5 -45c-42 -0.666992 -78.167 14.166 -108.5 44.499s-45.5 66.5 -45.5 108.5c0 41.333 15.333 77 46 107s66.667 45 108 45zM173 703
c-29.333 0.666992 -54.499 -9.66699 -75.499 -31s-31.833 -47 -32.5 -77c-0.666992 -28.667 9.66602 -54 30.999 -76s46.666 -33.333 75.999 -34c29.333 0 54.833 10.833 76.5 32.5s32.834 47.167 33.501 76.5c0.666992 30 -9.83301 55.667 -31.5 77s-47.5 32 -77.5 32z
M323.001 390.999v-53h-299v53h299z" />
    <glyph glyph-name="plusminus" unicode="&#xb1;" horiz-adv-x="612" 
d="M319 337v-185h-59v185h-186v59h186v185h59v-185h186v-59h-186zM549 10h-519v51h519v-51z" />
    <glyph glyph-name="mu" unicode="&#xb5;" 
d="M-408 743c0.666992 -9.33301 5.66699 -23.833 15 -43.5s14 -31.5 14 -35.5c0 -1.33301 -0.333008 -2.33301 -1 -3c-4 -4.66699 -14.167 2.5 -30.5 21.5s-26.166 35.833 -29.499 50.5c-2 9.33301 -3 18 -3 26c0 24.667 9 48.334 27 71.001
c21.333 26.667 55.666 40 102.999 40s81.666 -13.333 102.999 -40c18 -22.667 27 -46.334 27 -71.001c0 -8 -1 -16.667 -3 -26c-3.33301 -14.667 -13.166 -31.5 -29.499 -50.5s-26.5 -26.167 -30.5 -21.5c-0.666992 0.666992 -1 1.66699 -1 3c0 4 4.66699 15.833 14 35.5
s14.333 34.167 15 43.5c2 21.333 -6.16699 40.5 -24.5 57.5s-41.833 25.5 -70.5 25.5s-52.167 -8.5 -70.5 -25.5s-26.5 -36.167 -24.5 -57.5z" />
    <glyph glyph-name="mu" unicode="&#x3bc;" 
d="M-408 743c0.666992 -9.33301 5.66699 -23.833 15 -43.5s14 -31.5 14 -35.5c0 -1.33301 -0.333008 -2.33301 -1 -3c-4 -4.66699 -14.167 2.5 -30.5 21.5s-26.166 35.833 -29.499 50.5c-2 9.33301 -3 18 -3 26c0 24.667 9 48.334 27 71.001
c21.333 26.667 55.666 40 102.999 40s81.666 -13.333 102.999 -40c18 -22.667 27 -46.334 27 -71.001c0 -8 -1 -16.667 -3 -26c-3.33301 -14.667 -13.166 -31.5 -29.499 -50.5s-26.5 -26.167 -30.5 -21.5c-0.666992 0.666992 -1 1.66699 -1 3c0 4 4.66699 15.833 14 35.5
s14.333 34.167 15 43.5c2 21.333 -6.16699 40.5 -24.5 57.5s-41.833 25.5 -70.5 25.5s-52.167 -8.5 -70.5 -25.5s-26.5 -36.167 -24.5 -57.5z" />
    <glyph glyph-name="paragraph" unicode="&#xb6;" horiz-adv-x="362" 
d="M298 496h-33v-662h-34v662h-63v-662h-34v352c-38 6.66699 -69 24.667 -93 54c-27.333 32.667 -41 74.667 -41 126c0 35.333 11.667 69 35 101c30.667 42 73.667 63 129 63h134v-34z" />
    <glyph glyph-name="periodcentered" unicode="&#xb7;" horiz-adv-x="350" 
d="M165 356c17.333 0 32.501 -6.50098 45.501 -19.501s19.5 -28.5 19.5 -46.5c0 -19.333 -7.66699 -35.333 -23 -48c-13.333 -10 -27.333 -15 -42 -15s-28.334 5 -41.001 15c-15.333 12 -23 28 -23 48c0 18.667 6.33301 34.334 19 47.001s27.667 19 45 19z" />
    <glyph glyph-name="periodcentered" unicode="&#x2219;" horiz-adv-x="350" 
d="M165 356c17.333 0 32.501 -6.50098 45.501 -19.501s19.5 -28.5 19.5 -46.5c0 -19.333 -7.66699 -35.333 -23 -48c-13.333 -10 -27.333 -15 -42 -15s-28.334 5 -41.001 15c-15.333 12 -23 28 -23 48c0 18.667 6.33301 34.334 19 47.001s27.667 19 45 19z" />
    <glyph glyph-name="guillemotright" unicode="&#xbb;" horiz-adv-x="493" 
d="M206 546l0.000976562 -216c30.667 -15.333 51.334 -26 62.001 -32c23.333 -12.667 42.666 -25.334 57.999 -38.001c38.667 -30.667 58.667 -64 60 -100c1.33301 -47.333 -14.167 -85 -46.5 -113s-76.833 -43.667 -133.5 -47v-67h-24v67c-81.333 5.33301 -138 42 -170 110
l47 17c20.667 -46.667 61.667 -73.667 123 -81v240l-68 31c-36 18 -62.333 36.667 -79 56c-20.667 24 -31.334 54.333 -32.001 91c-0.666992 37.333 17 68 53 92c33.333 22.667 75.333 35.667 126 39v61h24v-61c52.667 -9.33301 99.667 -39.666 141 -90.999l-38 -30
c-30 37.333 -64.333 61.333 -103 72zM59.001 459c0 -35.333 23 -65.333 69 -90c4.66699 -2 22.667 -11 54 -27v204c-82 -7.33301 -123 -36.333 -123 -87zM206.001 45c44.667 2.66699 76.667 11.999 96 27.999c22 16.667 33 44.334 33 83.001c0 24.667 -12.667 47 -38 67
c-16.667 13.333 -47 30.333 -91 51v-229z" />
    <glyph glyph-name="Aring" unicode="&#xc5;" horiz-adv-x="1380" 
d="M837 430c-6.66699 -31.333 -19.667 -61.833 -39 -91.5s-51.333 -57.167 -96 -82.5c20.667 -6 39.334 -18 56.001 -36c24 -25.333 36 -56.333 36 -93c0 -28.667 -10.333 -55.667 -31 -81c-26 -31.333 -61 -47 -105 -47c-136 0 -217 99.333 -243 298
c-5.33301 40.667 -6.33301 85 -3 133h-40v46h40c26 139.333 93.333 209 202 209c11.333 0 23 -0.666992 35 -2c36 -5.33301 75.667 -22 119 -50c19.333 -14.667 47 -33 83 -55c6.66699 -4 14 -6 22 -6c21.333 0 47.666 15 78.999 45c20.667 22.667 56.667 59 108 109
c121.333 106.667 219.333 160.334 294 161.001c50.667 0 86.667 -2 108 -6c35.333 -6.66699 68.333 -22 99 -46c34.667 -28 58 -63.667 70 -107c6 -21.333 9 -41 9 -59c0 -25.333 -5.33301 -38 -16 -38c-5.33301 0 -9.5 4.66699 -12.5 14s-5.83301 19 -8.5 29
c-8.66699 31.333 -19.334 57.666 -32.001 78.999c-35.333 61.333 -94 92 -176 92c-54 0 -109 -15.667 -165 -47c-40 -22.667 -86.333 -57.667 -139 -105c-29.333 -30.667 -71 -71.667 -125 -123c-34 -29.333 -63.333 -44 -88 -44c-9.33301 0 -19 1.66699 -29 5
c-24.667 10 -52.334 27 -83.001 51c-41.333 32 -84.666 51.333 -129.999 58c-7.33301 0.666992 -14.666 1 -21.999 1c-80 0 -132 -55 -156 -165h438v-46h-59zM325 345c0 -21.333 -1.49902 -53.332 -4.49902 -95.999s-4.5 -74.667 -4.5 -96c0 -84 16.667 -146 50 -186
c1.33301 -6.66699 -0.333984 -10 -5.00098 -10c-7.33301 0 -15.666 4 -24.999 12c-22.667 18 -40.334 47.667 -53.001 89c-10 34.667 -15 70 -15 106c0 33.333 2.66699 75.333 8 126c-46.667 -26 -92 -39 -136 -39c-33.333 0 -63.166 12.167 -89.499 36.5
s-39.833 53.166 -40.5 86.499c-0.666992 36.667 11 66.667 35 90c29.333 28.667 73 43 131 43c51.333 0 89.666 -16 114.999 -48c22.667 -28 34 -66 34 -114zM794.001 430.001h-335.999c-0.666992 -29.333 -0.333984 -54.333 0.999023 -75c0 -17.333 2.33301 -44 7 -80
c28.667 -2.66699 57 -4 85 -4c54 0 91 5 111 15l35.5 16.5c12.333 5.66699 21.833 12.167 28.5 19.5c31.333 32.667 54 68.667 68 108zM477.002 228.001c9.33301 -37.333 21.667 -69 37 -95c36 -62.667 83 -91.667 141 -87c26.667 2 48.667 12.167 66 30.5
s25.666 40.166 24.999 65.499c-0.666992 19.333 -12.167 39.333 -34.5 60s-43.166 31.334 -62.499 32.001c-32.667 0.666992 -90 -1.33301 -172 -6zM55.0029 377.001c0 -25.333 11.668 -46 35.001 -62c20 -14 42.667 -21 68 -21c22.667 0 46.667 6.33301 72 19
c33.333 16 49.666 37.667 48.999 65c-0.666992 54.667 -38 82 -112 82c-34 0 -61.333 -7.5 -82 -22.5s-30.667 -35.167 -30 -60.5z" />
    <glyph glyph-name="AE" unicode="&#xc6;" horiz-adv-x="1535" 
d="M1007 761l77.999 -57.998c36.667 -26.667 62.334 -39 77.001 -37c25.333 2 71 30.333 137 85c20 17.333 62.333 45.666 127 84.999c54.667 34 116.667 51 186 51c106.667 0 189.334 -33.667 248.001 -101c26 -30 45 -61.667 57 -95c4.66699 -12 7 -23.333 7 -34
c0 -18 -7 -27 -21 -27c-8.66699 0 -18 11.333 -28 34c-11.333 26 -28.333 52.333 -51 79c-48.667 57.333 -114.667 86 -198 86c-97.333 0 -198 -44.667 -302 -134c-40 -34.667 -68.333 -57.667 -85 -69c-28.667 -18.667 -54.334 -28 -77.001 -28c-24 0 -55 13.333 -93 40
l-72 56c-68 47.333 -128.333 78.666 -181 93.999c-23.333 7.33301 -45.666 11 -66.999 11c-60 0 -110.667 -25 -152 -75c-32.667 -38 -52.667 -79.667 -60 -125h500v-61h-38c-18 -55.333 -37 -97.666 -57 -126.999c-24.667 -36 -59.667 -66.333 -105 -91
c80 -43.333 119.667 -98 119 -164c0 -42 -13 -77.333 -39 -106c-30.667 -33.333 -75 -50 -133 -50c-94.667 0 -168.334 36.667 -221.001 110c-44.667 62 -71.667 145.667 -81 251c-4 44.667 -5.66699 103.667 -5 177h-44v61h44c4 70.667 31.833 131.667 83.5 183
s114.5 77 188.5 77c27.333 0 55.333 -4 84 -12c49.333 -14.667 107.333 -43.334 174 -86.001zM378.999 323.002c-7.33301 -68 -10.999 -111.332 -10.999 -129.999c0 -62.667 10 -118.334 30 -167.001l36 -66c1.33301 -2.66699 2 -4.66699 2 -6c0 -4 -2.66699 -6 -8 -6
c-12 0 -23.667 4.33301 -35 13c-48 35.333 -77.667 103.333 -89 204c-1.33301 10.667 -2 23 -2 37c0 39.333 4.66699 92.333 14 159c-40 -27.333 -81 -42.333 -123 -45c-49.333 -4 -92 8.5 -128 37.5s-54 67.5 -54 115.5c0 114.667 65 170 195 166
c70.667 -2 120 -21 148 -57c24 -31.333 34 -79.333 30 -144c-0.666992 -28 -2.33398 -65 -5.00098 -111zM182 374.003c27.333 0 54.668 7 82.001 21c38 18.667 57 45 57 79c1.33301 67.333 -40.334 101 -125.001 101s-126 -34 -124 -102c0.666992 -32 12 -57 34 -75
c20 -16 45.333 -24 76 -24zM939.002 538.003h-401.999c0 -80 2.66699 -145.333 8 -196h108c65.333 1.33301 106.666 5.33301 123.999 12c42.667 14.667 74.667 34.667 96 60c24 28.667 46 70 66 124zM750.003 287.003c-24 -3.33301 -89.333 -5 -196 -5
c11.333 -43.333 26.333 -80.666 45 -111.999c45.333 -74.667 105.666 -111.334 180.999 -110.001c34 1.33301 61.667 10 83 26c24 18 34.667 43.667 32 77c-1.33301 28 -18.666 56.667 -51.999 86s-64.333 42 -93 38z" />
    <glyph glyph-name="Ccedilla" unicode="&#xc7;" horiz-adv-x="1056" 
d="M487 424c-1.33301 73.333 -18 163.332 -50 269.999c-56 -15.333 -101.333 -44.666 -136 -87.999c-36.667 -44.667 -55 -96 -55 -154c0 -59.333 18.5 -111.5 55.5 -156.5s83.833 -75.167 140.5 -90.5c31.333 86.667 46.333 159.667 45 219zM651 108.999
c-19.333 -8 -33.999 -15.002 -43.999 -21.002c-14 -8.66699 -32.333 -24 -55 -46v-99c211.333 114.667 335.666 226.667 372.999 336c23.333 67.333 35 121 35 161c0 36 -9 71.333 -27 106c-14 27.333 -40.667 65.333 -80 114c52 -20 93.333 -54 124 -102
c31.333 -50.667 47 -110 47 -178c0 -32.667 -3.66699 -66.334 -11 -101.001c-14 -62 -37.333 -118 -70 -168l-107 -142c-30.667 -40.667 -48 -78.667 -52 -114l-114 105c-10.667 -3.33301 -21.334 -7 -32.001 -11c-25.333 -11.333 -48.666 -25.333 -69.999 -42
c32 -12.667 62 -28 90 -46c39.333 -24.667 59 -50.667 59 -78c0 -9.33301 -3.66699 -17.5 -11 -24.5s-15.666 -10.5 -24.999 -10.5c-20.667 0 -31 10.667 -31 32c0 9.33301 4 19.666 12 30.999c-10 8.66699 -25.667 20.667 -47 36c-6.66699 4 -28.334 13 -65.001 27v-116
c18 -16.667 27 -31 27 -43c0 -14 -5.16699 -26 -15.5 -36s-22.5 -15 -36.5 -15s-25.333 5 -34 15s-13 22 -13 36c0 12 9 26.333 27 43v116c-17.333 -6 -39 -15 -65 -27l-47 -36c8 -11.333 12 -21.666 12 -30.999c0 -21.333 -10.333 -32 -31 -32
c-9.33301 0 -17.666 3.5 -24.999 10.5s-11 15.167 -11 24.5c0 27.333 19.667 53.333 59 78c28 18 58 33.333 90 46c-31.333 25.333 -65.333 43 -102 53l-114 -105c-4 35.333 -21.333 73.333 -52 114l-107 142c-32.667 50 -56 106 -70 168
c-7.33301 34.667 -11 68.334 -11 101.001c0 68 15.667 127.333 47 178c30.667 48 72 82 124 102c-39.333 -48.667 -66 -86.667 -80 -114c-18 -34.667 -27 -70 -27 -106c0 -40 11.667 -93.667 35 -161c37.333 -109.333 161.666 -221.333 372.999 -336v99
c-10.667 10.667 -29 26 -55 46c-10 6 -24.667 13 -44 21c6.66699 14.667 14 33.334 22 56.001c-64.667 18 -117.667 53 -159 105c-43.333 53.333 -65 114 -65 182c0 66.667 21.333 126.334 64 179.001c40.667 51.333 93 86.333 157 105c-5.33301 15.333 -10.333 28 -15 38
c25.333 18 51 39 77 63c8 7.33301 16 18 24 32c12 20 19 31.333 21 34c6.66699 -15.333 20 -37.333 40 -66c26 -24 51.667 -45 77 -63c-4.66699 -10 -9.66699 -22.667 -15 -38c64.667 -18.667 118.167 -54 160.5 -106s63.5 -111.333 63.5 -178
c0 -68 -21.833 -128.333 -65.5 -181s-98.167 -88 -163.5 -106c3.33301 -10 11.333 -28.667 24 -56zM568.001 423.997c-1.33301 -61.333 13.334 -134.331 44.001 -218.998c57.333 15.333 105.166 45.666 143.499 90.999s57.5 97.333 57.5 156
c0 57.333 -19 108.666 -57 153.999c-36 42.667 -82 72 -138 88c-32 -106.667 -48.667 -196.667 -50 -270z" />
    <glyph glyph-name="Icircumflex" unicode="&#xce;" horiz-adv-x="547" 
d="M434 538l-0.000976562 -538h-61v266h-131c0 -86 -2.66699 -143 -8 -171c-7.33301 -36 -35.666 -54 -84.999 -54c-18 0 -35 3.33301 -51 10c-4 2 -28.333 17.333 -73 46c1.33301 9.33301 5 29.333 11 60c1.33301 -1.33301 14.666 -11 39.999 -29
c28.667 -21.333 51.334 -32 68.001 -32c25.333 0 38 25.333 38 76v154h191v212h-383v61h572v-61h-128z" />
    <glyph glyph-name="Idieresis" unicode="&#xcf;" horiz-adv-x="13" 
d="M-139 -343l-0.000976562 157.997h-79v-54c0 -43.333 -18.333 -65 -55 -65c-19.333 0 -43.333 6.33301 -72 19c-14.667 6.66699 -30 16.667 -46 30c-18.667 15.333 -28 27.333 -28 36c-2 6 2.33301 23.333 13 52c4 10.667 9.33301 27 16 49c6 30.667 6 57.334 0 80.001h44
c4 -21.333 4.33301 -47.666 1 -78.999c-2 -17.333 -6.33301 -33.666 -13 -48.999c-3.33301 -12 -8.66602 -28 -15.999 -48c13.333 -13.333 26.666 -23.333 39.999 -30c24.667 -14 42.334 -21 53.001 -21c16.667 0 25 12 25 36v88h117v112h44v-314h-44z" />
    <glyph glyph-name="Ograve" unicode="&#xd2;" horiz-adv-x="350" 
d="M118 -10h-60v609h60v-609zM283 -10h-60v609h60v-609z" />
    <glyph glyph-name="Oacute" unicode="&#xd3;" horiz-adv-x="1237" 
d="M598 855c22.667 -17.333 50.002 -48.001 82.002 -92.001c28.667 -40 46 -68.667 52 -86c18 14.667 47.333 29 88 43c44 14.667 74 27 90 37c10.667 -16 16 -37 16 -63c0 -12 -1.33301 -29.5 -4 -52.5s-4 -39.5 -4 -49.5c0 -9.33301 0.666992 -17.666 2 -24.999
c12 4 24.667 6 38 6c14 0 36 -3.66699 66 -11s54.333 -11 73 -11c10 0 20 0.666992 30 2c2 -20.667 3 -36.334 3 -47.001c0 -52 -25 -100.667 -75 -146l-53 -49c30 -5.33301 60.667 -25.333 92 -60l74 -85c-20.667 -16.667 -52.667 -27.667 -96 -33l-109 -10
c14 -22 24.667 -56.333 32 -103c9.33301 -57.333 17 -94.666 23 -111.999c-40.667 -1.33301 -88.667 1.33398 -144 8.00098c-62.667 8 -103.334 18 -122.001 30c-9.33301 -4 -16.333 -15.667 -21 -35c-6 -23.333 -11.333 -38 -16 -44l-87 -110
c-12.667 3.33301 -26 13.666 -40 30.999l-33 42c-6.66699 13.333 -13.834 35 -21.501 65s-13.834 50 -18.501 60c-46 -30.667 -95 -49.667 -147 -57c-14.667 -2.66699 -56.334 -4.66699 -125.001 -6c-2.66699 11.333 -4 23.333 -4 36c0 22.667 5.66699 50 17 82
c8.66699 26 17.667 51.667 27 77c-7.33301 -0.666992 -14.666 -1 -21.999 -1c-26 0 -56.667 6.66699 -92 20c-46.667 18 -76 28.333 -88 31c10.667 36 30.334 69.667 59.001 101c30.667 34 63.334 54.667 98.001 62c-76 52.667 -130.333 118.667 -163 198
c20.667 30.667 52 50.334 94 59.001c22.667 4.66699 61 6.66699 115 6c-10.667 27.333 -16 58.666 -16 93.999c0 20 1.66699 47.667 5 83c6.66699 0.666992 13 1 19 1c27.333 0 56.666 -7.33301 87.999 -22c9.33301 -4 35 -18 77 -42c28.667 90.667 75.667 150 141 178z
M721.002 510.999c6 21.333 9 42.666 9 63.999c0 79.333 -45 164.666 -135 255.999c-85.333 -50 -128 -134 -128 -252c0 -21.333 1.66699 -42.666 5 -63.999c4 -12 10.667 -24.667 20 -38c10 -15.333 19 -24 27 -26c0 17.333 7.66699 31.666 23 42.999l40 28
c-1.33301 6.66699 -2 14.334 -2 23.001c0 17.333 2.66699 41.333 8 72l10 68c-9.33301 24 -14 39 -14 45c0 6.66699 2 12.334 6 17.001c16.667 -22 25 -49.667 25 -83c0 -12.667 -1.5 -32.167 -4.5 -58.5s-4.5 -46.5 -4.5 -60.5c0 -12 0.666992 -23.333 2 -34
c26 -6.66699 52 -30 78 -70zM1106 531.999c-6 -0.666992 -12.001 -0.99707 -18.001 -0.99707c-16 0 -38.667 3.66699 -68 11s-52.333 11 -69 11c-121.333 3.33301 -205 -36.334 -251 -119.001c25.333 -2.66699 50.333 -16.334 75 -41.001c32 -0.666992 66.667 11.333 104 36
l91 66c28.667 7.33301 46.334 11 53.001 11c10.667 0 19 -2.66699 25 -8c-25.333 -5.33301 -54.333 -20.333 -87 -45c-47.333 -36 -74 -56 -80 -60c-32.667 -18.667 -64.667 -26.334 -96 -23.001c0 -18 -15.333 -42 -46 -72c32.667 -17.333 64 -26 94 -26
c25.333 0 52 6.66699 80 20c11.333 5.33301 34 18.333 68 39c86.667 53.333 130 109.666 130 168.999c0 10.667 -1.66699 21.334 -5 32.001zM505.001 430.002c-26 36 -64.667 64.6699 -116 86.0029c-47.333 19.333 -96.666 29 -147.999 29c-64 0 -110.333 -14.333 -139 -43
c12 -52.667 51 -105.334 117 -158.001s128.333 -79 187 -79c25.333 0 47.333 5.66699 66 17l-26 30c-11.333 13.333 -17 25 -17 35c0 3.33301 0.666992 6.33301 2 9c-30 7.33301 -64.333 24.666 -103 51.999c-26.667 18.667 -54.334 30.667 -83.001 36
c-34 6.66699 -56 12.334 -66 17.001c17.333 6.66699 34.666 10 51.999 10c27.333 0 57 -8.33301 89 -25c27.333 -18 66.333 -41 117 -69c3.33301 11.333 14.833 20.666 34.5 27.999s30.834 15.666 33.501 24.999zM658.001 444.005c-3.33301 14 -11.167 25.501 -23.5 34.501
s-26.166 13.5 -41.499 13.5c-6 0 -12 -0.666992 -18 -2c-17.333 -4.66699 -29.333 -17.334 -36 -38.001c-8.66699 -27.333 -15.334 -43.5 -20.001 -48.5s-17 -9.5 -37 -13.5c-16.667 -3.33301 -27.334 -11.333 -32.001 -24c-2 -5.33301 -3 -10.333 -3 -15
c0 -13.333 9 -27.333 27 -42s27.667 -26.334 29 -35.001c0.666992 -8 -1.5 -17.5 -6.5 -28.5s-6.83301 -19.5 -5.5 -25.5c6 -28.667 27.667 -43 65 -43c6.66699 0 13.334 0.666992 20.001 2s15.167 7 25.5 17s18.833 15 25.5 15c8 0 16.667 -5.33301 26 -16
c7.33301 -8.66699 18 -13 32 -13c26.667 0 45 11 55 33c5.33301 11.333 8 22.333 8 33c0 12.667 -4 21.334 -12 26.001c-16 9.33301 -24 17.666 -24 24.999c0 5.33301 8.33301 14 25 26s25 24 25 36c0 3.33301 -0.333008 6.33301 -1 9
c-5.33301 23.333 -22.833 37.333 -52.5 42s-46.5 15.334 -50.5 32.001zM918 162.006c-43.333 62.667 -95.002 96.666 -155.002 101.999l3 -32c-0.666992 -2 -4.66699 -8.66699 -12 -20c-4.66699 -8 -7 -15 -7 -21c0 -18.667 24 -48.667 72 -90
c55.333 -46.667 90 -82 104 -106c-72 41.333 -120.667 79 -146 113c-30 42 -50.667 63 -62 63c-2 0 -6.33301 -0.5 -13 -1.5s-13 -1.5 -19 -1.5c-12.667 0 -26.667 1.66699 -42 5c6.66699 -68.667 24.334 -120.667 53.001 -156c23.333 -29.333 52.333 -51 87 -65
c26 -10 60 -17 102 -21l110 -8c-4 14.667 -11.667 57.334 -23 128.001c-5.33301 30.667 -22.666 67.667 -51.999 111zM479.998 262.005c-30 -3.33301 -61.668 -15.3281 -95.001 -35.9951s-53.333 -41.667 -60 -63c-0.666992 -3.33301 -16.667 -47 -48 -131
c-14.667 -40.667 -21 -79.334 -19 -116.001c18.667 -4 38 -6 58 -6c72 0 135.667 23.667 191 71l49 39c21.333 18 37.333 38.667 48 62c14 30 20.667 67.333 20 112c-14 -21.333 -39.667 -32 -77 -32c-15.333 0 -29.666 1.66699 -42.999 5
c-11.333 -13.333 -21.666 -31.333 -30.999 -54c-11.333 -26.667 -19.666 -44.334 -24.999 -53.001c-20.667 -31.333 -33 -49.333 -37 -54c-12.667 -13.333 -30.334 -23 -53.001 -29c4.66699 11.333 17.167 26.666 37.5 45.999s34.166 39.666 41.499 60.999
c4 13.333 11.667 30.666 23 51.999c14 24.667 22.667 41 26 49c-7.33301 15.333 -9.33301 41 -6 77zM576.997 423.01c14.667 -14.667 25.666 -21.9961 32.999 -21.9961c5.33301 0 18.666 5 39.999 15c-0.666992 -2 5 -9.33301 17 -22s18 -24.334 18 -35.001
c0 -12 -8.66699 -23.667 -26 -35c-1.33301 0 -2.66602 8.66699 -3.99902 26s-8 26.333 -20 27c-24 0.666992 -43.167 -2.83301 -57.5 -10.5s-21.5 -19.167 -21.5 -34.5c0 -10.667 3.33301 -20.334 10 -29.001c11.333 -12 24 -18 38 -18c9.33301 0 17.333 3 24 9
c20.667 1.33301 34.834 10.666 42.501 27.999s15.834 26 24.501 26c3.33301 0 7.33301 -0.666992 12 -2l-12 -30c-6.66699 -16 -10 -28.667 -10 -38c0 -8 2.33301 -14 7 -18l-33 -2c-14.667 -2.66699 -22.334 -8.33398 -23.001 -17.001c-6.66699 5.33301 -12.667 8 -18 8
c-11.333 0 -27.333 -7.66699 -48 -23c1.33301 32.667 -2.66699 49 -12 49c-2.66699 0 -8.66699 -3.16699 -18 -9.5s-16 -8.83301 -20 -7.5c4.66699 16 7 28 7 36c0 8.66699 -3 15.667 -9 21c-0.666992 0 -7.66699 5 -21 15c19.333 11.333 29.833 18.333 31.5 21
s3.5 14.667 5.5 36c8 -2 14 -3 18 -3c7.33301 0 12.333 3.33301 15 10z" />
    <glyph glyph-name="Ocircumflex" unicode="&#xd4;" horiz-adv-x="1231" 
d="M736 790c41.333 14.667 73 21.999 95 21.999s42.333 -5.33301 61 -16c41.333 -23.333 63.333 -66 66 -128c36 -7.33301 61.667 -14.333 77 -21c28 -12 49 -30 63 -54c9.33301 -16.667 14 -36.667 14 -60c0 -29.333 -7.33301 -57.666 -22 -84.999
c56 -46.667 84 -91 84 -133c0 -45.333 -25.667 -85.666 -77 -120.999c14 -43.333 21 -75 21 -95c0 -22.667 -5.33301 -43.334 -16 -62.001c-24.667 -42 -66.334 -64.333 -125.001 -67c-14 -45.333 -22 -70.333 -24 -75c-12.667 -28.667 -30.667 -49.667 -54 -63
c-16.667 -10 -36.667 -15 -60 -15c-28 0 -56 7 -84 21c-23.333 -26.667 -41.666 -45.334 -54.999 -56.001c-24 -18 -50.333 -27 -79 -27c-21.333 0 -43.333 7.16699 -66 21.5s-41 33.5 -55 57.5c-41.333 -14.667 -73.333 -22 -96 -22c-22 0 -42.333 5.33301 -61 16
c-41.333 23.333 -63.333 66.333 -66 129c-36 6.66699 -61.667 13 -77 19c-28 12 -49 30.333 -63 55c-8.66699 15.333 -13 35 -13 59c0 32.667 7 61.334 21 86.001c-26.667 22 -45.334 40 -56.001 54c-18.667 24.667 -28 51 -28 79c0 46 26 86 78 120
c-14.667 44 -22 76 -22 96c0 22 5.5 42.5 16.5 61.5s28.333 34.667 52 47s49.5 18.5 77.5 18.5c6 35.333 12.667 61 20 77c11.333 28 29 49 53 63c16.667 10 36.334 15 59.001 15c28.667 0 57 -7.66699 85 -23c24 28 42.333 47 55 57c24.667 18.667 51 28 79 28
c22 0 44.667 -7.66699 68 -23s41.333 -34 54 -56zM674 438.999c-12.667 39.333 -19.001 87.667 -19.001 145c0 37.333 6 74 18 110c6.66699 17.333 19 45.333 37 84c-20 42.667 -53.667 64 -101 64c-32 0 -56 -14.667 -72 -44c-12.667 -23.333 -19 -52 -19 -86
c0 -55.333 37.333 -142.666 112 -261.999c4.66699 -0.666992 19.334 -4.33398 44.001 -11.001zM603.999 450c-32.667 28.667 -63.001 67.335 -91.001 116.002c-19.333 33.333 -32.333 68.333 -39 105c-4 19.333 -7 49.666 -9 90.999c-19.333 12.667 -40.666 19 -63.999 19
c-21.333 0 -39.666 -4.66699 -54.999 -14c-27.333 -16 -41 -40 -41 -72c0 -26.667 8.66699 -55.334 26 -86.001c27.333 -48 103.666 -105 228.999 -171c10 4 24.667 8 44 12zM534.998 425.001c-44 10 -88.666 27.998 -133.999 53.998
c-33.333 18.667 -62.333 42.334 -87 71.001c-10.667 12.667 -28.334 37.667 -53.001 75c-24.667 2 -47.667 -3.66699 -69 -17c-16.667 -10 -29 -22.167 -37 -36.5s-12 -28.5 -12 -42.5c0 -38.667 25.667 -73 77 -103c47.333 -27.333 142.333 -38.666 285 -33.999
c6.66699 10 16.667 21 30 33zM489.999 367.999c-42 -13.333 -90 -20 -144 -20c-59.333 0 -124 19 -194 57c-22 -10.667 -39 -27 -51 -49c-9.33301 -18 -14 -35.667 -14 -53c0 -32.667 15 -56.667 45 -72c22.667 -12.667 51.334 -19 86.001 -19c54.667 0 142 37.333 262 112
c1.33301 13.333 4.66602 28 9.99902 44zM479.999 296.999c-30 -32.667 -68.6689 -62.668 -116.002 -90.001c-33.333 -19.333 -68.333 -32.333 -105 -39c-19.333 -3.33301 -49.666 -6 -90.999 -8c-13.333 -19.333 -20 -41 -20 -65c0 -21.333 4.66699 -39.666 14 -54.999
c16 -26.667 40.333 -40 73 -40c26.667 0 55.334 8.33301 86.001 25c47.333 27.333 104.333 104 171 230c-4 7.33301 -8 21.333 -12 42zM504.997 229.998c-9.33301 -44 -27.332 -89.001 -53.999 -135.001c-19.333 -34 -43.333 -63 -72 -87
c-14.667 -12.667 -39.334 -30 -74.001 -52c-2 -25.333 3.66699 -48.666 17 -69.999c10 -16.667 22 -29 36 -37s28 -12 42 -12c38.667 0 73.334 26 104.001 78c27.333 46.667 38.666 141.334 33.999 284.001c-10.667 7.33301 -21.667 17.666 -33 30.999zM561.998 184.997
c14.667 -48.667 20.668 -97.001 18.001 -145.001c1.33301 -38 -4.33398 -74.667 -17.001 -110c-4 -10 -16.667 -38 -38 -84c20 -42.667 53.667 -64 101 -64c32.667 0 57 14.667 73 44c12 22.667 18 51.334 18 86.001c0 54.667 -37.333 142 -112 262
c-12.667 1.33301 -27 5 -43 11zM630.999 173.996c33.333 -28.667 63.6689 -67.335 91.002 -116.002c19.333 -33.333 32.666 -68.333 39.999 -105c3.33301 -19.333 6 -49.666 8 -90.999c19.333 -12.667 40.666 -19 63.999 -19c21.333 0 40 4.66699 56 14
c26.667 16 40 40 40 72c0 26.667 -8.66699 55.334 -26 86.001c-26.667 48 -103 105 -229 171c-7.33301 -4 -22 -8 -44 -12zM700.002 198.995c44 -10 88.667 -28 134 -54c33.333 -18.667 62.333 -42.667 87 -72c10.667 -12 28.334 -36.667 53.001 -74
c24.667 -2.66699 47.667 3 69 17c16.667 10 29.167 22 37.5 36s12.5 28 12.5 42c0 39.333 -26 74 -78 104c-40 23.333 -111.333 35 -214 35c-22.667 0 -46.334 -0.666992 -71.001 -2c-7.33301 -10 -17.333 -20.667 -30 -32zM745.002 255.995c43.333 12 91.668 18 145.001 18
c56.667 0 121 -18.333 193 -55c22 10.667 39 27 51 49c9.33301 18 14 35.333 14 52c0 32.667 -15 57 -45 73c-22.667 12 -51.334 18 -86.001 18c-54.667 0 -142 -37.333 -262 -112c-0.666992 -12.667 -4 -27 -10 -43zM755.004 325.995
c28.667 32 67.332 62.332 115.999 90.999c32.667 18.667 67.334 31.334 104.001 38.001c16 2.66699 47 5.66699 93 9c12.667 18.667 19 40 19 64c0 22 -4.66699 40.667 -14 56c-16 26.667 -40 40 -72 40c-27.333 0 -56 -8.66699 -86 -26
c-48 -26.667 -105.333 -103 -172 -229c4 -6.66699 8 -21 12 -43zM730.002 393.994c10.667 45.333 28.668 90.334 54.001 135.001c28.667 48.667 77.667 95 147 139c1.33301 24.667 -4.66699 47.667 -18 69c-10 16.667 -22 29.167 -36 37.5s-28 12.5 -42 12.5
c-38.667 0 -73 -26 -103 -78c-23.333 -39.333 -35 -110.333 -35 -213c0 -22.667 0.666992 -46.334 2 -71.001c9.33301 -8 19.666 -18.333 30.999 -31zM618.003 359.995c-13.333 0 -24.666 -4.66699 -33.999 -14s-14 -21 -14 -35c0 -13.333 4.66699 -24.5 14 -33.5
s20.666 -13.5 33.999 -13.5s24.666 4.5 33.999 13.5s14 20.167 14 33.5c0 14 -4.66699 25.667 -14 35s-20.666 14 -33.999 14z" />
    <glyph glyph-name="Uacute" unicode="&#xda;" horiz-adv-x="455" 
d="M248 569c43.333 -20 65 -55 65 -105c0 -16.667 -3.33301 -32.667 -10 -48c-20 -43.333 -55 -65 -105 -65c-16.667 0 -32.667 3.33301 -48 10c-44 20 -66 55 -66 105c0 16.667 3.66699 32.667 11 48c20.667 44 55.667 66 105 66c16.667 0 32.667 -3.66699 48 -11zM200 533
c-18 0 -34 -6.66602 -48 -19.999s-21 -29.333 -21 -48s6.5 -34.334 19.5 -47.001s28.5 -19 46.5 -19c29.333 0 50.333 12.333 63 37c4 9.33301 6 19 6 29c0 18 -6.5 33.833 -19.5 47.5s-28.5 20.5 -46.5 20.5zM251 254.001c43.333 -20 65 -55 65 -105
c0 -16.667 -3.33301 -32.667 -10 -48c-20 -43.333 -55 -65 -105 -65c-16.667 0 -32.667 3.33301 -48 10c-44 20 -66 55 -66 105c0 16.667 3.66699 32.667 11 48c20.667 44 55.667 66 105 66c16.667 0 32.667 -3.66699 48 -11zM203 218.001c-18 0 -34 -6.66602 -48 -19.999
s-21 -29.333 -21 -48s6.5 -34.334 19.5 -47.001s28.5 -19 46.5 -19c29.333 0 50.333 12.333 63 37c4 9.33301 6 19 6 29c0 18 -6.5 33.833 -19.5 47.5s-28.5 20.5 -46.5 20.5z" />
    <glyph glyph-name="aring" unicode="&#xe5;" horiz-adv-x="1418" 
d="M937 475c-9.33301 -36 -23.998 -68.167 -43.998 -96.5s-51.667 -57.833 -95 -88.5c28.667 -22.667 45.667 -37.334 51 -44.001c25.333 -29.333 38 -64 38 -104c0 -25.333 -12 -53.333 -36 -84c-31.333 -39.333 -71.333 -59 -120 -59
c-150.667 0 -240.667 110.333 -270 331c-6 46 -8.33301 94.333 -7 145h-40v56h40c11.333 68.667 34.666 124 69.999 166c40.667 47.333 92.334 71 155.001 71c58 0 116.333 -23 175 -69l40 -33c17.333 -12.667 30.666 -19 39.999 -19c21.333 0 73.333 35 156 105
c16.667 14.667 57.667 42 123 82c56 34.667 120 52 192 52c108 0 190 -33.333 246 -100c30 -36 49 -71 57 -105c3.33301 -14 5 -24 5 -30c0 -14 -6.33301 -21 -19 -21c-7.33301 0 -16.333 11.667 -27 35c-18.667 41.333 -36.334 72 -53.001 92c-46 54.667 -114 82 -204 82
c-62 0 -119.333 -16 -172 -48c-45.333 -27.333 -85.333 -55.333 -120 -84c-52.667 -43.333 -81.667 -67 -87 -71c-36.667 -26 -69.667 -39.667 -99 -41c-23.333 -2 -46.333 6 -69 24l-44 41c-45.333 32.667 -86 50.334 -122 53.001c-50.667 4 -93.667 -13.333 -129 -52
c-31.333 -34.667 -51 -78 -59 -130h489v-56h-61zM882.002 475h-373c1.33301 -14 3.33301 -40.333 6 -79c0.666992 -19.333 2 -48.333 4 -87c36.667 1.33301 100 4.66602 190 9.99902c16 1.33301 35.333 7.83301 58 19.5s42 25.834 58 42.501c22.667 24 41.667 55.333 57 94z
M727.002 265c-40.667 -3.33301 -105.667 -6.66797 -195 -10.001c8 -38.667 20 -72 36 -100c38 -66.667 91.667 -100 161 -100c30.667 0 56 9.33301 76 28s29 43.667 27 75c-2 23.333 -15 47.333 -39 72s-46 36.334 -66 35.001zM341.002 280.998
c-5.33301 -46 -7.99902 -85 -7.99902 -117c0 -56.667 9 -106.667 27 -150l33 -60c0.666992 -2 1 -4 1 -6c0 -3.33301 -2.33301 -5 -7 -5c-10.667 0 -21 4 -31 12c-26.667 19.333 -47.667 52 -63 98c-12.667 39.333 -19 79 -19 119c0 35.333 4 83 12 143
c-38.667 -26.667 -75.667 -41.334 -111 -44.001c-43.333 -3.33301 -81.333 8.5 -114 35.5s-49 62.167 -49 105.5c0 39.333 11 72 33 98c29.333 36 76.666 54 141.999 54c113.333 0 166 -61 158 -183c-0.666992 -25.333 -2 -58.666 -4 -99.999zM166.003 326.998
c24.667 0 49.334 6 74.001 18c34 16.667 51 40.667 51 72c1.33301 60 -36.334 90 -113.001 90c-76 0 -113 -30.333 -111 -91c0.666992 -29.333 11 -52 31 -68c18 -14 40.667 -21 68 -21z" />
    <glyph glyph-name="ccedilla" unicode="&#xe7;" 
d="M-348 -286c-7.33301 16.667 -16 50 -26 100h-30c-19.333 0 -29 6.33301 -29 19c0 11.333 7.33301 25.666 22 42.999c4 5.33301 12.833 11.5 26.5 18.5s25.167 10.5 34.5 10.5c11.333 0 17 -6 17 -18v-29h164v112h46v-212c0 -21.333 -7 -41.666 -21 -60.999
c-20.667 -28 -51 -42 -91 -42c-57.333 0 -95 19.667 -113 59zM-169 -186l-161.998 -0.000976562c3.33301 -18 9.33301 -41.667 18 -71c9.33301 -19.333 18.666 -31.666 27.999 -36.999s25.666 -8 48.999 -8c44.667 0 67 22.333 67 67v49z" />
    <glyph glyph-name="ntilde" unicode="&#xf1;" horiz-adv-x="508" 
d="M410 323c0 -2 -1.33203 -18.6641 -3.99902 -49.9971c-2.66699 -24.667 -4 -51.334 -4 -80.001c0 -62.667 11 -118.334 33 -167.001l39 -66c1.33301 -2.66699 2 -4.66699 2 -6c0 -4 -2.66699 -6 -8 -6c-12 0 -23.667 4.33301 -35 13
c-46.667 34.667 -75.667 102.667 -87 204c-1.33301 11.333 -2 25 -2 41c0 50.667 4.33301 107 13 169c-29.333 -34.667 -77.333 -54.334 -144 -59.001c-50 -4 -95.333 8.33301 -136 37c-43.333 30 -66 68.667 -68 116c-2 46.667 14.333 86 49 118
c40.667 36.667 96.667 53.667 168 51c135.333 -5.33301 198.666 -73.333 189.999 -204c-2 -32.667 -4 -69.667 -6 -111zM202.001 375.003c29.333 0 60.002 6.99902 92.002 20.999c43.333 19.333 64 45.333 62 78c-2.66699 69.333 -49.334 104 -140.001 104
c-44 0 -79.833 -9.66699 -107.5 -29s-40.834 -44.666 -39.501 -75.999c0.666992 -31.333 16 -56 46 -74c25.333 -16 54.333 -24 87 -24z" />
    <glyph glyph-name="ograve" unicode="&#xf2;" horiz-adv-x="578" 
d="M249 127c20.667 -10 50.9971 -26.335 90.9971 -49.002c38.667 -25.333 58 -44 58 -56c0 -12.667 -7.33301 -19 -22 -19c-6.66699 0 -23.667 6.66699 -51 20l-68 34c-16 9.33301 -40.667 20 -74 32c-29.333 2.66699 -71 8 -125 16
c-37.333 8.66699 -56.666 23.334 -57.999 44.001c-2.66699 40 15.333 60 54 60c12.667 0 25.667 -2.66699 39 -8c46.667 -17.333 80.667 -25.666 102 -24.999c52 0 103 17.333 153 52c62 43.333 92.333 100.333 91 171c-2 106 -68.333 161.667 -199 167
c-49.333 2 -98 -3.33301 -146 -16c-38.667 -10 -60 -15 -64 -15c-13.333 0 -21.666 4.66699 -24.999 14c-1.33301 4.66699 -2 9 -2 13c0 21.333 29.333 38.333 88 51c40.667 8.66699 87.334 13 140.001 13c180 0 269.333 -76 268 -228
c-0.666992 -138 -84 -228.333 -250 -271z" />
    <glyph glyph-name="oacute" unicode="&#xf3;" horiz-adv-x="606" 
d="M451 360c0.666992 -4 6.66406 -10.6699 17.9971 -20.0029c14.667 -11.333 25 -22 31 -32c10.667 -16.667 15.667 -36.334 15 -59.001c-3.33301 -73.333 -62 -127 -176 -161c8.66699 -5.33301 21.334 -10 38.001 -14c21.333 -5.33301 37.333 -10.333 48 -15
c36.667 -14.667 55 -27.334 55 -38.001c0 -13.333 -9 -20 -27 -20c-12.667 0 -35 4.66699 -67 14c-14 4 -42.333 15.333 -85 34c-39.333 16.667 -69.666 27.334 -90.999 32.001c-1.33301 0.666992 -42.333 9.33398 -123 26.001c-47.333 9.33301 -69.666 30 -66.999 62
c2 26 20.667 39 56 39c26.667 0 52.334 -9 77.001 -27c39.333 -30.667 77.666 -46.667 114.999 -48c36 -2 75.667 9.66699 119 35c48.667 28 70.334 59 65.001 93c-7.33301 52 -42 78 -104 78c-10 0 -47 -4 -111 -12c-30.667 -4 -57.667 -6 -81 -6
c-58.667 0 -88 12.667 -88 38c-0.666992 12.667 8.83301 23.5 28.5 32.5s45.834 13.5 78.501 13.5c17.333 0 43.166 -2.5 77.499 -7.5s60.5 -7.5 78.5 -7.5c82.667 0 126 28.333 130 85c2 31.333 -24 55.333 -78 72c-35.333 10 -76.333 16 -123 18
c-22.667 0.666992 -76.334 -5.66602 -161.001 -18.999c-22.667 -4 -37.667 -6 -45 -6c-22.667 0 -34 9 -34 27c0 20.667 24 35.667 72 45c41.333 8.66699 99.333 13 174 13c66.667 0 124 -12 172 -36c55.333 -27.333 83 -65.666 83 -114.999
c0 -25.333 -6 -46.666 -18 -63.999c-8 -11.333 -19.667 -22.333 -35 -33c-11.333 -8 -17 -13.667 -17 -17z" />
    <glyph glyph-name="ocircumflex" unicode="&#xf4;" horiz-adv-x="536" 
d="M238 308c56.667 0 100.667 14.667 132 44c25.333 25.333 38 55.333 38 90c0 56.667 -33 94.334 -99 113.001v60c106 -20.667 159 -77 159 -169c0 -30.667 -7.66699 -58.334 -23 -83.001c-7.33301 -12 -21 -28.333 -41 -49c-14 -14.667 -20.667 -25.667 -20 -33
c1.33301 -5.33301 7.33301 -13.333 18 -24c13.333 -13.333 23 -25.666 29 -36.999c10 -19.333 15 -42.666 15 -69.999c0 -47.333 -19.333 -84.333 -58 -111s-88.667 -40 -150 -40s-111.333 13.333 -150 40s-58 63.667 -58 111c0 27.333 5 50.666 15 69.999
c6 11.333 15.667 23.666 29 36.999c10.667 10.667 16.667 18.667 18 24c0.666992 7.33301 -6 18.333 -20 33c-20 20.667 -33.667 37 -41 49c-15.333 24.667 -23 52.334 -23 83.001c0 92 53 148.333 159 169v-60c-66 -18.667 -99 -56.334 -99 -113.001
c0 -34.667 12.667 -64.667 38 -90c31.333 -29.333 75.333 -44 132 -44zM238 248c-46 0 -79.333 -4.66699 -100 -14c-32 -14.667 -48 -42.667 -48 -84c0 -60 49.333 -90 148 -90s148 30 148 90c0 41.333 -16 69.333 -48 84c-20.667 9.33301 -54 14 -100 14z" />
    <glyph glyph-name="otilde" unicode="&#xf5;" horiz-adv-x="570" 
d="M471 599l0.00292969 -599h-60v164c-15.333 -13.333 -36.333 -26.333 -63 -39c-34 -16 -64.667 -24.333 -92 -25c-65.333 -0.666992 -121.666 16.333 -168.999 51c-31.333 23.333 -50 44 -56 62c-0.666992 12 9.66602 45.667 30.999 101c23.333 60 36.333 98.333 39 115
c0.666992 4.66699 1 10.334 1 17.001c0 23.333 -5 43.333 -15 60c-12.667 21.333 -32.334 32 -59.001 32h-22v61h57c24.667 0 47.5 -15 68.5 -45s31.5 -64 31.5 -102c0 -8.66699 -0.666992 -17.334 -2 -26.001c-12.667 -78.667 -36.334 -145 -71.001 -199
c15.333 -13.333 31.666 -25 48.999 -35c35.333 -21.333 69 -32.333 101 -33c49.333 -1.33301 106.333 20.667 171 66v374h60z" />
    <glyph glyph-name="odieresis" unicode="&#xf6;" horiz-adv-x="494" 
d="M222 650c-2.66699 44 10.001 76.666 38.001 97.999c22.667 18 53.334 27 92.001 27c18 0.666992 38 -4 60 -14c24.667 -10.667 35 -21 31 -31c-1.33301 -3.33301 -5.33301 -5 -12 -5c-4.66699 0 -16 1.66699 -34 5s-32.333 5 -43 5c-19.333 0 -36.333 -6.16699 -51 -18.5
s-22 -28.166 -22 -47.499c0 -26.667 13.333 -56.667 40 -90c7.33301 -8.66699 24 -20.334 50 -35.001c19.333 -11.333 29 -22.333 29 -33c0 -4 -1 -8 -3 -12c-6 -14.667 -17.333 -22 -34 -22c-10 0 -25 3.33301 -45 10c-24 7.33301 -39.667 11.666 -47 12.999
c-34 6 -61.333 9 -82 9c-26 0 -47.667 -4 -65 -12c-40 -18.667 -59.333 -45 -58 -79c1.33301 -35.333 13.333 -62.833 36 -82.5s51.667 -29.5 87 -29.5c13.333 0 31.666 2.66699 54.999 8s42 8 56 8c24 0 45.333 -4 64 -12c16.667 -7.33301 25 -15.333 25 -24
c2 -30 -28 -45 -90 -45c-12 0 -30.167 1.5 -54.5 4.5s-42.833 4.5 -55.5 4.5c-72.667 0 -113.334 -31 -122.001 -93c-0.666992 -6 -1 -11.667 -1 -17c0 -53.333 35 -80 105 -80h188c30 0 45.333 -10.667 46 -32c0.666992 -12.667 -2 -20.5 -8 -23.5s-18.667 -4.5 -38 -4.5
h-218c-38 0 -69.833 14.333 -95.5 43s-38.5 65.334 -38.5 110.001c0 30.667 9 58 27 82s27 38.333 27 43c0.666992 4.66699 -8.5 22.334 -27.5 53.001s-28.5 63.667 -28.5 99c0 45.333 20.333 80.333 61 105c34.667 20.667 76 31 124 31c22 0 49.667 -3.33301 83 -10
c-33.333 42 -50.333 73.333 -51 94z" />
    <glyph glyph-name="divide" unicode="&#xf7;" horiz-adv-x="619" 
d="M545 417c-0.666992 -101.333 -40.665 -181.666 -119.998 -240.999c-53.333 -39.333 -131 -81.666 -233 -126.999c-75.333 -32.667 -129 -49 -161 -49c-12 0 -17.667 3.33301 -17 10c0.666992 8 14 17.667 40 29l80 34c54 24 109 53 165 87
c68.667 41.333 115.667 77.333 141 108c13.333 16 24.666 38 33.999 66s14 53.333 14 76c0 49.333 -20.667 89 -62 119c-30.667 23.333 -71.334 34.333 -122.001 33c-25.333 -0.666992 -49.833 -7.83398 -73.5 -21.501s-38.167 -27.667 -43.5 -42s-10 -27.833 -14 -40.5
c-7.33301 -16 -17.333 -24.667 -30 -26c-27.333 -2.66699 -41 13 -41 47c0 36 23 69.167 69 99.5s95.333 44.5 148 42.5c24 -0.666992 50 -5.33398 78 -14.001c32 -9.33301 56.333 -21 73 -35c50.667 -44 75.667 -95.667 75 -155z" />
    <glyph glyph-name="oslash" unicode="&#xf8;" horiz-adv-x="633" 
d="M551 452l-406.999 0.00195312c-0.666992 -10.667 -1 -23 -1 -37c0 -80 11.667 -144.333 35 -193c46 -98 137 -152 273 -162c5.33301 -0.666992 14.666 -0.333984 27.999 0.999023s23 2 29 2c28 0 42 -10.333 42 -31c0 -21.333 -33.333 -32 -100 -32
c-75.333 0 -142 17.667 -200 53c-60 36 -104.667 88.333 -134 157c-22.667 53.333 -34 117.666 -34 192.999c0 20.667 0.666992 37 2 49h-60c-14 0 -21 7.66699 -21 23c0 12 4 27.333 12 46c7.33301 16 14 27.833 20 35.5s18.333 16.5 37 26.5
c21.333 11.333 38.333 17 51 17c14 0 21 -7.33301 21 -22v-66h407v-60z" />
    <glyph glyph-name="ugrave" unicode="&#xf9;" horiz-adv-x="626" 
d="M144 449c-0.666992 -12 -0.998047 -26 -0.998047 -42c0 -76 11.667 -137.667 35 -185c48 -98.667 139 -152.667 273 -162c5.33301 -0.666992 14.666 -0.333984 27.999 0.999023s23 2 29 2c28 0 42 -10.333 42 -31c0 -21.333 -33.333 -32 -100 -32
c-75.333 0 -142 17.333 -200 52c-60 36.667 -105 89.334 -135 158.001c-22 51.333 -33 113.333 -33 186c0 20 0.666992 37.667 2 53h-62c-14.667 0 -22 8.33301 -22 25c0 13.333 4 29.333 12 48c7.33301 16.667 14.666 28.5 21.999 35.5s20 15.167 38 24.5
c22 11.333 39.333 17 52 17c13.333 0 20 -7 20 -21v-69h251c-14 17.333 -23.333 29.666 -28 36.999c-13.333 22.667 -20.666 43.667 -21.999 63c-2.66699 43.333 10 76 38 98c22.667 17.333 53 26.333 91 27c18 0 38.667 -5 62 -15s33.333 -20 30 -30
c-1.33301 -4 -5.66602 -6 -12.999 -6c-4.66699 0 -16 1.66699 -34 5s-32.333 5 -43 5c-18.667 0 -35.5 -6 -50.5 -18s-22.5 -27.667 -22.5 -47c0 -26.667 13.667 -56.667 41 -90c7.33301 -9.33301 23.333 -19.666 48 -30.999c17.333 -8 26.666 -19.667 27.999 -35
c0.666992 -16.667 -22.333 -25 -69 -25c1.33301 0 -16.334 0.666992 -53.001 2h-254z" />
    <glyph glyph-name="uacute" unicode="&#xfa;" horiz-adv-x="619" 
d="M67 310c0 -58.667 20.833 -108.834 62.5 -150.501s91.834 -62.5 150.501 -62.5c59.333 0 109.833 20.833 151.5 62.5s62.5 91.834 62.5 150.501c0 59.333 -20.833 109.833 -62.5 151.5s-92.167 62.5 -151.5 62.5c-58.667 0 -108.834 -20.833 -150.501 -62.5
s-62.5 -92.167 -62.5 -151.5zM7 310c0 76 26.667 140.667 80 194s117.666 80 192.999 80c76 0 140.667 -26.667 194 -80s80 -118 80 -194c0 -75.333 -26.667 -139.666 -80 -192.999s-118 -80 -194 -80c-75.333 0 -139.666 26.667 -192.999 80s-80 117.666 -80 192.999z" />
    <glyph glyph-name="udieresis" unicode="&#xfc;" 
d="M-227 -275c54.667 0 111.332 11.334 169.999 34.001v-40c-17.333 -6 -34.666 -11.333 -51.999 -16c-42 -11.333 -81.333 -17.333 -118 -18c-50.667 -0.666992 -108 10.666 -172 33.999v40c62 -22.667 119.333 -34 172 -34z" />
    <glyph glyph-name="ydieresis" unicode="&#xff;" horiz-adv-x="850" 
d="M841 -31h-839v629h839v-629zM601 523c-3.33301 36 -18.333 53.999 -45 53.999c-12.667 0 -23.667 -6.66699 -33 -20c-6.66699 -10.667 -10.667 -22 -12 -34c-2.66699 -24.667 0 -45.667 8 -63c5.33301 -14 11.666 -22 18.999 -24
c0.666992 9.33301 -0.166016 17.5 -2.49902 24.5s-3.5 21.167 -3.5 42.5c0 24 8 36 24 36c11.333 0 19 -12 23 -36c0.666992 -5.33301 1 -10.666 1 -15.999c0 -6.66699 -1 -15.5 -3 -26.5s-2.33301 -19.167 -1 -24.5c9.33301 2.66699 16.333 13 21 31s6 36.667 4 56z
M822 350.999l0.00292969 54h-435v59c0.666992 34.667 9 50.667 25 48c16.667 -2 23.667 -25 21 -69h35c0 81.333 -17.333 124.666 -52 129.999c-20.667 3.33301 -37.667 -6.33398 -51 -29.001c-10 -18.667 -15 -39.334 -15 -62.001v-77h-28v-54h28v-346h37v346
c28.667 0.666992 43.667 0.666992 45 0c9.33301 -16 12.333 -51.667 9 -107c-2.66699 -40 -9 -73.333 -19 -100c-5.33301 -14 -8 -21.333 -8 -22c0 -10 6.66699 -23.667 20 -41c19.333 -25.333 39.666 -38 60.999 -38c12 0 23.333 4 34 12
c8.66699 6.66699 14 13.334 16 20.001v-70h39v346h170v-118h-71v29c0 18.667 -4.66699 28 -14 28c-7.33301 0 -16 -6 -26 -18s-16.333 -23.667 -19 -35s-3.66699 -23.666 -3 -36.999c0 -16 3 -24 9 -24h25c0 -39.333 2 -68.333 6 -87c6 -29.333 17.667 -50.666 35 -63.999
c19.333 -15.333 34 -23 44 -23c15.333 0 31.333 12.667 48 38c7.33301 11.333 10.666 24 9.99902 38c0 3.33301 -0.666992 5.33301 -2 6l-16 -18c-12.667 -14 -23.334 -21 -32.001 -21c-4.66699 0 -10 1 -16 3c-11.333 3.33301 -21 18.333 -29 45
c-4.66699 15.333 -7 43 -7 83h100v175h26zM235.003 350.999l0.000976562 53.999h-213v-54h155c0 -32 -6.33301 -72.333 -19 -121c-2.66699 8 -7 18.333 -13 31c-14.667 22 -29.667 33 -45 33c-6 0 -13.667 -1.66699 -23 -5c-16 -5.33301 -28.833 -20 -38.5 -44
s-14.5 -52 -14.5 -84c0 -36 6.33301 -66 19 -90c11.333 -20.667 23.666 -31 36.999 -31c21.333 0 35.166 2.83301 41.499 8.5s18.5 25.834 36.5 60.501c8.66699 -14.667 14 -37.334 16 -68.001c1.33301 -24 3.33301 -36.167 6 -36.5s9.33398 -0.5 20.001 -0.5
c10 0 15.667 0.333008 17 1c0 24 -4 54.667 -12 92c-4 18 -8.66699 36.667 -14 56c-3.33301 12.667 -5 20.334 -5 23.001c15.333 50 25.333 108.333 30 175h19zM545.004 257.998h-67c0.666992 16 0 34.333 -2 55l-4 38h73v-93zM545.004 203.998l0.000976562 -81
c-14.667 -23.333 -28.334 -35 -41.001 -35c-14.667 0 -28.667 11 -42 33c-4 6 -6 10.667 -6 14c0 2 1.33301 5.5 4 10.5s4.66699 10.5 6 16.5c2 12.667 5 26.667 9 42h70zM146.005 170.998c-4 -12 -17.334 -35.998 -40.001 -71.998c-6.66699 -1.33301 -12 -2 -16 -2
c-15.333 0 -24.666 14 -27.999 42c-0.666992 7.33301 -1 14.666 -1 21.999c0 50.667 12 76 36 76c11.333 0 22.333 -8.33301 33 -25s16 -30.334 16 -41.001zM244.004 61c0 16 2.66699 29.5 8 40.5s12 16.5 20 16.5s14.667 -5.5 20 -16.5s8 -24.5 8 -40.5
s-2.66699 -29.5 -8 -40.5s-12 -16.5 -20 -16.5s-14.667 5.5 -20 16.5s-8 24.5 -8 40.5z" />
    <glyph glyph-name="OE" unicode="&#x152;" horiz-adv-x="1236" 
d="M618 443l-105 252c-10.667 25.333 -16 48 -16 68c0 33.333 11.833 62 35.5 86s52.167 36 85.5 36c34.667 0 64 -12 88 -36s36 -52.667 36 -86c0 -20 -5.33301 -42.667 -16 -68zM525 404l-252 103c-23.333 10 -43.333 23 -60 39c-23.333 22.667 -35 51 -35 85
c0 33.333 11.833 62 35.5 86s52.5 36 86.5 36c33.333 0 62.333 -12.333 87 -37c14.667 -14.667 26.667 -33.667 36 -57zM487 312l-252.999 -103.999c-26 -11.333 -48.333 -17 -67 -17c-32.667 0 -61.167 12 -85.5 36s-36.5 52.333 -36.5 85
c0 33.333 12.167 62.166 36.5 86.499s52.833 36.5 85.5 36.5c19.333 0 41.666 -5.33301 66.999 -16zM525.001 221.001l-102.999 -254c-10.667 -26 -23.334 -46.333 -38.001 -61c-23.333 -23.333 -52 -35 -86 -35s-62.667 12 -86 36s-35 53 -35 87s12 62.667 36 86
c15.333 15.333 35 28 59 38zM618.002 181.001l106 -251c10.667 -25.333 16 -48.333 16 -69c0 -33.333 -12 -62 -36 -86s-52.667 -36 -86 -36c-34 0 -63.167 12 -87.5 36s-36.5 52.667 -36.5 86c0 19.333 5.66699 42.333 17 69zM711.002 221.001l253 -104.999
c26 -10.667 46 -23 60 -37c23.333 -23.333 35 -52 35 -86c0 -34.667 -11.833 -63.834 -35.5 -87.501s-52.5 -35.5 -86.5 -35.5c-34.667 0 -63.667 12 -87 36c-16.667 16.667 -29 36 -37 58zM751.002 312.002l249.002 106c25.333 10.667 48 16 68 16
c33.333 0 62.166 -12.167 86.499 -36.5s36.5 -52.833 36.5 -85.5c0 -34 -12 -62.833 -36 -86.5s-53 -35.5 -87 -35.5c-22.667 0 -45.334 5 -68.001 15zM711.004 404.002l104.001 253c10.667 26 22.667 45.667 36 59c24.667 24.667 54 37 88 37c33.333 0 61.5 -12 84.5 -36
s34.5 -53 34.5 -87s-11.333 -62.333 -34 -85c-14.667 -15.333 -34.334 -28 -59.001 -38zM618.005 379.002c19.333 0 35.832 -6.5 49.499 -19.5s20.5 -29.167 20.5 -48.5s-6.83301 -35.833 -20.5 -49.5s-30.167 -20.5 -49.5 -20.5s-35.666 6.83301 -48.999 20.5
s-20 30.167 -20 49.5c0 20 6.5 36.333 19.5 49s29.5 19 49.5 19z" />
    <glyph glyph-name="oe" unicode="&#x153;" 
d="M-152 -92c-10 -17.333 -27.335 -35.998 -52.002 -55.998c46 -27.333 69.333 -57.666 70 -90.999c0.666992 -34 -12.666 -60.833 -39.999 -80.5s-63.666 -27.5 -108.999 -23.5c-30.667 2 -63 14.333 -97 37c-31.333 20.667 -44.666 35 -39.999 43c2 2 5 3 9 3
c7.33301 0 19.333 -4.33301 36 -13l31 -16c26 -11.333 49 -17 69 -17c13.333 0 27 2 41 6c40.667 11.333 59 33 55 65c-2 15.333 -12.667 29.666 -32 42.999s-43 21.666 -71 24.999c-18.667 2 -39.334 -0.333008 -62.001 -7c-7.33301 -2 -15 -3 -23 -3
c-26 0 -39 11.333 -39 34c0 17.333 15 26 45 26c8.66699 0 16.667 -1 24 -3c34.667 -6.66699 59 -9.66699 73 -9c40 3.33301 69 36.666 87 99.999h47c-6.66699 -27.333 -14 -48.333 -22 -63z" />
    <glyph glyph-name="florin" unicode="&#x192;" horiz-adv-x="609" 
d="M459 -58v-53c-56.667 -20 -111.667 -30.667 -165 -32c-50 -0.666992 -105.667 10 -167 32v54c60 -20.667 115.667 -31 167 -31c52.667 0 107.667 10 165 30zM294 826c-28.667 0 -52.167 -8.5 -70.5 -25.5s-26.5 -36.167 -24.5 -57.5
c0.666992 -9.33301 5.66699 -23.833 15 -43.5s14 -31.5 14 -35.5c0 -1.33301 -0.333008 -2.33301 -1 -3c-4 -4.66699 -14.167 2.5 -30.5 21.5s-26.166 35.833 -29.499 50.5c-2 9.33301 -3 18 -3 26c0 24.667 9 48.334 27 71.001c21.333 26.667 55.666 40 102.999 40
s81.666 -13.333 102.999 -40c18 -22.667 27 -46.334 27 -71.001c0 -8 -1 -16.667 -3 -26c-3.33301 -14.667 -13.166 -31.5 -29.499 -50.5s-26.5 -26.167 -30.5 -21.5c-0.666992 0.666992 -1 1.66699 -1 3c0 4 4.66699 15.833 14 35.5s14.333 34.167 15 43.5
c2 21.333 -6.16699 40.5 -24.5 57.5s-41.833 25.5 -70.5 25.5zM459 -178v-53c-56.667 -20 -111.667 -30.667 -165 -32c-50 -0.666992 -105.667 10 -167 32v54c60 -20.667 115.667 -31 167 -31c52.667 0 107.667 10 165 30zM324 538v-136
c54.667 -10 102.5 -37.167 143.5 -81.5s61.5 -92.166 61.5 -143.499c0 -50.667 -12 -89.334 -36 -116.001c-18 -21.333 -52 -42 -102 -62v60c30 15.333 50.5 31.333 61.5 48s16.5 40 16.5 70c0 42 -18.5 79.833 -55.5 113.5s-76.833 50.5 -119.5 50.5
s-82.167 -16.833 -118.5 -50.5s-54.5 -71.5 -54.5 -113.5c0 -30 5.5 -53.333 16.5 -70s31.5 -32.667 61.5 -48v-60c-50 20 -84 40.667 -102 62c-24 26.667 -36 65.334 -36 116.001c0 51.333 20.167 99.166 60.5 143.499s87.833 71.5 142.5 81.5v136h-275v61h632v-61h-297z
" />
    <glyph glyph-name="circumflex" unicode="&#x2c6;" 
d="M-115 802c17.333 0 32.5 -6.5 45.5 -19.5s19.5 -28.167 19.5 -45.5s-6.5 -32.5 -19.5 -45.5s-28.167 -19.5 -45.5 -19.5s-32.5 6.5 -45.5 19.5s-19.5 28.167 -19.5 45.5s6.5 32.5 19.5 45.5s28.167 19.5 45.5 19.5z" />
    <glyph glyph-name="tilde" unicode="&#x2dc;" 
d="M-201 -342v41.999c37.333 14.667 56 42.667 56 84c0 15.333 -6.33301 30.666 -19 45.999c-18.667 22 -46.667 33 -84 33s-65.333 -11 -84 -33c-12.667 -15.333 -19 -30.666 -19 -45.999c0 -41.333 18.667 -69.333 56 -84v-42c-65.333 22 -98.333 64.333 -99 127
c0 28 10.333 53.333 31 76c23.333 26.667 54 40.667 92 42v67h45v-67c38 -1.33301 69 -15.333 93 -42c20.667 -23.333 31 -48.666 31 -75.999c-0.666992 -62.667 -33.667 -105 -99 -127z" />
    <glyph glyph-name="endash" unicode="&#x2013;" horiz-adv-x="520" 
d="M462 272h-406v57h406v-57z" />
    <glyph glyph-name="emdash" unicode="&#x2014;" horiz-adv-x="900" 
d="M50 330h800v-59h-800v59z" />
    <glyph glyph-name="quoteleft" unicode="&#x2018;" horiz-adv-x="313" 
d="M85 613c0 32.667 16.334 66.333 49.001 101c27.333 28.667 54.666 49.334 81.999 62.001l9 -21c-35.333 -22 -60 -46 -74 -72c-6 -10.667 -10 -23.334 -12 -38.001c-0.666992 -10 -1.66699 -20.333 -3 -31c5.33301 -6 17.333 -9.33301 36 -10
c24.667 -0.666992 40.667 -2 48 -4c16 -4.66699 24.667 -15.667 26 -33c2 -19.333 -4.66699 -34.333 -20 -45c-12 -8.66699 -27 -13 -45 -13c-22 0 -41.333 6 -58 18c-25.333 18 -38 46.667 -38 86z" />
    <glyph glyph-name="quoteright" unicode="&#x2019;" horiz-adv-x="313" 
d="M206 672c0 -32.667 -16.334 -66.333 -49.001 -101c-27.333 -28.667 -54.666 -49.334 -81.999 -62.001l-9 21c35.333 22 60 46 74 72c6 10.667 10 23.334 12 38.001c0.666992 10 1.66699 20.333 3 31c-5.33301 6 -17.333 9.33301 -36 10c-24.667 0 -40.667 1.33301 -48 4
c-16 4.66699 -24.667 15.667 -26 33c-2 19.333 4.66699 34.333 20 45c12 8.66699 27 13 45 13c22 0 41.333 -6 58 -18c25.333 -18 38 -46.667 38 -86z" />
    <glyph glyph-name="quotesinglbase" unicode="&#x201a;" horiz-adv-x="1236" 
d="M176 309c-46.667 20.667 -83 59.334 -109 116.001c-23.333 51.333 -35 109.333 -35 174c0 101.333 24.5 176.5 73.5 225.5s124.167 73.5 225.5 73.5c64 0 121.333 -11.667 172 -35c56 -25.333 94 -61.333 114 -108c20.667 46.667 59.334 83 116.001 109
c51.333 23.333 109.333 35 174 35c101.333 0 176.5 -24.5 225.5 -73.5s73.5 -124.167 73.5 -225.5c0 -64 -11.667 -121.333 -35 -172c-25.333 -55.333 -61.333 -93.333 -108 -114c46.667 -20.667 83 -59.334 109 -116.001c23.333 -51.333 35 -109.333 35 -174
c0 -101.333 -24.5 -176.5 -73.5 -225.5s-124.167 -73.5 -225.5 -73.5c-64 0 -121.333 11.667 -172 35c-55.333 25.333 -93.333 61.333 -114 108c-20.667 -46.667 -59.334 -83 -116.001 -109c-51.333 -23.333 -109.333 -35 -174 -35c-101.333 0 -176.5 24.5 -225.5 73.5
s-73.5 124.167 -73.5 225.5c0 64 11.667 121.333 35 172c25.333 55.333 61.333 93.333 108 114zM172 487c-4 6.66699 -6.00098 14.998 -6.00098 24.998c0 50.667 29.167 105.167 87.5 163.5s112.833 87.5 163.5 87.5c10 0 18.333 -2 25 -6c-4.66699 -16 -7 -30.667 -7 -44
c0 -41.333 22 -61.333 66 -60c40.667 1.33301 61 22 61 62c0 39.333 -18.667 69 -56 89c-22 11.333 -46.333 17 -73 17c-37.333 0 -77 -11 -119 -33c-37.333 -19.333 -70.666 -43.666 -99.999 -72.999s-53.666 -62.666 -72.999 -99.999c-22 -42 -33 -81.667 -33 -119
c0 -26.667 6 -50.667 18 -72c19.333 -37.333 49 -56 89 -56c39.333 0 59.666 20 60.999 60c1.33301 44.667 -18.667 67 -60 67c-13.333 0 -28 -2.66699 -44 -8zM246.999 308.998c52 -37.333 78.001 -73.665 78.001 -108.998c0 -12.667 -4.33301 -30.667 -13 -54
s-13 -41 -13 -53c0 -23.333 11.5 -46.5 34.5 -69.5s46.167 -34.5 69.5 -34.5c12 0 29.667 4.33301 53 13s41.333 13 54 13c35.333 0 71.666 -26 108.999 -78c38 52.667 75 79 111 79c12.667 0 30.667 -4.16699 54 -12.5s41 -12.5 53 -12.5c24 0 47.5 11.5 70.5 34.5
s34.5 46.167 34.5 69.5c0 12 -4.33301 29.5 -13 52.5s-13 40.833 -13 53.5c0 36 26 72.667 78 110c-52 38 -78 75 -78 111c0 12.667 4 30.667 12 54s12 41 12 53c0 24 -11.5 47.5 -34.5 70.5s-46.167 34.5 -69.5 34.5c-12 0 -29.5 -4.33301 -52.5 -13s-40.833 -13 -53.5 -13
c-35.333 0 -72 26 -110 78c-38 -52.667 -75 -79 -111 -79c-12.667 0 -30.5 4.16699 -53.5 12.5s-40.833 12.5 -53.5 12.5c-23.333 0 -46.5 -11.5 -69.5 -34.5s-34.5 -46.167 -34.5 -69.5c0 -12.667 4.5 -30.834 13.5 -54.501s13.5 -41.834 13.5 -54.501
c0 -36 -26 -72.667 -78 -110zM121 712.999c14.667 0 34.332 12.002 58.999 36.002c26.667 27.333 40 48.666 40 63.999c0 6 -3 9 -9 9c-15.333 0 -36.666 -13.333 -63.999 -40c-24 -24.667 -36 -44.334 -36 -59.001c0 -6.66699 3.33301 -10 10 -10zM227.998 567.001
c13.333 0 39.5 19.5 78.5 58.5s58.5 65.5 58.5 79.5c0 2.66699 -1.66699 4 -5 4c-13.333 0 -39.5 -19.5 -78.5 -58.5s-58.5 -65.167 -58.5 -78.5c0 -3.33301 1.66699 -5 5 -5zM506.998 -182.999c38 20 57.002 49.665 57.002 88.998c0 40 -20.333 60.667 -61 62
c-44.667 1.33301 -67 -18.667 -67 -60c0 -13.333 2.66699 -28 8 -44c-6.66699 -4 -15 -6 -25 -6c-50.667 0 -105.167 29.167 -163.5 87.5s-87.5 112.833 -87.5 163.5c0 10 2 18.333 6 25c16 -5.33301 30.667 -8 44 -8c41.333 0 61.333 22.333 60 67
c-1.33301 40.667 -22 61 -62 61c-39.333 0 -69 -19 -89 -57c-11.333 -21.333 -17 -45.333 -17 -72c0 -37.333 11 -77 33 -119c19.333 -37.333 43.666 -70.666 72.999 -99.999s62.666 -53.666 99.999 -72.999c42 -22 81.667 -33 119 -33c26.667 0 50.667 5.66699 72 17z
M219 -187.001c0 14.667 -12.335 34.332 -37.002 58.999c-27.333 26.667 -48.666 40 -63.999 40c-6 0 -9 -3 -9 -9c0 -15.333 13.333 -36.666 40 -63.999c24.667 -24.667 44.334 -37 59.001 -37c7.33301 0 11 3.66699 11 11zM363.998 -80.0029c0 13.333 -19 39 -57 77
c-40 40 -67 60 -81 60c-2.66699 0 -4 -1.66699 -4 -5c0 -13.333 20 -40 60 -80c38 -38 63.667 -57 77 -57c3.33301 0 5 1.66699 5 5zM1114 198.997c-20 38 -49.665 57.002 -88.998 57.002c-40 0 -60.667 -20.333 -62 -61c-1.33301 -44.667 18.667 -67 60 -67
c13.333 0 28 2.66699 44 8c4 -6.66699 6 -15 6 -25c0 -50.667 -29.167 -105.167 -87.5 -163.5s-112.833 -87.5 -163.5 -87.5c-10 0 -18.333 2 -25 6c5.33301 16 8 30.667 8 44c0 41.333 -22.333 61.333 -67 60c-40 -1.33301 -60 -22 -60 -62c0 -39.333 18.667 -69 56 -89
c21.333 -11.333 45.333 -17 72 -17c37.333 0 77 11 119 33c37.333 19.333 70.666 43.666 99.999 72.999s53.666 62.666 72.999 99.999c22 42 33 81.667 33 119c0 26.667 -5.66699 50.667 -17 72zM1118 -90.001c-14.667 0 -34.332 -12.002 -58.999 -36.002
c-26.667 -27.333 -40 -48.666 -40 -63.999c0 -6 3 -9 9 -9c15.333 0 36.666 13.333 63.999 40c24.667 24.667 37 44.334 37 59.001c0 6.66699 -3.66699 10 -11 10zM1011 55.9971c-13.333 0 -39 -19 -77 -57c-39.333 -40 -59 -67 -59 -81c0 -2.66699 1.33301 -4 4 -4
c13.333 0 40 20 80 60c38 38 57 63.667 57 77c0 3.33301 -1.66699 5 -5 5zM795.002 758.997c7.33301 4 15.666 6.00195 24.999 6.00195c50.667 0 105.167 -29.167 163.5 -87.5s87.5 -112.833 87.5 -163.5c0 -10 -2 -18.333 -6 -25c-16 5.33301 -30.667 8 -44 8
c-41.333 0 -61.333 -22.333 -60 -67c1.33301 -40.667 22 -61 62 -61c39.333 0 69 19 89 57c11.333 21.333 17 45.333 17 72c0 37.333 -11 77 -33 119c-19.333 37.333 -43.666 70.666 -72.999 99.999s-62.333 53.666 -99 72.999c-42.667 22 -82.667 33 -120 33
c-26.667 0 -50.667 -5.66699 -72 -17c-37.333 -20 -56 -49.667 -56 -89c0 -40 20 -60.667 60 -62c44.667 -1.33301 67 18.667 67 60c0 13.333 -2.66699 28 -8 44zM1021 809.999c0 -14.667 12.001 -34.332 36.001 -58.999c27.333 -26.667 49 -40 65 -40c6 0 9 3 9 9
c0 15.333 -13.667 36.666 -41 63.999c-24.667 24.667 -44.334 37 -59.001 37c-6.66699 0 -10 -3.66699 -10 -11zM876.003 703.001c0 -13.333 18.667 -39 56 -77c40 -39.333 67 -59 81 -59c2.66699 0 4 1.33301 4 4c0 13.333 -20 40 -60 80c-38 38 -63.667 57 -77 57
c-2.66699 0 -4 -1.66699 -4 -5z" />
    <glyph glyph-name="quotedblleft" unicode="&#x201c;" horiz-adv-x="515" 
d="M55 613c0 32.667 16.334 66.333 49.001 101c27.333 28.667 54.666 49.334 81.999 62.001l9 -21c-35.333 -22 -60 -46 -74 -72c-6 -10.667 -10 -23.334 -12 -38.001c-0.666992 -10 -1.66699 -20.333 -3 -31c5.33301 -6 17.333 -9.33301 36 -10
c24.667 -0.666992 40.667 -2 48 -4c16 -4.66699 24.667 -15.667 26 -33c2 -19.333 -4.66699 -34.333 -20 -45c-12 -8.66699 -27 -13 -45 -13c-22 0 -41.333 6 -58 18c-25.333 18 -38 46.667 -38 86zM315.001 612.999c0 32.667 16.334 66.333 49.001 101
c27.333 28.667 54.666 49.334 81.999 62.001l9 -21c-35.333 -22 -60 -46 -74 -72c-6 -10.667 -10 -23.334 -12 -38.001c-0.666992 -10 -1.66699 -20.333 -3 -31c5.33301 -6 17.333 -9.33301 36 -10c24.667 -0.666992 40.667 -2 48 -4c16 -4.66699 24.667 -15.667 26 -33
c2 -19.333 -4.66699 -34.333 -20 -45c-12 -8.66699 -27 -13 -45 -13c-22 0 -41.333 6 -58 18c-25.333 18 -38 46.667 -38 86z" />
    <glyph glyph-name="quotedblright" unicode="&#x201d;" horiz-adv-x="515" 
d="M466 672c0 -32.667 -16.334 -66.333 -49.001 -101c-27.333 -28.667 -54.666 -49.334 -81.999 -62.001l-9 21c35.333 22 60 46 74 72c6 10.667 10 23.334 12 38.001c0.666992 10 1.66699 20.333 3 31c-5.33301 6 -17.333 9.33301 -36 10c-24.667 0 -40.667 1.33301 -48 4
c-16 4.66699 -24.667 15.667 -26 33c-2 19.333 4.66699 34.333 20 45c12 8.66699 27 13 45 13c22 0 41.333 -6 58 -18c25.333 -18 38 -46.667 38 -86zM205.999 672.001c0 -32.667 -16.334 -66.333 -49.001 -101c-27.333 -28.667 -54.666 -49.334 -81.999 -62.001l-9 21
c35.333 22 60 46 74 72c6 10.667 10 23.334 12 38.001c0.666992 10 1.66699 20.333 3 31c-5.33301 6 -17.333 9.33301 -36 10c-24.667 0 -40.667 1.33301 -48 4c-16 4.66699 -24.667 15.667 -26 33c-2 19.333 4.66699 34.333 20 45c12 8.66699 27 13 45 13
c22 0 41.333 -6 58 -18c25.333 -18 38 -46.667 38 -86z" />
    <glyph glyph-name="dagger" unicode="&#x2020;" 
d="M-261 -137c-40 -10 -78.667 -41.6641 -116 -94.9971c26 -22.667 53.667 -41.334 83 -56.001c26.667 -13.333 47 -20 61 -20c8.66699 0 19.667 1.66699 33 5c18.667 4.66699 34.334 14 47.001 28c12 12 18.333 18 19 18c4.66699 0 7 -2.66699 7 -8
c0 -9.33301 -7.33301 -21.833 -22 -37.5s-31 -26.834 -49 -33.501c-12.667 -4.66699 -25.334 -7 -38.001 -7c-24 0 -60.333 13.333 -109 40c-40 23.333 -64.667 45.666 -74 66.999c3.33301 22 21 48 53 78c29.333 28 56 46 80 54c27.333 9.33301 66 16.333 116 21v52h42v-85
c-26 2 -70.333 -5 -133 -21z" />
    <glyph glyph-name="daggerdbl" unicode="&#x2021;" horiz-adv-x="2054" 
d="M2012 169c-18 -2 -28.334 5.66602 -31.001 22.999c-0.666992 15.333 -2.66699 41.333 -6 78c-7.33301 68 -26.333 138 -57 210c-108 252.667 -272 379 -492 379c-134.667 0 -275 -45 -421 -135c-102 -62 -205.333 -148.333 -310 -259
c-62 -65.333 -147.333 -166.333 -256 -303c-41.333 -52 -163.666 -220 -366.999 -504h-67c72 118.667 201 300 387 544c202 264.667 394.333 456 577 574c149.333 97.333 298 146 446 146c110 0 210 -28.333 300 -85c94.667 -59.333 171.667 -146.666 231 -261.999
c49.333 -94 79.333 -207 90 -339c3.33301 -42.667 -4.66699 -65 -24 -67z" />
    <glyph glyph-name="bullet" unicode="&#x2022;" horiz-adv-x="430" 
d="M47 298l170 170l170 -170l-170 -170z" />
    <glyph glyph-name="ellipsis" unicode="&#x2026;" horiz-adv-x="1037" 
d="M114 -54c0 12.667 4.5 23.5 13.5 32.5s19.833 13.5 32.5 13.5c12 0 22.5 -4.5 31.5 -13.5s13.5 -19.833 13.5 -32.5c0 -12 -4.5 -22.5 -13.5 -31.5s-19.5 -13.5 -31.5 -13.5c-12.667 0 -23.5 4.5 -32.5 13.5s-13.5 19.5 -13.5 31.5zM469 -54c0 12.667 4.5 23.5 13.5 32.5
s19.833 13.5 32.5 13.5c12 0 22.5 -4.5 31.5 -13.5s13.5 -19.833 13.5 -32.5c0 -12 -4.5 -22.5 -13.5 -31.5s-19.5 -13.5 -31.5 -13.5c-12.667 0 -23.5 4.5 -32.5 13.5s-13.5 19.5 -13.5 31.5zM824 -54c0 12.667 4.5 23.5 13.5 32.5s19.833 13.5 32.5 13.5
c12 0 22.5 -4.5 31.5 -13.5s13.5 -19.833 13.5 -32.5c0 -12 -4.5 -22.5 -13.5 -31.5s-19.5 -13.5 -31.5 -13.5c-12.667 0 -23.5 4.5 -32.5 13.5s-13.5 19.5 -13.5 31.5z" />
    <glyph glyph-name="perthousand" unicode="&#x2030;" horiz-adv-x="1236" 
d="M797 306c-1.33301 -27.333 -7.99805 -51.6641 -19.998 -72.9971l227 -58c15.333 -3.33301 37.666 -11 66.999 -23c29.333 -16.667 44 -41.334 44 -74.001c0 -16 -4 -31 -12 -45c-17.333 -29.333 -41.333 -44 -72 -44c-16 0 -31.333 4.66699 -46 14
c-23.333 13.333 -42 27.333 -56 42l-162 172c-9.33301 -16 -27 -34.333 -53 -55l168 -161c22.667 -22 38 -40 46 -54s12 -29 12 -45c0 -34 -14.667 -59.333 -44 -76c-14 -8.66699 -28.667 -13 -44 -13c-32 0 -57 15 -75 45c-12 20.667 -20.667 43 -26 67l-54 227
c-24 -12 -49 -18.667 -75 -20l66 -225c8 -27.333 12 -50.333 12 -69c0 -25.333 -8.33301 -46.5 -25 -63.5s-37 -25.5 -61 -25.5c-24.667 0 -45.5 8.5 -62.5 25.5s-25.167 38.167 -24.5 63.5c0.666992 27.333 3.66699 50.333 9 69l69 225c-28.667 2 -53.667 8.66699 -75 20
l-55 -226c-6.66699 -26 -14.667 -48.667 -24 -68c-18 -28.667 -43.667 -43 -77 -43c-15.333 0 -29.333 3.66699 -42 11c-30 17.333 -45 41.666 -45 72.999c0 16 4.5 31.667 13.5 47s22.833 34.333 41.5 57l173 159c-20 12.667 -38.333 31 -55 55l-162 -169
c-20.667 -21.333 -38.5 -36.166 -53.5 -44.499s-30.167 -12.5 -45.5 -12.5c-32.667 0 -57.334 14 -74.001 42c-8.66699 15.333 -13 31.333 -13 48c0 32.667 14.333 56.334 43 71.001c24.667 13.333 47 22.333 67 27l229 54c-10.667 21.333 -17.334 45.666 -20.001 72.999
l-224 -65c-27.333 -8 -51 -12 -71 -12c-24.667 0 -45.334 8.66699 -62.001 26s-25 37.666 -25 60.999c0 24.667 8.16699 45.5 24.5 62.5s37.166 25.5 62.499 25.5c22.667 0 46 -3.66699 70 -11l225 -66c2.66699 30.667 9.33398 55 20.001 73l-227 56
c-29.333 7.33301 -51.666 15.333 -66.999 24c-28.667 17.333 -43 42.333 -43 75c0 15.333 3.66699 29.666 11 42.999c17.333 30 42 45 74 45c15.333 0 30 -4.33301 44 -13c27.333 -16 46.666 -30 57.999 -42l159 -173c12.667 20 31 38.333 55 55l-169 162
c-21.333 20 -36.333 38.333 -45 55c-8 14 -12 29 -12 45c0 33.333 14.333 58 43 74c14 8 29 12 45 12c32.667 0 57.334 -14.667 74.001 -44c12.667 -22.667 21.334 -44.667 26.001 -66l55 -228c21.333 11.333 45.666 17.666 72.999 18.999l-66 225
c-7.33301 24.667 -11 48 -11 70c0 24.667 8.33301 45.5 25 62.5s37 25.5 61 25.5c24.667 0 45.334 -8.33301 62.001 -25s25 -37.667 25 -63c0 -26 -3 -49.333 -9 -70l-69 -225c26.667 -1.33301 51.667 -7.66602 75 -18.999l55 227c7.33301 29.333 15.333 51.666 24 66.999
c17.333 28.667 42.666 43 75.999 43c16 0 30.333 -3.66699 43 -11c30.667 -17.333 46 -42 46 -74c0 -15.333 -4.33301 -30.333 -13 -45c-14 -24 -28.333 -43 -43 -57l-172 -160c20.667 -14 38.334 -32.333 53.001 -55l164 170c22 22.667 39.833 37.834 53.5 45.501
s28.167 11.5 43.5 11.5c32.667 0 57.667 -14.667 75 -44c8.66699 -15.333 13 -31 13 -47c0 -31.333 -14.667 -55 -44 -71c-24.667 -12.667 -46.667 -21.334 -66 -26.001l-229 -55c12.667 -23.333 19.334 -47.333 20.001 -72l223 62c34.667 10 58.667 15 72 15
c25.333 0 46.166 -8.83301 62.499 -26.5s24.5 -38.167 24.5 -61.5c0 -25.333 -8 -46.166 -24 -62.499s-37 -24.5 -63 -24.5s-49.333 3 -70 9zM614.002 445.002c-34.667 0 -64.667 -12.833 -90 -38.5s-38 -55.834 -38 -90.501c0 -35.333 12.667 -65.5 38 -90.5
s55.333 -37.5 90 -37.5s64.667 12.5 90 37.5s38 55.167 38 90.5c0 34.667 -12.667 64.834 -38 90.501s-55.333 38.5 -90 38.5zM614.002 379.002c17.333 0 32.166 -6.16699 44.499 -18.5s18.5 -27.166 18.5 -44.499s-6.16699 -32 -18.5 -44s-27.166 -18 -44.499 -18
s-32.166 6 -44.499 18s-18.5 26.667 -18.5 44s6.16699 32.166 18.5 44.499s27.166 18.5 44.499 18.5z" />
    <glyph glyph-name="guilsinglleft" unicode="&#x2039;" horiz-adv-x="1088" 
d="M410 323c0 -2 -1.33203 -18.6641 -3.99902 -49.9971c-2.66699 -24.667 -4 -51.334 -4 -80.001c0 -62.667 11 -118.334 33 -167.001l39 -66c1.33301 -2.66699 2 -4.66699 2 -6c0 -4 -2.66699 -6 -8 -6c-12 0 -23.667 4.33301 -35 13
c-46.667 34.667 -75.667 102.667 -87 204c-1.33301 11.333 -2 25 -2 41c0 50.667 4.33301 107 13 169c-29.333 -34.667 -77.333 -54.334 -144 -59.001c-50 -4 -95.333 8.33301 -136 37c-43.333 30 -66 68.667 -68 116c-2 46.667 14.333 86 49 118
c40.667 36.667 96.667 53.667 168 51c135.333 -5.33301 198.666 -73.333 189.999 -204c-2 -32.667 -4 -69.667 -6 -111zM202.001 375.003c29.333 0 60.002 6.99902 92.002 20.999c43.333 19.333 64 45.333 62 78c-2.66699 69.333 -49.334 104 -140.001 104
c-44 0 -79.833 -9.66699 -107.5 -29s-40.834 -44.666 -39.501 -75.999c0.666992 -31.333 16 -56 46 -74c25.333 -16 54.333 -24 87 -24zM979.003 538.002h-412c0 -80 2.66699 -145.333 8 -196h113c68.667 1.33301 111.667 5.33301 129 12c42.667 14.667 74.667 34.667 96 60
c24 28.667 46 70 66 124zM1049 538.002c-17.333 -55.333 -35.999 -97.668 -55.999 -127.001c-25.333 -38 -60.666 -68.333 -105.999 -91c73.333 -43.333 109.666 -98 108.999 -164c0 -42 -13 -77.333 -39 -106c-30.667 -33.333 -75 -50 -133 -50
c-94.667 0 -168.334 36.667 -221.001 110c-44.667 62 -71.667 145.667 -81 251c-4 44.667 -5.66699 103.667 -5 177h-24v61h24c4.66699 84.667 30.667 152.667 78 204c50 55.333 117 83 201 83c182.667 0 274 -13 274 -39c0 -20.667 -14.333 -31 -43 -31
c-6.66699 0 -17.667 0.5 -33 1.5s-27 1.83301 -35 2.5c-18 0 -44.667 1 -80 3c-29.333 1.33301 -48 2 -56 2c-93.333 -1.33301 -159.666 -29.333 -198.999 -84c-20.667 -29.333 -36.334 -76.666 -47.001 -141.999h530v-61h-58zM790.004 287
c-24 -3.33301 -92.666 -5 -205.999 -5c11.333 -43.333 26.333 -80.666 45 -111.999c45.333 -74.667 105.666 -111.334 180.999 -110.001c34 1.33301 61.667 10 83 26c24 18 34.667 43.667 32 77c-1.33301 28.667 -17 57.5 -47 86.5s-59.333 41.5 -88 37.5z" />
    <glyph glyph-name=".null" horiz-adv-x="0" 
 />
    <glyph glyph-name="nonmarkingreturn" horiz-adv-x="400" 
 />
    </font>
</defs>
</svg>
