<?xml version="1.0" standalone="no"?>
<!DOCTYPE svg PUBLIC "-//W3C//DTD SVG 1.1//EN" "http://www.w3.org/Graphics/SVG/1.1/DTD/svg11.dtd" >
<svg>
<metadata>
Created by FontForge 20090914 at Tue Sep 12 15:28:22 2017
 By www-data
Copyright of GurSys, Made by Narinder Singh Chadha, 94 Park Road, Sparkhill, Birmingham B11 4HB, TEL 021 777 1125 . Jagi 3/3/1993,11/3/1994
</metadata>
<defs>
<font id="Sukhmani" horiz-adv-x="0" >
  <font-face 
    font-family="Sukhmani"
    font-weight="400"
    font-stretch="normal"
    units-per-em="1000"
    panose-1="0 0 0 0 0 0 0 0 0 0"
    ascent="800"
    descent="-200"
    cap-height="754"
    bbox="-411 -309.008 1608 844"
    underline-thickness="20"
    underline-position="-123"
    unicode-range="U+0020-U+2122"
  />
<missing-glyph horiz-adv-x="820" 
d="M51 0v820h718v-820h-718zM718 51v718h-616v-718h616z" />
    <glyph glyph-name=".notdef" horiz-adv-x="820" 
d="M51 0v820h718v-820h-718zM718 51v718h-616v-718h616z" />
    <glyph glyph-name="space" unicode=" " horiz-adv-x="350" 
 />
    <glyph glyph-name="exclam" unicode="!" horiz-adv-x="249" 
d="M169 568c0 -30 -2.5 -74.166 -7.5 -132.499s-10.5 -111.5 -16.5 -159.5c-1.33301 -12 -5.66602 -69 -12.999 -171c-4.66699 -66 -11 -99 -19 -99c-7.33301 0 -13 33 -17 99c-6 101.333 -9.66699 159 -11 173c-8.66699 78.667 -14.834 140.167 -18.501 184.5
s-5.5 78.833 -5.5 103.5c0 16 5 28.333 15 37s22.333 13 37 13c15.333 0 28.5 -4.33301 39.5 -13s16.5 -20.334 16.5 -35.001zM162 -78.999c0 -14.667 -5.5 -26.833 -16.5 -36.5s-23.833 -14.5 -38.5 -14.5c-14 0 -25.833 5.5 -35.5 16.5s-14.5 23.5 -14.5 37.5
s5.5 25.833 16.5 35.5s23.5 14.5 37.5 14.5s26 -5.33301 36 -16s15 -23 15 -37z" />
    <glyph glyph-name="quotedbl" unicode="&#x22;" horiz-adv-x="414" 
d="M197 634c0 -34.667 -10.167 -66.5 -30.5 -95.5s-46.833 -48.5 -79.5 -58.5c13.333 8 25.5 22.333 36.5 43s16.5 40 16.5 58c0 10 -1.66699 17.5 -5 22.5s-9 7.5 -17 7.5c-4 6 -7 11 -9 15s-3 9.33301 -3 16c0 19.333 13.667 31.333 41 36c33.333 2 50 -12.667 50 -44z
M273 676c32 0 49.665 -14 52.998 -42c0 -34.667 -10.5 -66.5 -31.5 -95.5s-47.833 -48.5 -80.5 -58.5c12.667 7.33301 24.834 21.833 36.501 43.5s17.5 41.167 17.5 58.5c0 9.33301 -1.66699 16.5 -5 21.5s-9 7.5 -17 7.5c-4 6 -7 11 -9 15s-3 9.33301 -3 16
c0 8 3.83301 15.5 11.5 22.5s17.834 11.5 30.501 13.5z" />
    <glyph glyph-name="numbersign" unicode="#" horiz-adv-x="459" 
d="M464 447h-39.001v-435h-68v66c-24.667 -11.333 -46.667 -19.5 -66 -24.5s-37 -7.5 -53 -7.5c-28 0 -54 5.33301 -78 16s-54.333 32.667 -91 66l-21 19l14 22c6.66699 15.333 11.334 28.333 14.001 39c9.33301 32 14 64 14 96c0 55.333 -24.667 103 -74 143h-24v68h32
l23 -7c56 -38.667 92 -94.667 108 -168h202v175h107v-68zM79.999 44c0 -8.66699 -2.83203 -16.168 -8.49902 -22.501s-12.834 -9.5 -21.501 -9.5c-8 0 -15.167 2.83301 -21.5 8.5s-9.5 12.834 -9.5 21.501c0 8 2.83301 15.167 8.5 21.5s12.5 9.5 20.5 9.5
c8.66699 0 16.167 -2.83301 22.5 -8.5s9.5 -12.5 9.5 -20.5zM357 145.999v125h-197c0 -19.333 -1 -33.666 -3 -42.999s-9.66699 -31 -23 -65c23.333 -18.667 43 -32.167 59 -40.5s31.333 -12.5 46 -12.5c22 0 43 2.66699 63 8s38.333 14.666 55 27.999z" />
    <glyph glyph-name="dollar" unicode="$" horiz-adv-x="321" 
d="M309 201c0 -73.333 -25.998 -118.666 -77.998 -135.999c-8.66699 -2.66699 -21.334 -4.66699 -38.001 -6l24 -45h-49l-24 50c-12.667 2 -26.667 5.33301 -42 10c-29.333 8.66699 -46 12.334 -50 11.001c-4 -2.66699 -7.33301 -6.33398 -10 -11.001l-7 -12
c-5.33301 -6 -12 -9 -20 -9c-14.667 0 -30 8 -46 24s-23 29.667 -21 41s10.667 17 26 17c16.667 0 46.667 -7.33301 90 -22l81 -28l-1 159c-42.667 8.66699 -72.334 18.667 -89.001 30c-27.333 18.667 -41 48 -41 88c0 37.333 9.66699 66.666 29 87.999
c22 24 55.667 36 101 36l-20 51h49l20 -52c22 -2.66699 44.667 -7.5 68 -14.5s37.166 -13.167 41.499 -18.5s8 -11.5 11 -18.5s4.5 -12.833 4.5 -17.5c0 -12.667 -5.5 -23.5 -16.5 -32.5s-22.167 -13.5 -33.5 -13.5c-7.33301 0 -13 3.16699 -17 9.5s-7.66699 19.5 -11 39.5
s-18.666 34.667 -45.999 44l-1 -146c34 -8.66699 61.833 -23.667 83.5 -45s32.5 -45 32.5 -71zM144.002 326l-0.000976562 139.998c-25.333 0 -44.666 -4 -57.999 -12c-18 -11.333 -27 -29.666 -27 -54.999c0 -21.333 8 -37.666 24 -48.999
c12.667 -9.33301 33 -17.333 61 -24zM258.001 167.998c-4 20.667 -15.998 38.333 -35.998 53c-6.66699 4.66699 -16.334 10 -29.001 16v-157c13.333 -3.33301 27.666 3.16699 42.999 19.5s23 34.833 23 55.5c0 6 -0.333008 10.333 -1 13z" />
    <glyph glyph-name="percent" unicode="%" horiz-adv-x="603" 
d="M189 531c21.333 0 40.166 -7.16602 56.499 -21.499s24.5 -31.833 24.5 -52.5c0 -22.667 -7.16699 -41.834 -21.5 -57.501s-32.166 -23.5 -53.499 -23.5c-22 0 -41 7 -57 21s-24 31.667 -24 53c0 22 7 41 21 57s32 24 54 24zM183 491.001
c-18 -4.66699 -27.001 -15.667 -27.001 -33c0 -10 3.83301 -18.5 11.5 -25.5s16.167 -10.5 25.5 -10.5c10 0 17.833 4.16699 23.5 12.5s7.83398 17.5 6.50098 27.5c-1.33301 9.33301 -5.83301 17 -13.5 23s-16.5 8 -26.5 6zM484.999 595.001l-410 -576h66l9 4l403 574z
M446.999 223.001c22.667 0 42.333 -6.5 59 -19.5s25 -30.167 25 -51.5s-7 -40 -21 -56s-31.667 -24 -53 -24c-22 0 -41 7 -57 21s-24 31.667 -24 53c0 22 6.33301 40.333 19 55s30 22 52 22zM443.998 182.001c-8.66699 -1.33301 -15.167 -5.5 -19.5 -12.5
s-6.5 -15.5 -6.5 -25.5s4.5 -18.333 13.5 -25s18.833 -9 29.5 -7c9.33301 0.666992 16.666 5 21.999 13s7.33301 17 6 27c-1.33301 9.33301 -6.66602 17 -15.999 23s-19 8.33301 -29 7z" />
    <glyph glyph-name="ampersand" unicode="&#x26;" horiz-adv-x="422" 
d="M277 157l17.001 16.999c12 12 22.333 21.333 31 28c17.333 13.333 31.666 20 42.999 20c9.33301 0 16.5 -4.83301 21.5 -14.5s7.5 -21.834 7.5 -36.501c0 -12.667 -1.66699 -26.334 -5 -41.001l-44 10c4 12 6 18.333 6 19c-1.33301 -0.666992 -3.33301 -1 -6 -1
c-6.66699 0 -11.334 -1.83301 -14.001 -5.5l-8 -10.5l-17 -16c35.333 -34.667 59.666 -59 72.999 -73c18 -19.333 35 -38.666 51 -57.999l-34 -28c-21.333 26 -42.666 50 -63.999 72l-58 57l-40 -36c-22.667 -21.333 -38 -34.666 -46 -39.999
c-17.333 -11.333 -32.333 -17.666 -45 -18.999s-23.667 -2 -33 -2c-29.333 0 -53 6.33301 -71 19c-21.333 14.667 -32 37.334 -32 68.001c0 31.333 9.33301 60.333 28 87c8 11.333 30 35 66 71l22 23l-42 50l-28 35c-9.33301 14.667 -14 29 -14 43
c0 24.667 13.833 44.667 41.5 60s58.5 23 92.5 23c20.667 0 38.834 -2.83301 54.501 -8.5s27.167 -14.834 34.5 -27.501c5.33301 -7.33301 9.83301 -17 13.5 -29s5.5 -24.667 5.5 -38c0 -10 -2 -19.667 -6 -29c-6 -15.333 -14 -27.333 -24 -36
c-5.33301 -4.66699 -18 -13 -38 -25l-27 -20l32 -37zM157.001 233.999l-21 -22.001c-34 -34 -52.333 -52.667 -55 -56c-17.333 -22 -26 -45.333 -26 -70c0 -18.667 8.33301 -31 25 -37c9.33301 -3.33301 26 -5 50 -5c16 2 30 7.33301 42 16
c1.33301 0.666992 13 11.334 35 32.001l37 35c-10 10 -19.333 21 -28 33l-29 39zM156.001 299.998c6 5.33301 11.501 10 16.501 14s11.5 8.33301 19.5 13l25.5 15c9 5.33301 15.5 13 19.5 23c2 4 3 8.66699 3 14c0 7.33301 -1 13.666 -3 18.999s-5.16699 11.5 -9.5 18.5
s-11.833 12.5 -22.5 16.5s-22.334 6 -35.001 6c-22 0 -42 -4.5 -60 -13.5s-27 -20.5 -27 -34.5c0 -7.33301 2 -13.666 6 -18.999s16 -18.333 36 -39c4.66699 -4.66699 15 -15.667 31 -33z" />
    <glyph glyph-name="quotesingle" unicode="'" horiz-adv-x="597" 
d="M611 447l-273 0.00195312v-112c58.667 -9.33301 104.667 -26.333 138 -51c42 -30.667 63 -73.334 63 -128.001c0 -10 -1 -21.667 -3 -35c-5.33301 -38.667 -24 -66.667 -56 -84c-27.333 -14.667 -65.666 -22 -114.999 -22v69h19c26 0 44.667 2.33301 56 7
c16 6.66699 25 17.667 27 33s3 25.333 3 30c0 40.667 -19.333 71 -58 91c-30 15.333 -66.333 23 -109 23c-42 0 -78 -7.66699 -108 -23c-39.333 -20 -59 -50.667 -59 -92c0 -4 1 -13 3 -27s9 -24.5 21 -31.5s39.667 -10.5 83 -10.5v-69c-50.667 0 -89.334 7 -116.001 21
c-32.667 17.333 -51.667 45.666 -57 84.999c-2 13.333 -3 25.333 -3 36c0 52.667 21.333 94.667 64 126c34 24.667 80 42 138 52v112h-272v68h614v-68zM297 651.002c-24 0 -42 -5.66895 -54 -17.002s-18 -26 -18 -44c0 -13.333 3 -26 9 -38
c-9.33301 11.333 -16.166 22.333 -20.499 33s-6.5 21.334 -6.5 32.001c0 22.667 9.66699 41.667 29 57s40.666 23 63.999 23c20.667 0 40.667 -6.33301 60 -19c23.333 -15.333 35 -34.666 35 -57.999c0 -10 -2.5 -20.5 -7.5 -31.5s-13.167 -23.167 -24.5 -36.5
c4.66699 6 8.16699 12.333 10.5 19s3.5 14.667 3.5 24c0 16 -5.33301 28.667 -16 38c-14 12 -35.333 18 -64 18zM461 -45v-43c-52 -11.333 -97.333 -17 -136 -17c-28 0 -59.667 2.66699 -95 8c-9.33301 1.33301 -33 5.33301 -71 12v40c31.333 -6 60 -10.5 86 -13.5
s50.333 -4.5 73 -4.5c40 0 87.667 6 143 18zM461 -144l-0.000976562 -41c-52.667 -11.333 -99 -17 -139 -17c-17.333 0 -35.666 1 -54.999 3s-55.333 7.33301 -108 16v39c31.333 -6 60 -10.5 86 -13.5s50.333 -4.5 73 -4.5c40 0 87.667 6 143 18z" />
    <glyph glyph-name="parenleft" unicode="(" horiz-adv-x="278" 
d="M217 -35c-65.333 61.333 -98.667 92.668 -100 94.001c-42.667 47.333 -64 117 -64 209c0 63.333 8.33301 114.666 25 153.999c13.333 31.333 48 86 104 164l-63 -201c-8 -36 -12 -75.667 -12 -119c0 -66 8.66699 -118 26 -156z" />
    <glyph glyph-name="parenright" unicode=")" horiz-adv-x="233" 
d="M57 564c65.333 -61.333 98.667 -92.668 100 -94.001c42.667 -47.333 64 -116.666 64 -207.999c0 -64 -8.33301 -115.333 -25 -154c-13.333 -30 -48.333 -85 -105 -165l65 203c8 36 12 76 12 120c0 74.667 -13.667 135.667 -41 183z" />
    <glyph glyph-name="asterisk" unicode="*" horiz-adv-x="331" 
d="M83 73l26 113l-105 -30l109 83l-109 84l109 -25l-26 110l71 -110l85 112l-28 -112l105 25l-105 -84l108 -83l-106 26l26 -113l-85 117z" />
    <glyph glyph-name="plus" unicode="+" horiz-adv-x="436" 
d="M231 432v-156h150v-53h-150v-150h-45v150h-158v53h158v156h45z" />
    <glyph glyph-name="comma" unicode="," horiz-adv-x="188" 
d="M90 141c39.333 0 59 -19.3301 59 -57.9971c0 -28.667 -8 -59 -24 -91c-24.667 -50 -63 -83 -115 -99c16 10 31.167 28.167 45.5 54.5s21.5 50.166 21.5 71.499c0 11.333 -2.33301 20.666 -7 27.999c-2.66699 6 -9 9 -19 9c-5.33301 6 -9.5 12.167 -12.5 18.5
s-4.5 13.166 -4.5 20.499c0 26.667 17.333 42 52 46h4z" />
    <glyph glyph-name="hyphen" unicode="-" horiz-adv-x="541" 
d="M472 263v-50h-387v50h387z" />
    <glyph glyph-name="period" unicode="." horiz-adv-x="150" 
d="M108 481v-479h-60v479h60z" />
    <glyph glyph-name="slash" unicode="/" horiz-adv-x="551" 
d="M501 675l-340 -677h-98l342 678z" />
    <glyph glyph-name="zero" unicode="0" horiz-adv-x="440" 
d="M413 246c0 -68 -15.666 -124.668 -46.999 -170.001c-34.667 -50.667 -81.667 -76 -141 -76c-58 0 -104 25.333 -138 76c-30.667 46 -46 102.667 -46 170c0 64 16 118.333 48 163c35.333 48.667 81.666 73 138.999 73c56 0 101.333 -24.333 136 -73
c32.667 -45.333 49 -99.666 49 -162.999zM305.001 146.999l-0.00195312 206.004c0 21.333 -7.33301 39.666 -22 54.999s-33 23 -55 23c-21.333 0 -39.666 -8.33301 -54.999 -25s-23 -36.334 -23 -59.001v-214c0 -24.667 7.33301 -46.334 22 -65.001s33.334 -28 56.001 -28
c24 0 43.333 11.333 58 34c12.667 19.333 19 43.666 19 72.999z" />
    <glyph glyph-name="one" unicode="1" horiz-adv-x="312" 
d="M286 7c0 -5.33301 -4.66699 -7.99805 -14 -7.99805c-6.66699 0 -22 2.66699 -46 8s-42 8 -54 8c-11.333 0 -28.666 -2.66699 -51.999 -8s-38 -8 -44 -8c-8 0 -12 2.33301 -12 7c0 8 9.5 13.5 28.5 16.5s31 8 36 15s8.66699 12.667 11 17s3.5 9.83301 3.5 16.5v280
c0 17.333 -3 31.166 -9 41.499s-16.333 15.5 -31 15.5c-4.66699 0 -15.5 -2.5 -32.5 -7.5s-28.5 -7.5 -34.5 -7.5c-11.333 0 -17 4.66699 -17 14s14.333 19.666 43 30.999l46 17c34.667 12 60 20.5 76 25.5s29.333 7.5 40 7.5c0 -2 0.333008 -4 1 -6
c-2.66699 -6 -4 -9.66699 -4 -11v-400c0 -13.333 1.66699 -23.833 5 -31.5s14.166 -13 32.499 -16s27.5 -8.5 27.5 -16.5z" />
    <glyph glyph-name="two" unicode="2" horiz-adv-x="422" 
d="M396 114c4.66699 0 7.00098 -2.33398 7.00098 -7.00098s-2.33301 -13 -7 -25c-6.66699 -16 -10.334 -25.667 -11.001 -29l-19 -53h-328v50c48.667 21.333 92.334 49.333 131.001 84c65.333 58.667 98 123.667 98 195c0 55.333 -12 91.333 -36 108
c-13.333 9.33301 -39 14 -77 14c-24.667 0 -43.834 -5.33301 -57.501 -16s-29.5 -31 -47.5 -61c13.333 2.66699 24.5 5 33.5 7s15.833 3 20.5 3c17.333 0 32 -6.33301 44 -19s18 -28 18 -46c0 -14.667 -6.5 -26.5 -19.5 -35.5s-28.167 -13.5 -45.5 -13.5
c-22 0 -39.667 9.33301 -53 28s-20 40.667 -20 66c0 39.333 14.667 70.5 44 93.5s68.333 34.5 117 34.5c63.333 0 109.333 -13.333 138 -40c25.333 -24 38 -59.333 38 -106c0 -41.333 -17.333 -83.666 -52 -126.999c-25.333 -32 -58 -62.667 -98 -92
c-31.333 -23.333 -49.333 -35 -54 -35c-3.33301 -4 -5 -7.66699 -5 -11c0 -6.66699 5.33301 -10 16 -10h184c7.33301 0 14 7.16699 20 21.5s13 21.5 21 21.5z" />
    <glyph glyph-name="three" unicode="3" horiz-adv-x="406" 
d="M362 129c0 -42 -20.666 -74.6631 -61.999 -97.9961c-36.667 -20.667 -80.334 -31 -131.001 -31c-40.667 0 -74.667 7.66699 -102 23c-31.333 17.333 -47 41.666 -47 72.999c0 16 5.16699 30.167 15.5 42.5s23.5 18.5 39.5 18.5c18 0 33.833 -4.33301 47.5 -13
s20.5 -21.334 20.5 -38.001c0 -11.333 -3.66699 -21.333 -11 -30c-10 -11.333 -25.667 -19.333 -47 -24c14 -6.66699 25.833 -11.167 35.5 -13.5s19.834 -3.5 30.501 -3.5c37.333 0 64.333 5.66699 81 17c22.667 15.333 34 43 34 83c0 35.333 -10.667 60.333 -32 75
c-15.333 10.667 -36 16 -62 16c-8.66699 0 -16 -0.333008 -22 -1s-11.333 -1.33398 -16 -2.00098c-12 0 -18 5.33301 -18 16c0 4.66699 2.66699 8.66699 8 12c1.33301 0.666992 4.33301 2 9 4c2 0 4.66699 -0.166992 8 -0.5s7.66602 -0.5 12.999 -0.5
c28.667 0 52 5.66699 70 17c28 18 42 48 42 90c0 26 -8.5 49.833 -25.5 71.5s-37.5 32.5 -61.5 32.5c-18.667 0 -35.334 -4.66699 -50.001 -14c-14 -10.667 -26.333 -19.667 -37 -27c26.667 -5.33301 44.5 -11.666 53.5 -18.999s13.5 -19 13.5 -35
c0 -14.667 -5.33301 -26.334 -16 -35.001s-24.667 -13 -42 -13c-13.333 0 -23.666 5.66699 -30.999 17s-11 25.333 -11 42c0 30 13 55.333 39 76s57 31 93 31c43.333 0 81.166 -11.5 113.499 -34.5s48.5 -53.833 48.5 -92.5c0 -18.667 -10 -38.667 -30 -60
c-15.333 -16 -37.666 -34.667 -66.999 -56c33.333 -12.667 58 -26.334 74 -41.001c21.333 -20 32 -45 32 -75z" />
    <glyph glyph-name="four" unicode="4" horiz-adv-x="408" 
d="M386 126l-81 0.00390625v-65c0 -12 1.66699 -21.833 5 -29.5s13.5 -11.5 30.5 -11.5s25.5 -4 25.5 -12c0 -6.66699 -5.66699 -10 -17 -10c-7.33301 0 -18.333 1.33301 -33 4c-33.333 6 -54.333 9 -63 9s-20.667 -1.33301 -36 -4c-34 -6 -52.667 -9 -56 -9
c-10 0 -15 3 -15 9c0 8 9 12 27 12s29.167 3.16699 33.5 9.5s7.5 11.666 9.5 15.999s3 9.83301 3 16.5v65h-162h-21c-10 0 -16 1 -18 3c-2.66699 3.33301 -2.33398 7.16602 0.999023 11.499l10 13.5l101 139c14.667 20 24.334 40.333 29.001 61
c3.33301 25.333 6.5 47 9.5 65s9.5 34 19.5 48s20 21 30 21c16 0 28.167 -2.83301 36.5 -8.5s12.5 -12.834 12.5 -21.501c0 -8 -1.16699 -14.833 -3.5 -20.5s-9.83301 -17.834 -22.5 -36.501l-161 -236h139v158h86v-158h81v-39z" />
    <glyph glyph-name="five" unicode="5" horiz-adv-x="394" 
d="M352 518c3.33301 -0.666992 4.50098 -4.49902 3.50098 -11.499s-1.5 -11.5 -1.5 -13.5c0 -10.667 -9 -28.667 -27 -54c-22.667 -32 -45.667 -48 -69 -48h-136l-11 -96c16.667 4 35.5 8 56.5 12s39.167 6 54.5 6c38.667 0 68.334 -9.33301 89.001 -28
c26 -23.333 39 -62 39 -116c0 -53.333 -16.833 -94.833 -50.5 -124.5s-84.5 -44.5 -152.5 -44.5c-31.333 0 -59.333 8.66699 -84 26c-27.333 19.333 -41 43.666 -41 72.999c0 16.667 6.16699 30.5 18.5 41.5s26.833 16.5 43.5 16.5c14 0 25.667 -4.66699 35 -14
s14 -23.666 14 -42.999c0 -14.667 -6.33301 -24.834 -19 -30.501s-19.334 -8.16699 -20.001 -7.5c18.667 -12 39 -18 61 -18c28 0 51 8.66699 69 26c20.667 20 31 49.333 31 88c0 45.333 -7.33301 77.666 -22 96.999c-12 16 -28.333 24 -49 24
c-10.667 0 -21 -1.66699 -31 -5c-4 -1.33301 -10 -4.16602 -18 -8.49902s-14 -7.5 -18 -9.5s-8.66699 -4.66699 -14 -8h-36l24 230l21 8c9.33301 0 18.333 -2 27 -6c22.667 -10.667 51 -16 85 -16h33c15.333 0 25.666 0.666992 30.999 2s14 6 26 14
c4.66699 3.33301 11 10.5 19 21.5s14.333 16.5 19 16.5z" />
    <glyph glyph-name="six" unicode="6" horiz-adv-x="420" 
d="M396 167c0 -48 -18.168 -87.835 -54.501 -119.502s-79.5 -47.5 -129.5 -47.5c-57.333 0 -104.333 24.333 -141 73c-34 45.333 -51 99.333 -51 162c0 68 21 127.167 63 177.5s95.333 75.5 160 75.5c28 0 50 -2.5 66 -7.5s27.333 -16.833 34 -35.5
c2 -7.33301 3 -13.666 3 -18.999c0 -14 -5.16699 -25.167 -15.5 -33.5s-21.833 -12.5 -34.5 -12.5c-14.667 0 -25.5 4.5 -32.5 13.5s-10.5 19.167 -10.5 30.5c0 12.667 4.66699 24.334 14 35.001h-23c-13.333 0 -26.333 -1.16699 -39 -3.5s-26.667 -7.5 -42 -15.5
c-11.333 -10 -20.666 -21.5 -27.999 -34.5s-11 -24.833 -11 -35.5v-88c18 16 35.5 26.5 52.5 31.5s36.5 7.5 58.5 7.5c44 0 81.833 -14.833 113.5 -44.5s47.5 -66.167 47.5 -109.5zM303.999 110.998l0.000976562 87.999c0 24 -9 43.167 -27 57.5s-40.333 21.5 -67 21.5
c-22.667 0 -42.334 -6 -59.001 -18s-25 -28.333 -25 -49v-102c0 -22.667 7.66699 -40 23 -52s35.333 -18 60 -18c25.333 0 47.5 6.33301 66.5 19s28.5 30.334 28.5 53.001z" />
    <glyph glyph-name="seven" unicode="7" horiz-adv-x="378" 
d="M357 481c5.33301 -4 3.66895 -15.333 -4.99805 -34l-14 -29c-11.333 -23.333 -35.333 -63 -72 -119c-28.667 -44 -49.334 -85.333 -62.001 -124c-8 -24.667 -15.667 -60 -23 -106s-12 -69 -14 -69h-109l20 59c17.333 32.667 37.666 66.334 60.999 101.001l128 219h-207
c-5.33301 0 -10.833 -5.83301 -16.5 -17.5s-11.5 -16.5 -17.5 -14.5c-4.66699 2 -7 6 -7 12s1.66699 14 5 24c10.667 30.667 16.334 49.5 17.001 56.5s3.66699 12.667 9 17s12.666 6.5 21.999 6.5h13h198c14 0 29 3.66699 45 11s25.667 9.66602 29 6.99902z" />
    <glyph glyph-name="eight" unicode="8" horiz-adv-x="429" 
d="M403 147c0 -45.333 -15 -81.165 -45 -107.498s-69 -39.5 -117 -39.5c-60.667 0 -111 9.66699 -151 29c-47.333 22.667 -71 56 -71 100c0 18 12.667 39.333 38 64c19.333 18.667 42.333 36 69 52l-53 51c-19.333 21.333 -29 40.666 -29 57.999
c0 39.333 16.833 72.166 50.5 98.499s72.167 39.5 115.5 39.5c42.667 0 80 -9 112 -27c38.667 -22 58 -51.333 58 -88c0 -20 -8.66699 -39.333 -26 -58c-14 -14.667 -33.333 -29.334 -58 -44.001c36 -22.667 60 -40 72 -52c23.333 -23.333 35 -48.666 35 -75.999z
M319 373.001c-4 28.667 -16.333 50.832 -37 66.499s-44.334 23.5 -71.001 23.5c-22.667 0 -42.5 -5.33301 -59.5 -16s-28.833 -26.667 -35.5 -48c-2.66699 -7.33301 -4 -14.666 -4 -21.999c0 -24.667 17 -44.667 51 -60c22.667 -10 51.334 -17.333 86.001 -22l43 35
c20 18 29 32.333 27 43zM326 101.999c0.666992 2.66699 0.999023 6.66699 0.999023 12c0 29.333 -21.667 54.333 -65 75c-25.333 12 -56 21.667 -92 29c-29.333 -17.333 -45.666 -27.333 -48.999 -30c-24 -20 -36 -43.667 -36 -71c0 -18 14.833 -33.167 44.5 -45.5
s62.167 -18.5 97.5 -18.5c26.667 0 49.167 4 67.5 12s28.833 20.333 31.5 37z" />
    <glyph glyph-name="nine" unicode="9" horiz-adv-x="420" 
d="M395 246c0 -66.667 -22.333 -124.333 -67 -173s-100 -73 -166 -73c-34 0 -61.333 5 -82 15c-25.333 12 -38 30.667 -38 56c0 15.333 5.66699 28.666 17 39.999s25.333 17 42 17c14 0 26.167 -4.5 36.5 -13.5s15.5 -19.833 15.5 -32.5c0 -8.66699 -2 -16.334 -6 -23.001
c-6 -10 -15.333 -16.667 -28 -20c13.333 -4 27 -6 41 -6c45.333 0 83.333 16 114 48c12 12.667 18.667 30.834 20 54.501s2 47.834 2 72.501c-26 -14 -48.833 -24.833 -68.5 -32.5s-37.167 -11.5 -52.5 -11.5c-42 0 -78.167 14.5 -108.5 43.5s-45.5 64.5 -45.5 106.5
c0 48.667 18.167 90.167 54.5 124.5s79.833 51.5 130.5 51.5c58 0 104.667 -25.667 140 -77c32.667 -47.333 49 -103 49 -167zM296 286.001l0.999023 105.999c0 20 -13.333 36.667 -40 50c-20.667 10 -38.667 15 -54 15c-17.333 0 -34.666 -4.33301 -51.999 -13
c-22.667 -11.333 -34 -26.666 -34 -45.999v-123c0 -21.333 7.83301 -38.5 23.5 -51.5s34.167 -19.5 55.5 -19.5c16.667 0 36 7 58 21c28 18 42 38.333 42 61z" />
    <glyph glyph-name="colon" unicode=":" horiz-adv-x="189" 
d="M91 144c10.667 0 20.332 -3.99902 28.999 -11.999s13.334 -17.667 14.001 -29c0 -25.333 -13 -39.333 -39 -42c-11.333 0 -20.833 3.5 -28.5 10.5s-12.167 16.167 -13.5 27.5c0 11.333 3.66699 21.666 11 30.999s16.333 14 27 14zM88.998 387.001
c11.333 1.33301 21.498 -1.83301 30.498 -9.5s13.5 -16.5 13.5 -26.5c0 -11.333 -3.66699 -21.666 -11 -30.999s-15.666 -14 -24.999 -14c-12 0 -22.167 3.66699 -30.5 11s-13.166 16.666 -14.499 27.999c0 12 3.33301 22 10 30s15.667 12 27 12z" />
    <glyph glyph-name="semicolon" unicode=";" horiz-adv-x="271" 
d="M129 104c18 -10.667 27 -26.335 27 -47.002c0 -4 -0.5 -9.33301 -1.5 -16s-1.83301 -11.667 -2.5 -15c-6 -26 -18.667 -52.333 -38 -79c-29.333 -40.667 -63.333 -61 -102 -61c19.333 8 38 23 56 45c20.667 26 29.667 50 27 72l-4 2c-4.66699 -2 -8.66699 -3 -12 -3
c-8 0 -15 5.33301 -21 16c-9.33301 9.33301 -14 20 -14 32c0 8.66699 1.5 16.334 4.5 23.001s6.83301 12.334 11.5 17.001c10.667 12.667 24.667 19 42 19c6.66699 0 13.667 -1 21 -3zM107 376.999c12.667 0 24.832 -5.16602 36.499 -15.499s17.5 -22.5 17.5 -36.5
c1.33301 -14 -4.33398 -26.667 -17.001 -38s-25.667 -17 -39 -17c-12 0 -22.833 5.16699 -32.5 15.5s-14.5 22.833 -14.5 37.5c-1.33301 13.333 3.33398 25.666 14.001 36.999s22.334 17 35.001 17z" />
    <glyph glyph-name="less" unicode="&#x3c;" horiz-adv-x="376" 
d="M284 481l-135 -235l133 -244h-56l-131 239l131 240h58z" />
    <glyph glyph-name="equal" unicode="=" horiz-adv-x="566" 
d="M480 311h-398v56l3 3h395v-59zM480 105h-398v53l3 3h395v-56z" />
    <glyph glyph-name="greater" unicode="&#x3e;" horiz-adv-x="369" 
d="M272 241l-131 -239h-54l134 244l-138 235h58z" />
    <glyph glyph-name="question" unicode="?" horiz-adv-x="514" 
d="M423 375c0 -30.667 -8.33105 -59.334 -24.998 -86.001c-6.66699 -10.667 -40.667 -46.667 -102 -108c-8 -8.66699 -13.5 -18 -16.5 -28s-4.5 -20.667 -4.5 -32v-24v-76h-64v130c0 20.667 0.666992 33 2 37s8.66602 12.667 21.999 26l91 75c18 19.333 27 39.333 27 60
c0.666992 8 1 13.333 1 16c0 26.667 -11.667 46 -35 58c-16 8 -36.667 12 -62 12c-22 0 -41.167 -5 -57.5 -15s-24.5 -23 -24.5 -39c0 -6.66699 1.66699 -13.834 5 -21.501s14 -11.5 32 -11.5c5.33301 0 13.666 0.666992 24.999 2s18.666 2 21.999 2c8 0 11 -2.66699 9 -8
c-7.33301 -20 -16.166 -34.5 -26.499 -43.5s-24.5 -13.5 -42.5 -13.5c-32 0 -54 10.667 -66 32c-7.33301 12.667 -11 31.334 -11 56.001c0 32.667 14.5 60.834 43.5 84.501s61.167 35.5 96.5 35.5c46 0 84.333 -10.5 115 -31.5s46 -50.5 46 -88.5zM282.002 -59
c0 -10 -4.00098 -18.665 -12.001 -25.998s-17.667 -11 -29 -11c-9.33301 0 -17.666 4 -24.999 12s-11 17.333 -11 28c0 9.33301 4 17.666 12 24.999s17.333 11 28 11c10 0 18.667 -3.83301 26 -11.5s11 -16.834 11 -27.501z" />
    <glyph glyph-name="at" unicode="@" horiz-adv-x="1026" 
d="M1551 692l-5.99902 -8c-32.667 24.667 -71.167 43.167 -115.5 55.5s-90.833 18.5 -139.5 18.5c-76.667 0 -150.5 -12.833 -221.5 -38.5s-121.167 -57.5 -150.5 -95.5c-77.333 49.333 -154.666 74 -231.999 74c-56.667 0 -105 -14.833 -145 -44.5
s-67.333 -74.167 -82 -133.5h465c2 -9.33301 3 -18.666 3 -27.999c0 -45.333 -21.167 -96 -63.5 -152s-83.5 -91 -123.5 -105c26 -26.667 45.167 -51.167 57.5 -73.5s18.5 -42.833 18.5 -61.5c0 -34 -24.667 -61 -74 -81c-38.667 -15.333 -77.334 -23 -116.001 -23
c-36 0 -67.333 7.16699 -94 21.5s-47 36.5 -61 66.5c-37.333 79.333 -63.666 158.666 -78.999 237.999c-11.333 58 -17 120.333 -17 187c0 55.333 25 110 75 164c60 64.667 135.333 97 226 97c36 0 73.167 -5.33301 111.5 -16s79.5 -28 123.5 -52
c41.333 34 90.166 61.833 146.499 83.5s113.166 32.5 170.499 32.5c52.667 0 104 -9 154 -27c58 -20.667 114.333 -53.667 169 -99zM467.001 -9c-60 15.333 -110.665 54.002 -151.998 116.002c-34 50.667 -60.667 114 -80 190c-3.33301 -2.66699 -7.83301 -5.66699 -13.5 -9
s-9.83398 -5.66602 -12.501 -6.99902c-14 -5.33301 -27.333 -8 -40 -8c-26.667 0 -51 8.33301 -73 25s-37.667 38.667 -47 66c-4 12 -6 24.333 -6 37c0 27.333 8.16699 52.166 24.5 74.499s37.833 37.833 64.5 46.5c13.333 4 26.666 6 39.999 6c27.333 0 52.333 -8 75 -24
s38 -37.667 46 -65c2.66699 -10.667 4 -21.334 4 -32.001c0 -8.66699 -1 -17.667 -3 -27c8 -71.333 22.667 -134.333 44 -189c28.667 -72.667 71.667 -139.334 129 -200.001zM848.003 454.002l-395.001 -0.000976562c0 -24 1.33301 -46.333 4 -67
s8.66699 -53.334 18 -98.001c30.667 0 73.334 0.333008 128.001 1s90.334 1 107.001 1c31.333 16.667 60.166 40.834 86.499 72.501s43.5 61.834 51.5 90.501zM725.002 102.001c5.33301 4.66699 7.99805 11.001 7.99805 19.001c0 14 -8 30.333 -24 49s-38 37 -66 55l3 4v-5
l-151 1c8.66699 -30.667 19.334 -57.667 32.001 -81c22.667 -42 47.334 -65 74.001 -69c39.333 0 67.5 2.16699 84.5 6.5s30.167 11.166 39.5 20.499zM219 426.002c-3.33301 8 -8.5 13.833 -15.5 17.5s-15.167 5.5 -24.5 5.5c-6 0 -13.167 -0.5 -21.5 -1.5
s-17.5 -6.5 -27.5 -16.5s-15 -21 -15 -33c0 -2.66699 0.666992 -6.66699 2 -12c6 -16 20 -24 42 -24c14 0 25.667 3.16699 35 9.5s16.333 12.833 21 19.5s7 14 7 22c0 4.66699 -1 9 -3 13z" />
    <glyph glyph-name="A" unicode="A" horiz-adv-x="229" 
d="M237 447h-77v-234h-72v234h-93v68h242v-68z" />
    <glyph glyph-name="B" unicode="B" horiz-adv-x="459" 
d="M464 447h-51.001v-435h-69v66c-21.333 -10 -43.833 -17.833 -67.5 -23.5s-47.5 -8.5 -71.5 -8.5c-30.667 0 -59 5.33301 -85 16c-29.333 16 -51.666 30 -66.999 42c-18.667 14.667 -33.667 31.334 -45 50.001c16.667 30.667 29.667 52 39 64
c21.333 27.333 49 50.333 83 69c-9.33301 5.33301 -16 9.66602 -20 12.999c-7.33301 5.33301 -13.333 10.333 -18 15c-27.333 18.667 -47.333 39.167 -60 61.5s-19 45.833 -19 70.5h-21v68h472v-68zM344.999 326l-0.000976562 121.001h-263c0 -22.667 5 -39.334 15 -50.001
c10.667 -9.33301 19.334 -17.333 26.001 -24l10 -8c18.667 -16 44 -27 76 -33c22 -4 52.667 -6 92 -6h44zM344.998 148.001v115.001h-95c-29.333 0 -53.666 -5.33301 -72.999 -16c-27.333 -14.667 -58.333 -43.334 -93 -86.001c15.333 -12 36.333 -24.667 63 -38l17 -7.5
c6.66699 -3 14.667 -5.16699 24 -6.5s18.666 -2 27.999 -2c23.333 0 46.5 3.66699 69.5 11s42.833 17.333 59.5 30z" />
    <glyph glyph-name="C" unicode="C" horiz-adv-x="606" 
d="M610 447l-112 -0.000976562v-368l-1 -8c-2.66699 -22 -14.667 -38.5 -36 -49.5s-48 -16.5 -80 -16.5c-43.333 0 -87.666 8.5 -132.999 25.5s-77 38.167 -95 63.5c-13.333 18.667 -25 39.834 -35 63.501s-17 46.167 -21 67.5h-68c0 42 12.667 75.333 38 100
s57.666 37 96.999 37v-68h266v153h-435v68h615v-68zM430 225.999l-266 0.00195312c5.33301 -17.333 11.5 -34 18.5 -50s14.5 -29 22.5 -39c18 -21.333 41.667 -37.333 71 -48s60.333 -16 93 -16c14.667 0 26.667 0.666992 36 2s15.833 4.66602 19.5 9.99902
s5.5 10.666 5.5 15.999v125z" />
    <glyph glyph-name="D" unicode="D" horiz-adv-x="596" 
d="M602 447l-46.999 -0.00195312v-222h-392c0 -58 9.16699 -96.167 27.5 -114.5s38.833 -32.333 61.5 -42s45.667 -14.5 69 -14.5c30.667 0 61.667 7 93 21s62 33.667 92 59l4 4c7.33301 6 12.666 6.66699 15.999 2c4.66699 -6.66699 0.666992 -15.334 -12 -26.001l-10 -7
c-28 -29.333 -60.5 -52.833 -97.5 -70.5s-75.833 -26.5 -116.5 -26.5c-24.667 0 -48.834 3.83301 -72.501 11.5s-47.167 19.834 -70.5 36.501c-18 16.667 -31.5 39.334 -40.5 68.001s-13.5 61.667 -13.5 99h-68c0 51.333 18 88 54 110
c16.667 10.667 44.334 19.334 83.001 26.001v-68h327v154h-501v68h614v-68z" />
    <glyph glyph-name="E" unicode="E" horiz-adv-x="203" 
d="M311 578l-63 -0.00195312v42c0 24.667 -5.66699 43.667 -17 57s-24 20 -38 20c-26 0 -44.667 -10.667 -56 -32s-17 -49.666 -17 -84.999v-65h98v-68h-94v-435h-65v435h-68v68h66v66c0 52.667 8 92.334 24 119.001c22 36 60 54 114 54c34 0 61.833 -12.333 83.5 -37
s32.5 -61 32.5 -109v-30z" />
    <glyph glyph-name="F" unicode="F" horiz-adv-x="497" 
d="M505 447h-60.001v-139h-263c-29.333 0 -52.166 -7.5 -68.499 -22.5s-24.5 -34.5 -24.5 -58.5c0 -40 20 -77 60 -111c22.667 44 46 76 70 96c28.667 24 62.667 36 102 36c29.333 0 56.833 -11.833 82.5 -35.5s38.5 -50.167 38.5 -79.5c0 -36.667 -15.667 -66.667 -47 -90
c-28.667 -21.333 -63 -32 -103 -32c-89.333 0 -159.333 21.667 -210 65c-44.667 38 -67 84.333 -67 139c0 40.667 14.167 76.667 42.5 108s67.5 49 117.5 53h4h196l1 71h-381v68h510v-68zM373.999 133c0 11.333 -5.66699 22 -17 32s-23.333 15 -36 15
c-24.667 0 -45.5 -7.5 -62.5 -22.5s-33.167 -37.833 -48.5 -68.5c16.667 -4 33 -6.5 49 -7.5s27 -1.5 33 -1.5c22.667 0 41 3.66699 55 11c18 9.33301 27 23.333 27 42z" />
    <glyph glyph-name="G" unicode="G" horiz-adv-x="670" 
d="M677 447l-90 0.000976562v-433h-70v434h-133v-376l-2 -13c-3.33301 -9.33301 -10.333 -17.833 -21 -25.5s-21.667 -13.5 -33 -17.5s-23 -6 -35 -6c-44 0 -91.667 20.333 -143 61c-57.333 45.333 -102 103 -134 173l-4 18c0 25.333 6 46.166 18 62.499s29 24.5 51 24.5
l235 1l-1 97h-323v68h685v-68zM316 83.001l-0.000976562 196h-206c-7.33301 0 -12.666 -5.33301 -15.999 -16c-0.666992 -1.33301 -1.33398 -4.33301 -2.00098 -9c22.667 -49.333 53.834 -91.833 93.501 -127.5s74.167 -53.5 103.5 -53.5c6 0 11.667 1 17 3z" />
    <glyph glyph-name="H" unicode="H" horiz-adv-x="455" 
d="M461 447l-79 0.000976562v-370c-12 -29.333 -19.333 -45.333 -22 -48c-12.667 -13.333 -40 -20 -82 -20c-53.333 0 -109.666 22.667 -168.999 68c-64.667 49.333 -97 103 -97 161c0 20.667 12.167 38.167 36.5 52.5s47.166 21.5 68.499 21.5l65 -1v-69h-70
c-10.667 0 -17.5 -1.33301 -20.5 -4s-3.83301 -8.33398 -2.5 -17.001c0 -36 23.667 -69.667 71 -101c43.333 -28.667 84.333 -43 123 -43c8.66699 0 16 3.33301 22 10s9 14 9 22v338h-325v68h472v-68z" />
    <glyph glyph-name="I" unicode="I" horiz-adv-x="202" 
d="M-97 578l63 -0.00195312v42c0 24.667 5.66699 43.667 17 57s24 20 38 20c26 0 44.667 -10.667 56 -32s17 -49.666 17 -84.999v-65h-98v-68h94v-435h65v435h58v68h-56v66c0 52.667 -8 92.334 -24 119.001c-22 36 -60 54 -114 54c-34 0 -61.333 -11.667 -82 -35
c-22.667 -26 -34 -63 -34 -111v-30z" />
    <glyph glyph-name="J" unicode="J" horiz-adv-x="568" 
d="M580 447h-82v-435h-68v197h-259v-197h-69v196h-85c0 48 13.667 84.333 41 109s65 37 113 37v-78h258v171h-434v68h585v-68z" />
    <glyph glyph-name="K" unicode="K" horiz-adv-x="626" 
d="M631 447l-84.002 0.000976562c-3.33301 -36 -12.166 -72 -26.499 -108s-32.5 -71.333 -54.5 -106c26.667 -30 45.667 -63.5 57 -100.5s17 -76.5 17 -118.5h-68c0 20.667 -4.16699 43.667 -12.5 69s-22.5 54.666 -42.5 87.999c-36.667 -45.333 -70 -77.333 -100 -96
c-40 -25.333 -87.667 -38 -143 -38s-96 23.333 -122 70c-18 32.667 -27 69.667 -27 111c0 42 17 75.667 51 101c30.667 22.667 67 34 109 34c37.333 0 76 -6 116 -18s78.333 -30.333 115 -55c16 26.667 29.333 54.167 40 82.5s17.334 56.5 20.001 84.5h-480v68h635v-68z
M372.998 223.001c-26.667 19.333 -51.667 33.666 -75 42.999c-33.333 14 -69.666 21 -108.999 21c-22.667 0 -45.334 -8.66699 -68.001 -26c-20 -15.333 -30 -27.666 -30 -36.999c-0.666992 -4 -1 -9.66699 -1 -17c0 -28.667 7.16699 -52.667 21.5 -72s35.833 -29 64.5 -29
c46 0 85.333 11.333 118 34c22 15.333 48.333 43 79 83z" />
    <glyph glyph-name="L" unicode="L" horiz-adv-x="606" 
d="M611 447l-98.001 -0.000976562l-110 -131c66 -19.333 114.333 -42 145 -68c10.667 -10 19.167 -23.667 25.5 -41s9.5 -34.333 9.5 -51c0 -9.33301 -1 -17 -3 -23c-15.333 -48 -40 -81 -74 -99c-25.333 -13.333 -59.666 -20 -102.999 -20v66h22c24.667 0 42 3.33301 52 10
c15.333 10 28.333 31.667 39 65l1 4c2 4.66699 -0.5 13.167 -7.5 25.5s-15.5 21.833 -25.5 28.5l2 -2c-6 5.33301 -27 13.333 -63 24l-54 15l-18 4l-27 -27h-56l-33 26c-25.333 -6.66699 -44.666 -12 -57.999 -16c-40.667 -14 -66.667 -28.333 -78 -43
c-4.66699 -4 -7.83398 -9.66699 -9.50098 -17s-1.5 -13.666 0.5 -18.999c12 -37.333 30 -61.333 54 -72c13.333 -6 38 -9 74 -9v-63c-44.667 0 -80.667 6.33301 -108 19c-40.667 18.667 -69 52.334 -85 101.001c-2 6 -3 13.333 -3 22c0 15.333 3 31.833 9 49.5
s14 31.167 24 40.5c30 27.333 79.667 50.666 149 69.999l-111 131h-98v68h616v-68zM427.999 446.999h-250l126 -155z" />
    <glyph glyph-name="M" unicode="M" horiz-adv-x="468" 
d="M475 447l-64.9971 0.000976562v-435h-69v214h-199c-4.66699 -29.333 -9 -58.666 -13 -87.999c-6 -28 -21 -56.667 -45 -86c-2.66699 -3.33301 -6.83398 -7 -12.501 -11s-11.834 -6 -18.501 -6c-5.33301 0 -10.5 1.83301 -15.5 5.5s-10 9.66699 -15 18
s-7.5 15.833 -7.5 22.5c5.33301 26.667 13 48 23 64c23.333 37.333 35.666 60.333 36.999 69c4 23.333 6 45.666 6 66.999c0 63.333 -17 118.666 -51 165.999h-35v68h69l28 -34c17.333 -26 30.833 -55.833 40.5 -89.5s14.5 -65.5 14.5 -95.5l194 -1v220h134v-68z" />
    <glyph glyph-name="N" unicode="N" horiz-adv-x="597" 
d="M603 447l-265 0.00195312v-112c58.667 -9.33301 104.667 -26.333 138 -51c42 -30.667 63 -73.334 63 -128.001c0 -10 -1 -21.667 -3 -35c-5.33301 -38.667 -24 -66.667 -56 -84c-27.333 -14.667 -65.666 -22 -114.999 -22v69h19c26 0 44.667 2.33301 56 7
c16 6.66699 25 17.667 27 33s3 25.333 3 30c0 40.667 -19.333 71 -58 91c-30 15.333 -66.333 23 -109 23c-42 0 -78 -7.66699 -108 -23c-39.333 -20 -59 -50.667 -59 -92c0 -4 1 -13 3 -27s9 -24.5 21 -31.5s39.667 -10.5 83 -10.5v-69c-50.667 0 -89.334 7 -116.001 21
c-32.667 17.333 -51.667 45.666 -57 84.999c-2 13.333 -3 25.333 -3 36c0 52.667 21.333 94.667 64 126c34 24.667 80 42 138 52v112h-274v68h608v-68z" />
    <glyph glyph-name="O" unicode="O" 
d="M-94 -45l-1.00098 -42c-57.333 -12.667 -105.666 -19 -144.999 -19c-20.667 0 -43.5 1.5 -68.5 4.5s-54.167 7.5 -87.5 13.5v43c31.333 -6 60 -10.5 86 -13.5s50.333 -4.5 73 -4.5c40 0 87.667 6 143 18z" />
    <glyph glyph-name="P" unicode="P" horiz-adv-x="472" 
d="M475 447l-75 -0.00292969v-435h-69v70c-39.333 -21.333 -78.666 -32 -117.999 -32c-32 0 -62.333 7.33301 -91 22s-57 38.667 -85 72l-17 22l19 26c33.333 33.333 50 75.333 50 126c0 26 -4.83301 49.833 -14.5 71.5s-25.5 40.834 -47.5 57.501h-32v68h70
c28 -21.333 49.167 -49.166 63.5 -83.499s21.5 -71.166 21.5 -110.499c0 -56 -13.667 -106.667 -41 -152c21.333 -18 42.166 -31.167 62.499 -39.5s40.5 -12.5 60.5 -12.5c37.333 0 70.333 13.667 99 41v357h144v-68z" />
    <glyph glyph-name="Q" unicode="Q" 
d="M-120 550c-13.333 23.333 -30.001 43.666 -50.001 60.999c-22.667 19.333 -52.667 37 -90 53c-4 2 -10.667 3 -20 3c-8.66699 0 -21.667 -1.5 -39 -4.5s-28.333 -4.5 -33 -4.5c-11.333 0 -19.666 2.33301 -24.999 7s-8 13.334 -8 26.001c0 6.66699 0.333008 11.667 1 15
c0 4 3 8.16699 9 12.5s14 7.83301 24 10.5c40.667 -4 64.334 -7.33301 71.001 -10c19.333 -7.33301 46.666 -21.666 81.999 -42.999l48 -64c14 -22.667 24 -43.334 30 -62.001z" />
    <glyph glyph-name="R" unicode="R" horiz-adv-x="464" 
d="M469 447l-62 0.00195312v-374l-4 -14c-3.33301 -10 -10.333 -20.333 -21 -31s-21.167 -17.834 -31.5 -21.501s-21.5 -5.5 -33.5 -5.5c-46 0 -94 21 -144 63c-56 47.333 -98 108.666 -126 183.999l-4 18c-2 18 2.5 36.167 13.5 54.5s26.833 27.5 47.5 27.5h233v99h-342v68
h474v-68zM337 93.002l-0.00292969 186.001h-205c-8 0 -13.667 -5.33301 -17 -16c0 -1.33301 -0.666992 -4.33301 -2 -9c22.667 -50 53.334 -93.167 92.001 -129.5s72.334 -54.5 101.001 -54.5c5.33301 0 9.83301 0.666992 13.5 2s5.83398 2 6.50098 2
c7.33301 3.33301 11 9.66602 11 18.999z" />
    <glyph glyph-name="S" unicode="S" horiz-adv-x="469" 
d="M469 447l-48 0.00195312v-431h-68v176h-197c-2.66699 -27.333 -11 -56.833 -25 -88.5s-29 -56.834 -45 -75.501c-4.66699 -4.66699 -11.334 -7 -20.001 -7c-11.333 0 -21.666 2.66699 -30.999 8s-16.333 11 -21 17s-7 13.667 -7 23c0 6 1.33301 11.667 4 17
c18 18 33 33.667 45 47c24 26 36 61 36 105c1.33301 7.33301 2.33301 15.666 3 24.999s1 18 1 26c0 26 -4.33301 51.667 -13 77c-6 17.333 -18.333 44.333 -37 81h-51v68h474v-68zM353 261.002v186h-231c13.333 -34.667 23 -66.167 29 -94.5s9 -58.833 9 -91.5h193z" />
    <glyph glyph-name="T" unicode="T" horiz-adv-x="606" 
d="M615 447l-66 -0.00195312c-8.66699 -40.667 -20.334 -73.334 -35.001 -98.001c-22 -38 -54 -67 -96 -87c42 -11.333 75 -30 99 -56s36 -53.333 36 -82c0 -12.667 -3 -25 -9 -37l-1 -6c-14.667 -26 -42.667 -45 -84 -57c-30.667 -8.66699 -66.334 -13 -107.001 -13h-28
c-10.667 1.33301 -17.667 2 -21 2c-38 4.66699 -63.667 9.33398 -77 14.001c-37.333 13.333 -74.333 39.666 -111 78.999c-10 6.66699 -17 11.667 -21 15c-13.333 11.333 -17 20 -11 26c2.66699 2.66699 6 4 10 4c8 0 16.667 -3 26 -9
c1.33301 -0.666992 3.33301 -2.33398 6 -5.00098c38 -26 71.333 -43.667 100 -53c12 -4 26.667 -7.16699 44 -9.5s32.833 -4.16602 46.5 -5.49902s27.5 -2 41.5 -2c31.333 0 56.666 3.33301 75.999 10c24 8.66699 41 22.334 51 41.001l1 3
c0.666992 2.66699 1 6.33398 1 11.001c0 22 -12.167 42.5 -36.5 61.5s-58.166 32.167 -101.499 39.5c-13.333 -6.66699 -28.666 -11.5 -45.999 -14.5s-35.333 -4.5 -54 -4.5c-24 0 -48 2 -72 6c-4 0.666992 -9 1.66699 -15 3c-12 6 -20.667 11 -26 15
c-18 12.667 -27 25.667 -27 39c0 14.667 8 25 24 31s35 9 57 9c12 0 20 -0.333008 24 -1c19.333 0 37.333 -1.16699 54 -3.5s35.334 -6.16602 56.001 -11.499c8 -2.66699 16.667 -4 26 -4c16.667 0 33.167 5 49.5 15s31.833 23.333 46.5 40c10.667 12 20 31.333 28 58
c2.66699 8.66699 5.66699 21 9 37h-487v68h620v-68z" />
    <glyph glyph-name="U" unicode="U" horiz-adv-x="656" 
d="M662 447l-71.0029 0.00195312c-7.33301 -45.333 -22.666 -83 -45.999 -113s-56.333 -55.667 -99 -77c12 -22 20.667 -43.5 26 -64.5s8 -41.5 8 -61.5c0 -30.667 -15.167 -57.834 -45.5 -81.501s-63.166 -35.5 -98.499 -35.5c-53.333 0 -102 20.667 -146 62
c-36.667 34 -66 77.667 -88 131c-14.667 34 -26.334 69.667 -35.001 107c-10.667 45.333 -16 89.666 -16 132.999h-56v68h64c14.667 74.667 42.334 132.667 83.001 174c46.667 48 108.667 72 186 72c90 0 156 -27 198 -81c26.667 -34.667 47.334 -89.667 62.001 -165h74v-68
zM513.997 515.002c-11.333 56.667 -26.668 97.333 -46.001 122c-29.333 37.333 -75.666 56 -138.999 56c-50 0 -92.333 -16.333 -127 -49c-32 -30 -56.333 -73 -73 -129h385zM521.995 447.001h-401.001c0 -51.333 6.66699 -100 20 -146h232
c42.667 13.333 75.334 30 98.001 50c28 24 45 56 51 96zM413.994 137.001c0 21.333 -3.16602 40.333 -9.49902 57s-17.5 30 -33.5 40h-211c16 -44 39.5 -80.167 70.5 -108.5s66.167 -42.5 105.5 -42.5c19.333 0 37.166 5.5 53.499 16.5s24.5 23.5 24.5 37.5z" />
    <glyph glyph-name="V" unicode="V" horiz-adv-x="589" 
d="M598 447l-96 0.000976562v-149h-308l-61 -6c-22 -5.33301 -33 -17 -33 -35c0 -8 9.5 -15.5 28.5 -22.5s40.5 -10.5 64.5 -10.5c13.333 0 60.833 -0.333008 142.5 -1s131.5 -1 149.5 -1v-68h-236c24.667 -28.667 54.5 -48.334 89.5 -59.001s83.5 -16 145.5 -16v-65
c-88 0 -157.333 11.833 -208 35.5s-85.334 59.167 -104.001 106.5c-45.333 6.66699 -81 21 -107 43c-22 18.667 -33 38 -33 58c0 35.333 16.667 62.333 50 81c24.667 14 59.334 23.333 104.001 28l5 1h243v80h-439v68h603v-68z" />
    <glyph glyph-name="W" unicode="W" horiz-adv-x="667" 
d="M670 447l-56.0029 -0.00292969v-435h-69v265c-28.667 0 -54.667 -11 -78 -33c-14 -12.667 -31 -34.667 -51 -66l-25 -64c-10.667 -30 -17.667 -47.333 -21 -52c-6 -8.66699 -19 -18.667 -39 -30c-3.33301 -1.33301 -8 -2.5 -14 -3.5s-12.667 -1.5 -20 -1.5
c-6.66699 0 -13.167 1 -19.5 3s-12 7 -17 15s-7.5 18.333 -7.5 31c0 13.333 6.33301 28.333 19 45c2 2.66699 5.33301 6.33398 10 11.001c24 19.333 39.333 32.666 46 39.999c0.666992 0.666992 9.66699 11.334 27 32.001c4.66699 12.667 8.83398 25 12.501 37
s5.5 22.333 5.5 31c0 4 -0.666992 9.33301 -2 16c-8.66699 43.333 -14 67.333 -16 72c-6 16 -15 30.333 -27 43c-23.333 -12.667 -41.333 -25.667 -54 -39c-3.33301 -3.33301 -19 -20.666 -47 -51.999l-16 -32c-14 -28.667 -24.667 -49.334 -32 -62.001
c-17.333 -30 -28.666 -48.667 -33.999 -56c-20.667 -28.667 -39 -43 -55 -43c-21.333 0 -35 3.66699 -41 11s-9 20.333 -9 39c0 11.333 5.33301 25 16 41c8 12 18 23.667 30 35l19 14c14 11.333 24 21.333 30 30s9.5 14.334 10.5 17.001s1.5 5.33398 1.5 8.00098
c-1.33301 6 -2 11.667 -2 17c0 18 -11.667 41.333 -35 70c-25.333 30.667 -47.666 46 -66.999 46h-51v68h51c24 0 51.333 -14.333 82 -43c28.667 -26.667 54 -59 76 -97c14.667 14.667 38.667 35.667 72 63l62 50c26 -16 48.333 -42.667 67 -80c14 -28 27 -65.333 39 -112
c30.667 24 52.167 38.667 64.5 44s25.5 8 39.5 8v167h125v-68z" />
    <glyph glyph-name="X" unicode="X" horiz-adv-x="606" 
d="M614 447l-104.004 -0.00292969c-6 -32.667 -16.167 -58.667 -30.5 -78s-36.166 -37 -65.499 -53c34.667 -22 59.167 -46.167 73.5 -72.5s21.5 -59.166 21.5 -98.499c0 -40.667 -29.333 -75.667 -88 -105c-53.333 -26.667 -110.666 -40 -171.999 -40
c-55.333 0 -102 10 -140 30c-42 22 -63 51.333 -63 88c0 28.667 10.5 52.834 31.5 72.501s47.167 29.5 78.5 29.5c55.333 0 103.333 -9.5 144 -28.5s77.334 -48.5 110.001 -88.5c10.667 8.66699 17.667 15.667 21 21s5 12 5 20c0 32.667 -9.33301 61.334 -28 86.001
s-45.667 44.667 -81 60l-48 -7c-20 -2.66699 -37.167 -4.66699 -51.5 -6s-29.833 -2 -46.5 -2s-29 0.333008 -37 1s-20.333 3 -37 7l-8 2c-23.333 9.33301 -35 21.666 -35 36.999c0 13.333 8.5 25 25.5 35s41.5 15 73.5 15c17.333 0 34 -1 50 -3s34 -5 54 -9l67 -15
c29.333 8 49.833 18.833 61.5 32.5s18.834 36.834 21.501 69.501h-422v68h619v-68zM352.996 79.9971c-57.333 56.667 -110.998 84.999 -160.998 84.999c-10.667 0 -23.334 -1.33301 -38.001 -4s-25.5 -7.66699 -32.5 -15s-10.5 -21 -10.5 -41
c12 -17.333 29.167 -30.166 51.5 -38.499s47.5 -12.5 75.5 -12.5c43.333 0 81.666 8.66699 114.999 26z" />
    <glyph glyph-name="Y" unicode="Y" 
d="M19 695c-6 -36.667 -17 -65.666 -33 -86.999c-20 -26.667 -48 -40 -84 -40c-23.333 0 -44.333 10.667 -63 32c-21.333 24.667 -34 57 -38 97c10 -24 21 -42 33 -54c17.333 -16.667 40 -25 68 -25c35.333 0 61.333 6.33301 78 19c12 9.33301 25 28.666 39 57.999z" />
    <glyph glyph-name="Z" unicode="Z" 
d="M-104 -24v-75c35.333 0 63.333 -5 84 -15c26.667 -12.667 58.334 -40 95.001 -82l-13 -23c-21.333 24.667 -46.333 42 -75 52c-19.333 6.66699 -40 10 -62 10h-11.5c-3 0 -5.5 -0.333008 -7.5 -1c-2 -18 -7.33301 -32 -16 -42c-10.667 -12.667 -26 -19 -46 -19
c-14.667 0 -28.834 4 -42.501 12s-22.5 20.333 -26.5 37c0 28.667 9 48.667 27 60c6 3.33301 15 6 27 8v78h67z" />
    <glyph glyph-name="bracketleft" unicode="[" horiz-adv-x="99" 
d="M85 604c1.33301 -9.33301 -1.33496 -17.668 -8.00195 -25.001s-14.667 -11.666 -24 -12.999c-9.33301 0 -17.666 3.16699 -24.999 9.5s-11.666 14.166 -12.999 23.499c0 9.33301 3 17.833 9 25.5s13.667 11.834 23 12.501c9.33301 0 18 -3 26 -9s12 -14 12 -24z
M106.999 446.998h-112v68h112v-68z" />
    <glyph glyph-name="backslash" unicode="\" horiz-adv-x="551" 
d="M152 675l341 -677h-98l-340 677h97z" />
    <glyph glyph-name="bracketright" unicode="]" horiz-adv-x="180" 
d="M192 447h-197v68h197v-68z" />
    <glyph glyph-name="asciicircum" unicode="^" 
d="M-224 651c-24 0 -42 -5.66895 -54 -17.002s-18 -26 -18 -44c0 -13.333 3 -26 9 -38c-9.33301 11.333 -16.166 22.333 -20.499 33s-6.5 21.334 -6.5 32.001c0 22.667 9.66699 41.667 29 57s40.666 23 63.999 23c20.667 0 40.667 -6.33301 60 -19
c23.333 -15.333 35 -34.666 35 -57.999c0 -10 -2.5 -20.5 -7.5 -31.5s-13.167 -23.167 -24.5 -36.5c4.66699 6 8.16699 12.333 10.5 19s3.5 14.667 3.5 24c0 16 -5.33301 28.667 -16 38c-14 12 -35.333 18 -64 18z" />
    <glyph glyph-name="underscore" unicode="_" horiz-adv-x="1021" 
d="M707 -19l-21.999 63.998l-74 -67l-152 -139c-0.666992 3.33301 -1.33398 6.33301 -2.00098 9c-20 4.66699 -30 7.66699 -30 9c0 2 2.33301 5 7 9l78 70l145 131l-65 28l118 107c46 44 80.667 84.667 104 122c30 48 45 94.667 45 140c0 44 -13 88 -39 132
c-28.667 48.667 -73.667 98.667 -135 150c96.667 -34.667 169.667 -81.667 219 -141c47.333 -56.667 71 -121 71 -193c0 -71.333 -22.833 -144.166 -68.5 -218.499s-112.167 -145.166 -199.5 -212.499zM788.001 463.998c0 -73.333 -19.8311 -131.835 -59.498 -175.502
s-98.834 -73.5 -177.501 -89.5l-26 -23v-332l-22 -27l-18 24l-1 335l-24 23c-60.667 0 -115.334 26.167 -164.001 78.5s-73 114.5 -73 186.5c0 66.667 23 125.334 69 176.001c38.667 42 80.667 67.333 126 76l85 64l85 -62c58.667 -11.333 105.667 -37.666 141 -78.999
c39.333 -46 59 -104.333 59 -175zM586.003 -132.004c4.66699 -4 7 -7.00098 7 -9.00098c0 -1.33301 -9.33301 -4 -28 -8l-4 -10l-226 206l-21 -65c-86.667 67.333 -153 138.5 -199 213.5s-69 148.167 -69 219.5c0 72 23.333 136 70 192c49.333 60 122.333 107.333 219 142
c-61.333 -51.333 -105.5 -100.166 -132.5 -146.499s-40.5 -91.5 -40.5 -135.5c0 -46 14.667 -92.667 44 -140c22 -35.333 56.667 -76 104 -122l118 -108l-64 -29zM738.003 463.995c0 58.667 -15.001 105.333 -45.001 140c-26.667 30.667 -68.667 55 -126 73
c-9.33301 -22 -16.333 -46.167 -21 -72.5s-7 -51.5 -7 -75.5c0 -44.667 7.33301 -95.5 22 -152.5l30 -116.5c54.667 26 91.334 50.333 110.001 73c24.667 30 37 73.667 37 131zM441.002 671.994c-42.667 0 -81.333 -19.333 -116 -58c-36.667 -41.333 -55 -91.333 -55 -150
c0 -56.667 17.333 -104.667 52 -144c29.333 -33.333 63.333 -54.333 102 -63c18 72 27.333 110.333 28 115c11.333 54.667 17 103.667 17 147c0 27.333 -2.16699 53.833 -6.5 79.5s-11.5 50.167 -21.5 73.5z" />
    <glyph glyph-name="grave" unicode="`" horiz-adv-x="601" 
d="M350 43c0 -10.667 -3.66895 -19.667 -11.002 -27s-16.666 -11 -27.999 -11c-10.667 0 -19.5 3.5 -26.5 10.5s-10.5 15.833 -10.5 26.5c0 24.667 12.333 37 37 37c10.667 0 19.834 -3.5 27.501 -10.5s11.5 -15.5 11.5 -25.5zM422.998 447h-250l126 -155zM48.998 245
c30.667 28 80.668 51.665 150.001 70.998l-111 131h-96v68h614v-68h-98l-110 -131c66 -19.333 114.333 -42 145 -68c12 -10 21.333 -24 28 -42s10 -35.667 10 -53c0 -8 -1 -15 -3 -21c-15.333 -48 -40.333 -81 -75 -99c-24.667 -12.667 -59.667 -19 -105 -19v66
c30 0 55.333 5.66699 76 17c24.667 13.333 37 32.666 37 57.999c0 12.667 -2.33301 23 -7 31s-12.667 17.333 -24 28c-16 16 -41 27.333 -75 34c-11.333 2 -27.333 4 -48 6l-30 -25h-56l-33 23c-23.333 -0.666992 -41.333 -2 -54 -4c-38.667 -6 -64.667 -18.333 -78 -37
c-6.66699 -9.33301 -11.834 -18.166 -15.501 -26.499s-5.5 -17.166 -5.5 -26.499c0 -27.333 14.667 -48.333 44 -63c24 -12 52 -18 84 -18v-63c-44.667 0 -80.667 6.33301 -108 19c-40.667 18.667 -69 52.334 -85 101.001c-2 6 -3 13.333 -3 22
c0 16.667 2.83301 33.5 8.5 50.5s13.5 29.833 23.5 38.5z" />
    <glyph glyph-name="a" unicode="a" horiz-adv-x="230" 
d="M162 603c1.33301 -10.667 -1.33398 -20.332 -8.00098 -28.999s-14.667 -13 -24 -13c-12.667 0 -23.167 3.5 -31.5 10.5s-12.5 16.167 -12.5 27.5c0 10 3 18.833 9 26.5s14.333 12.167 25 13.5c10.667 0 20.334 -3.33301 29.001 -10s13 -15.334 13 -26.001zM237 447.002
h-77v-234h-72v234h-91v68h240v-68z" />
    <glyph glyph-name="b" unicode="b" horiz-adv-x="490" 
d="M500 447l-29 0.00195312c-8.66699 -56.667 -21 -101.667 -37 -135c-13.333 -26.667 -29.333 -46.334 -48 -59.001c9.33301 -12.667 16.333 -23 21 -31c14.667 -26.667 22 -52 22 -76c0 -10 -1.66699 -21 -5 -33c-5.33301 -19.333 -13.833 -35.333 -25.5 -48
s-26.834 -23.667 -45.501 -33c-30 -14.667 -64.333 -22 -103 -22c-42.667 0 -82.834 9.16699 -120.501 27.5s-65.5 43.833 -83.5 76.5c-3.33301 4 -5.66602 7.33301 -6.99902 10c-4.66699 8.66699 -6 15.667 -4 21c2 7.33301 6 11 12 11
c3.33301 0 7.66602 -1.66699 12.999 -5c1.33301 -0.666992 3.66602 -2.66699 6.99902 -6c16 -12.667 29.833 -23.167 41.5 -31.5s22.834 -15.5 33.501 -21.5c16 -8.66699 30.667 -14.834 44 -18.501s27.333 -5.5 42 -5.5c7.33301 0 14.833 0.5 22.5 1.5
s18.167 2.83301 31.5 5.5c22.667 4.66699 40.5 13.834 53.5 27.501s19.5 30.5 19.5 50.5c0 19.333 -7.33301 39.666 -22 60.999c-26.667 -14.667 -50 -24.834 -70 -30.501s-39 -8.5 -57 -8.5c-10 0 -19.667 0.666992 -29 2s-17 2.33301 -23 3
c-27.333 5.33301 -50 15.666 -68 30.999c-22 18.667 -33 41.334 -33 68.001c0 24.667 13.5 46.167 40.5 64.5s59.167 27.5 96.5 27.5c18 0 34.333 -1.83301 49 -5.5s30.334 -10.167 47.001 -19.5c6.66699 -4 20.334 -14.333 41.001 -31l14 -11
c16 10.667 30 30.834 42 60.501s18 57.167 18 82.5h-408v68h507v-68zM293 254.002c-8.66699 11.333 -18.667 21.333 -30 30c-14 10.667 -28.5 18.167 -43.5 22.5s-29.167 6.5 -42.5 6.5c-16 0 -30.167 -3.16699 -42.5 -9.5s-18.5 -13.833 -18.5 -22.5
c0 -14.667 7.33301 -25.667 22 -33c8.66699 -4.66699 19.5 -8.16699 32.5 -10.5s25.833 -3.5 38.5 -3.5c13.333 0 26.5 1.33301 39.5 4s27.833 8 44.5 16z" />
    <glyph glyph-name="c" unicode="c" horiz-adv-x="595" 
d="M605 447l-53.998 0.000976562v-152h-372c-20.667 0 -37.5 -2.66699 -50.5 -8s-20.5 -12.333 -22.5 -21c-3.33301 -11.333 -1 -21.666 7 -30.999s18.333 -14 31 -14l245 -1c45.333 0 81.166 -7.16699 107.499 -21.5s39.5 -37.5 39.5 -69.5
c-0.666992 -4.66699 -1 -8.33398 -1 -11.001c-4 -40.667 -18.333 -67.334 -43 -80.001c-30.667 -15.333 -97 -23 -199 -23c-86.667 0 -148 5.66699 -184 17c-44.667 14 -67 39 -67 75c0 16.667 2.66699 31.5 8 44.5s14.666 26.5 27.999 40.5c-27.333 19.333 -41 43 -41 71
s14.167 51.667 42.5 71s56.833 29 85.5 29h319l-1 84h-492v68h614v-68zM459.002 120.001c0 17.333 -8.16797 27.999 -24.501 31.999s-52.166 6 -107.499 6v-86h30c37.333 0 62.333 2.33301 75 7c18 6.66699 27 20.334 27 41.001zM251.001 71l-1 89
c-44 0 -77 -1.16699 -99 -3.5s-33 -14.5 -33 -36.5c0 -18 6.66699 -30.667 20 -38s51 -11 113 -11z" />
    <glyph glyph-name="d" unicode="d" horiz-adv-x="464" 
d="M469 447l-69.001 -0.000976562v-435h-69v70c-39.333 -21.333 -78.666 -32 -117.999 -32c-32 0 -62.333 7.33301 -91 22s-57 38.667 -85 72l-16 21l18 27c33.333 33.333 50 75.333 50 126c0 26 -4.83301 49.833 -14.5 71.5s-25.5 40.834 -47.5 57.501h-32v68h474v-68z
M330.999 152.999l-0.000976562 294h-214c24 -50 36 -97 36 -141c0 -52.667 -17.333 -99.667 -52 -141c20.667 -18 41.834 -31.333 63.501 -40s43.167 -13 64.5 -13c20 0 38.5 3.5 55.5 10.5s32.5 17.167 46.5 30.5z" />
    <glyph glyph-name="e" unicode="e" horiz-adv-x="509" 
d="M518 447l-84.002 -0.000976562v-165l-85 -2c-54 0 -106.667 -7.66699 -158 -23c-24 -8.66699 -39.333 -16 -46 -22c-9.33301 -8.66699 -23.333 -31.334 -42 -68.001c20.667 -33.333 45.334 -59.666 74.001 -78.999c22.667 -15.333 40.667 -23 54 -23h20
c23.333 0 42.666 2.33301 57.999 7c24 7.33301 53 23 87 47c5.33301 2.66699 12.5 5.33398 21.5 8.00098s17.167 4 24.5 4c7.33301 0.666992 11 -0.666016 11 -3.99902c0 -4.66699 -6.33301 -12.334 -19 -23.001l-25 -21c-39.333 -30 -71.333 -49.833 -96 -59.5
s-51.667 -14.5 -81 -14.5c-33.333 0 -66.666 10.333 -99.999 31c-42 26 -75.333 64 -100 114l-3 12c12.667 32.667 24.334 57 35.001 73c8.66699 12.667 27.334 35 56.001 67c-28.667 26 -49.334 48 -62.001 66c-18 25.333 -27 50.333 -27 75h-36v68h523v-68z
M363.998 345.999v100.999h-265c2 -23.333 15 -46.666 39 -69.999c11.333 -11.333 33 -28.333 65 -51c20 4.66699 40.333 8.66699 61 12c34.667 5.33301 63 8 85 8h15z" />
    <glyph glyph-name="f" unicode="f" horiz-adv-x="473" 
d="M488 447h-29.001v-139h-263c-29.333 0 -52.166 -7.5 -68.499 -22.5s-24.5 -34.5 -24.5 -58.5c0 -40 20 -77 60 -111c22.667 44 46 76 70 96c28.667 24 62.667 36 102 36c29.333 0 56.833 -11.833 82.5 -35.5s38.5 -50.167 38.5 -79.5c0 -36.667 -15.667 -66.667 -47 -90
c-28.667 -21.333 -63 -32 -103 -32c-88.667 0 -158.667 21.667 -210 65c-45.333 38.667 -68 85 -68 139c0 42 14.167 78.167 42.5 108.5s67.5 47.833 117.5 52.5h5h197v71h-395v68h493v-68zM96.999 41c0 -12 -3.83398 -22.1689 -11.501 -30.502s-17.167 -12.5 -28.5 -12.5
c-10.667 0 -20.167 4.16699 -28.5 12.5s-12.5 18.5 -12.5 30.5c0 10.667 3.83301 19.834 11.5 27.501s16.834 11.5 27.501 11.5c12 0 22 -3.66699 30 -11s12 -16.666 12 -27.999zM387.998 132.998c0 11.333 -5.66699 22 -17 32s-23.333 15 -36 15
c-24.667 0 -45.5 -7.5 -62.5 -22.5s-33.167 -37.833 -48.5 -68.5c16.667 -4 33 -6.5 49 -7.5s27 -1.5 33 -1.5c22.667 0 41 3.66699 55 11c18 9.33301 27 23.333 27 42z" />
    <glyph glyph-name="g" unicode="g" horiz-adv-x="675" 
d="M679 447l-61 -0.000976562v-433h-68v69c-36 -20.667 -67.333 -31 -94 -31c-18.667 0 -39.167 8 -61.5 24s-44.5 37.667 -66.5 65c-23.333 -31.333 -48.666 -55.833 -75.999 -73.5s-55.333 -26.5 -84 -26.5c-36.667 0 -63 11.667 -79 35
c-13.333 19.333 -20 47.666 -20 84.999c0 23.333 2 49 6 77l12 82l1 5c1.33301 6 2.66602 13.167 3.99902 21.5s2 18.5 2 30.5c0 14.667 -1.83301 28.334 -5.5 41.001s-10.167 22.334 -19.5 29.001h-74v68h80l14 -2c26 -11.333 44.667 -32.333 56 -63
c8.66699 -23.333 13 -51 13 -83c0 -16 -0.333008 -28.333 -1 -37s-2 -16.334 -4 -23.001l1 4c-1.33301 -11.333 -6 -37.333 -14 -78c-5.33301 -28 -8 -49 -8 -63s2.16699 -25.667 6.5 -35s12.166 -17.333 23.499 -24c7.33301 -4 14.666 -6 21.999 -6c20 0 40.667 12 62 36
c18 20 30.667 41.333 38 64l7 22c-4.66699 24 -7.83398 44.667 -9.50098 62s-2.5 39 -2.5 65v22c0 22 4 41.667 12 59c10.667 23.333 26 35 46 35s35 -13.333 45 -40c7.33301 -19.333 11 -40 11 -62c0 -27.333 -3 -51.666 -9 -72.999
c-9.33301 -26.667 -16.666 -49.667 -21.999 -69v-4c6 -21.333 17.667 -42.666 35 -63.999c20.667 -24.667 40.334 -37 59.001 -37c24.667 0 44.334 5.66699 59.001 17s26 31.666 34 60.999v316h130v-68z" />
    <glyph glyph-name="h" unicode="h" 
d="M-58 544c-35.333 21.333 -62.999 31.999 -82.999 31.999c-11.333 0 -23.166 -0.166992 -35.499 -0.5s-24.833 -0.5 -37.5 -0.5c-35.333 0 -63.666 2.33301 -84.999 7c-29.333 6.66699 -53 18.334 -71 35.001c-5.33301 6.66699 -10 17 -14 31s-7.66699 34 -11 60
c23.333 -22 43.666 -38.167 60.999 -48.5s35.333 -15.5 54 -15.5c14 0 35.833 -0.166992 65.5 -0.5s56.167 -2.83301 79.5 -7.5c25.333 -4 43.166 -12.667 53.499 -26s18.166 -35.333 23.499 -66z" />
    <glyph glyph-name="i" unicode="i" horiz-adv-x="594" 
d="M602 447h-274.998c20 -30 47.667 -54 83 -72s72.666 -27 111.999 -27l-16 -55h-15c-22 0 -39.667 1.66699 -53 5c-20.667 5.33301 -46.334 17 -77.001 35c-16.667 -16.667 -27.667 -33.334 -33 -50.001c-1.33301 -4 -3.66602 -18.333 -6.99902 -43l-62 28
c-19.333 10 -37.333 15 -54 15c-22 0 -45 -8.33301 -69 -25c-12.667 -8.66699 -26.334 -20 -41.001 -34c10.667 -51.333 30.334 -89 59.001 -113c24 -20 57.667 -33 101 -39c9.33301 -1.33301 17.666 -2 24.999 -2c20 0 43.667 4.33301 71 13
c35.333 11.333 81 31.666 137 60.999c2.66699 1.33301 5.5 2.66602 8.5 3.99902s6.5 2 10.5 2c3.33301 0 6.16602 -1.16699 8.49902 -3.5s3.5 -5.16602 3.5 -8.49902c0 -5.33301 -2.33301 -10.333 -7 -15c-52.667 -41.333 -96.167 -69.833 -130.5 -85.5
s-75.166 -23.5 -122.499 -23.5c-55.333 0 -105.666 15 -150.999 45c-60.667 40 -91 97 -91 171c24.667 40 51 69.333 79 88s60 28 96 28c28.667 0 62 -5.66699 100 -17c0 10.667 0.166992 20.334 0.5 29.001s1.16602 16.334 2.49902 23.001c-9.33301 10 -16.5 19 -21.5 27
s-11.167 21 -18.5 39h-260v68h607v-68z" />
    <glyph glyph-name="j" unicode="j" horiz-adv-x="468" 
d="M472 447l-32.0049 -0.00292969c-4.66699 -23.333 -9 -41.166 -13 -53.499s-9.33301 -24 -16 -35s-16.167 -21.333 -28.5 -31s-29.166 -20.167 -50.499 -31.5c32.667 -20.667 57.167 -39.667 73.5 -57s25.833 -35.666 28.5 -54.999l1 -8
c-2.66699 -25.333 -15 -47.666 -37 -66.999c-19.333 -17.333 -46.666 -32.333 -81.999 -45c3.33301 -7.33301 9 -15.666 17 -24.999c4 -4.66699 11.667 -12.667 23 -24h-92c-3.33301 6 -7.66602 11.333 -12.999 16c-1.33301 1.33301 -8.33301 6.66602 -21 15.999
c-12.667 -1.33301 -30.834 -2.33301 -54.501 -3s-40.834 -1 -51.501 -1c-19.333 0 -38.666 6.33301 -57.999 19c-22.667 14.667 -34 31 -34 49c0 16 8.83301 28.5 26.5 37.5s34.834 12.5 51.501 10.5c19.333 -2.66699 39.833 -7.5 61.5 -14.5s43.834 -15.833 66.501 -26.5
l33 4c30.667 6.66699 50.334 12 59.001 16c20 9.33301 31.667 23.333 35 42c-6.66699 25.333 -31 48 -73 68c-34.667 16.667 -62 25 -82 25c-16.667 0 -35.334 -1.33301 -56.001 -4c-56.667 -7.33301 -86.667 -11 -90 -11l-21 52c12 0 21.5 0.5 28.5 1.5
s18.167 4.5 33.5 10.5c-13.333 8.66699 -20.666 13.334 -21.999 14.001c-4.66699 3.33301 -9.33398 7.33301 -14.001 12c-14 14 -23.667 27.667 -29 41s-9.66602 32.666 -12.999 57.999h-32v68h477v-68zM369.995 446.997l-279 -0.00195312
c5.33301 -14.667 8.33301 -22.667 9 -24c4.66699 -11.333 10.334 -20.333 17.001 -27c13.333 -13.333 27.666 -24.666 42.999 -33.999c19.333 -12 36.333 -18 51 -18c42 0 73.5 4.5 94.5 13.5s36.5 21.833 46.5 38.5c4 6 7.5 13.833 10.5 23.5s5.5 18.834 7.5 27.501z" />
    <glyph glyph-name="k" unicode="k" horiz-adv-x="475" 
d="M479 447h-49.001v-435h-68v66c-24.667 -11.333 -46.667 -19.5 -66 -24.5s-37 -7.5 -53 -7.5c-28 0 -54 5.33301 -78 16s-54.333 32.667 -91 66l-21 19l14 22c6.66699 15.333 11.334 28.333 14.001 39c9.33301 32 14 64 14 96c0 55.333 -24.667 103 -74 143h-26v68h34
l23 -7c56 -38.667 92 -94.667 108 -168h202v175h117v-68zM361.999 146v125h-197c0 -19.333 -1 -33.666 -3 -42.999s-9.66699 -31 -23 -65c23.333 -18.667 43 -32.167 59 -40.5s31.333 -12.5 46 -12.5c22 0 43 2.66699 63 8s38.333 14.666 55 27.999z" />
    <glyph glyph-name="l" unicode="l" horiz-adv-x="480" 
d="M489 447l-71 -0.00195312v-161h-33c-98.667 0 -169 -8.83301 -211 -26.5s-72 -50.167 -90 -97.5c27.333 -32.667 51 -56 71 -70c27.333 -18.667 57.333 -28 90 -28c28.667 0 54.334 5.66699 77.001 17c8.66699 4 29.667 18 63 42c2 1.33301 4 2.33301 6 3s4.66699 1 8 1
c4.66699 0 8 -1.5 10 -4.5s3.33301 -5.66699 4 -8s1 -4.16602 1 -5.49902c0 -5.33301 -1.66699 -9.66602 -5 -12.999c-37.333 -27.333 -64.333 -45.333 -81 -54c-36 -18.667 -73.333 -28 -112 -28h-15c-4.66699 0.666992 -8 1 -10 1l-14 3
c-47.333 17.333 -83.333 38.333 -108 63c-20.667 20 -39.667 47.667 -57 83l12 32c33.333 68 75.666 112.333 126.999 133c38.667 15.333 104.667 23 198 23v95h-354v68h494v-68z" />
    <glyph glyph-name="m" unicode="m" horiz-adv-x="487" 
d="M497 447h-412v-82h174c36.667 0 63.334 -2.16699 80.001 -6.5s32.667 -11.5 48 -21.5c18 -8.66699 34.167 -25 48.5 -49s21.5 -50.333 21.5 -79c0 -25.333 -6.33301 -49 -19 -71s-33.667 -41.667 -63 -59l38 -63l-61 -1c-4.66699 5.33301 -9.16699 11 -13.5 17
s-8.83301 13.333 -13.5 22c-44.667 -20 -88.334 -30 -131.001 -30c-30 0 -62.667 11.333 -98 34c-38.667 24.667 -58 50.667 -58 78c0 26 13.5 48.667 40.5 68s53.833 29 80.5 29c19.333 0 40 -4 62 -12c12.667 -4.66699 31.667 -13.667 57 -27
c19.333 -12 39.333 -31.333 60 -58c17.333 10 30.833 22.5 40.5 37.5s14.5 30.167 14.5 45.5c0 26 -11.333 46.333 -34 61c-18 12 -30.667 19.5 -38 22.5s-16.333 4.5 -27 4.5h-22h-257v140h-20v68h502v-68zM282 108l-35 25c-20 11.333 -34.333 19 -43 23
c-19.333 9.33301 -35.333 14 -48 14c-10 0 -20.667 -3.5 -32 -10.5s-17 -14.833 -17 -23.5c0 -13.333 10.833 -25.333 32.5 -36s41.167 -16 58.5 -16c25.333 0 53.333 8 84 24z" />
    <glyph glyph-name="n" unicode="n" horiz-adv-x="462" 
d="M467 447l-43.999 0.00195312v-151h-254c-21.333 0 -36.333 -1.66699 -45 -5c-15.333 -6 -23 -17.333 -23 -34c0 -8 6.16699 -15.167 18.5 -21.5s28.166 -9.5 47.499 -9.5l236 -1v-68l-180 -1c20.667 -32.667 39.667 -53.334 57 -62.001c24 -12.667 65.333 -19 124 -19
v-60c-82 0 -141 10.667 -177 32s-61.667 58.333 -77 111c-37.333 7.33301 -67 21.666 -89 42.999c-18.667 18.667 -28 37.334 -28 56.001c0 20 3.66699 36.5 11 49.5s20 25.5 38 37.5c-14 24.667 -22.333 41.667 -25 51s-4 26.666 -4 51.999h-58v68h472v-68z
M357.001 367.002v80.001h-234c-2 -9.33301 -3 -17 -3 -23c0 -6.66699 2.66699 -14.334 8 -23.001s14.333 -20 27 -34h202z" />
    <glyph glyph-name="o" unicode="o" 
d="M-109 -45v-43c-52 -11.333 -97.333 -17 -136 -17c-28 0 -59.667 2.66699 -95 8c-9.33301 1.33301 -33 5.33301 -71 12v40c31.333 -6 60 -10.5 86 -13.5s50.333 -4.5 73 -4.5c40 0 87.667 6 143 18zM-109 -144l-0.000976562 -41c-52.667 -11.333 -99 -17 -139 -17
c-17.333 0 -35.666 1 -54.999 3s-55.333 7.33301 -108 16v39c31.333 -6 60 -10.5 86 -13.5s50.333 -4.5 73 -4.5c40 0 87.667 6 143 18z" />
    <glyph glyph-name="p" unicode="p" horiz-adv-x="589" 
d="M594 447l-265 0.000976562v-112c58.667 -9.33301 104.667 -26.333 138 -51c42 -30.667 63 -73.334 63 -128.001c0 -10 -1 -21.667 -3 -35c-6 -39.333 -34.333 -68 -85 -86c-38 -13.333 -86.667 -20 -146 -20c-60 0 -109.333 6.66699 -148 20c-52 18 -81 46.667 -87 86
c-2 13.333 -3 25.333 -3 36c0 52.667 21.333 94.667 64 126c34 24.667 80 42 138 52v112h-265v68h599v-68zM459 131.001c1.33301 10.667 2 18.333 2 23c0 40.667 -19.333 71 -58 91c-30 15.333 -66.333 23 -109 23c-42 0 -78 -7.66699 -108 -23
c-39.333 -20 -59 -50.667 -59 -92c0 -4 1.16699 -14.167 3.5 -30.5s23.5 -29.5 63.5 -39.5c30 -7.33301 64.333 -11 103 -11c53.333 0 93 5.33301 119 16s40.333 25 43 43z" />
    <glyph glyph-name="q" unicode="q" 
d="M-66 532l-31.002 -0.999023c0 19.333 -5.16699 33.833 -15.5 43.5s-22.166 14.5 -35.499 14.5c-14 0 -26.167 -4.5 -36.5 -13.5s-15.5 -20.833 -15.5 -35.5c0 -4 0.333008 -7.33301 1 -10h-29c-0.666992 5.33301 -1 9 -1 11c0 14 2.5 26.333 7.5 37
s12.167 18.667 21.5 24c-12 0 -24.167 -0.166992 -36.5 -0.5s-24.5 -0.5 -36.5 -0.5c-49.333 0 -83.666 9.33301 -102.999 28c-16 15.333 -26 42.666 -30 81.999c16 -24 32.333 -39.333 49 -46c22 -9.33301 60 -14 114 -14c70 0 117 -8 141 -24s36 -47.667 36 -95z" />
    <glyph glyph-name="r" unicode="r" horiz-adv-x="600" 
d="M609 447l-68 0.00195312c-3.33301 -34.667 -10.333 -62 -21 -82c-14 -26 -37.333 -48.667 -70 -68c22 -21.333 38.333 -42.833 49 -64.5s16 -45.167 16 -70.5l-2 -12c-5.33301 -18.667 -21 -35.334 -47 -50.001c-22.667 -12.667 -49.667 -22 -81 -28l24 -70h-64l-19 64
c-41.333 0 -73.666 1 -96.999 3s-47.333 5.33301 -72 10l27 -77h-62l-32 84c-2 6 -3.5 11.167 -4.5 15.5s-3.16699 9.16602 -6.5 14.499c-16 15.333 -27.167 27.666 -33.5 36.999s-9.5 17 -9.5 23c0 4 1.83301 8 5.5 12s6.33398 6.83301 8.00098 8.5s4.16699 2.5 7.5 2.5
c4.66699 0 10 -2 16 -6c2 -1.33301 4.66699 -3.33301 8 -6c40 -23.333 75 -39.666 105 -48.999c37.333 -12 79 -18 125 -18h19c34 0 58.167 3.16699 72.5 9.5s27.166 16.833 38.499 31.5c4.66699 5.33301 7 12.333 7 21c0 14.667 -8.33301 30.334 -25 47.001
s-35.334 29 -56.001 37c-25.333 -8 -52.333 -13.833 -81 -17.5s-54.334 -5.5 -77.001 -5.5l-47 9c-32.667 6.66699 -52 12.667 -58 18c-3.33301 4 -5.66602 7.33301 -6.99902 10c-4.66699 8 -7 15 -7 21c0.666992 5.33301 3.66699 11.333 9 18c1.33301 2 4 4.66699 8 8
c10 6.66699 26.833 12.167 50.5 16.5s44.167 6.5 61.5 6.5c34 0 60.333 -0.833008 79 -2.5s39.667 -5.5 63 -11.5c23.333 8 44.5 16.5 63.5 25.5s32 19.667 39 32s10.5 30.166 10.5 53.499h-479v68h614v-68z" />
    <glyph glyph-name="s" unicode="s" horiz-adv-x="460" 
d="M464 447l-48 0.00195312v-431h-68v176h-197c-2.66699 -27.333 -11 -56.833 -25 -88.5s-29 -56.834 -45 -75.501c-4.66699 -4.66699 -11.334 -7 -20.001 -7c-11.333 0 -21.666 2.66699 -30.999 8s-16.333 11 -21 17s-7 13.667 -7 23c0 6 1.33301 11.667 4 17
c18 18 33 33.667 45 47c24 26 36 61 36 105c1.33301 7.33301 2.33301 15.666 3 24.999s1 18 1 26c0 26 -4.33301 51.667 -13 77c-6 17.333 -18.333 44.333 -37 81h-46v68h469v-68zM272 50.002c0 -8.66699 -2.66699 -16.5 -8 -23.5s-12.333 -10.833 -21 -11.5
c-8.66699 0 -16.5 2.66699 -23.5 8s-10.833 12.333 -11.5 21c0 10 2.5 18.333 7.5 25s12.167 10 21.5 10c8 1.33301 15.833 -1 23.5 -7s11.5 -13.333 11.5 -22zM348 261.002v186h-231c13.333 -34.667 23 -66.167 29 -94.5s9 -58.833 9 -91.5h193z" />
    <glyph glyph-name="t" unicode="t" horiz-adv-x="468" 
d="M472 447l-77.001 -0.000976562v-435h-69v67c-24 -22 -58.667 -33 -104 -33c-35.333 0 -70.166 8 -104.499 24s-60.5 38.333 -78.5 67l-16 26l17 22c15.333 15.333 27 33.833 35 55.5s12 44.5 12 68.5c0 26.667 -5.5 52.334 -16.5 77.001s-27.167 45 -48.5 61h-27v68h477
v-68zM325.999 336.999v110h-215c12 -24 20.5 -43 25.5 -57s8.83301 -31.667 11.5 -53h178zM325.999 155.999l0.000976562 113.001h-179c-4 -22 -8.83301 -39.833 -14.5 -53.5s-15.167 -32.167 -28.5 -55.5c19.333 -16.667 38.833 -28.834 58.5 -36.501
s39.167 -11.5 58.5 -11.5s38.166 3.83301 56.499 11.5s34.5 18.5 48.5 32.5z" />
    <glyph glyph-name="u" unicode="u" horiz-adv-x="618" 
d="M623 447l-41.001 0.00195312c-6.66699 -44.667 -21.667 -82.167 -45 -112.5s-56.333 -56.166 -99 -77.499c12 -22 20.833 -43.333 26.5 -64s8.5 -41.334 8.5 -62.001c0 -30.667 -15.167 -57.834 -45.5 -81.501s-63.166 -35.5 -98.499 -35.5
c-53.333 0 -102 20.667 -146 62c-36.667 34 -66 77.667 -88 131c-14.667 34 -26.334 69.667 -35.001 107c-10.667 45.333 -16 89.666 -16 132.999h-49v68h57c14.667 74.667 42.334 133 83.001 175c46.667 48.667 108.334 73 185.001 73h189v-70h-186
c-50.667 0 -92.834 -15.667 -126.501 -47s-58.5 -75 -74.5 -131h501v-68zM513.999 447.002h-400.999c0 -25.333 1.83301 -48.5 5.5 -69.5s9.5 -45.5 17.5 -73.5h232c43.333 14 75.666 30 96.999 48c26.667 23.333 43 55 49 95zM407 137.002
c0 20.667 -3.16602 39.499 -9.49902 56.499s-17.5 30.5 -33.5 40.5h-211c15.333 -43.333 38 -78.666 68 -105.999c32.667 -30 68.667 -45 108 -45c19.333 0 37.166 5.5 53.499 16.5s24.5 23.5 24.5 37.5z" />
    <glyph glyph-name="v" unicode="v" 
d="M-58 -88l-142 -0.000976562c-11.333 0 -20.333 -0.5 -27 -1.5s-10 -4.83301 -10 -11.5c0 -2.66699 3.66699 -4.66699 11 -6s16 -2.66602 26 -3.99902h134v-41h-99c12.667 -14.667 45.334 -22 98.001 -22v-40c-48.667 0 -83.334 4.83301 -104.001 14.5
s-34.667 26.167 -42 49.5c-20.667 2.66699 -36.667 9 -48 19s-17 20 -17 30c0 17.333 7.66699 30.666 23 39.999c11.333 6.66699 28 11.334 50 14.001h105v24h42v-65z" />
    <glyph glyph-name="w" unicode="w" 
d="M-97 570c-30.667 25.333 -55.998 42.668 -75.998 52.001s-40 14 -60 14c-6.66699 0 -14.667 -0.666992 -24 -2l-29 -4l-82 -27c-7.33301 0 -13.166 1.5 -17.499 4.5s-8.16602 8.83301 -11.499 17.5c-5.33301 14 2.66699 27 24 39s42.333 18 63 18
c45.333 0 80.666 -6.33301 105.999 -19c20 -10 49.667 -33.667 89 -71l16 -19c-14.667 38 -36 70.667 -64 98c-34.667 34 -77.334 55.667 -128.001 65c-9.33301 1.33301 -15.333 2 -18 2c-15.333 0 -32 -6 -50 -18c-10 -6.66699 -16.667 -10 -20 -10s-6.5 1.16699 -9.5 3.5
s-6.33301 6.83301 -10 13.5s-5.5 12.667 -5.5 18c0 7.33301 3 14.666 9 21.999c2 2 5 4.66699 9 8c21.333 10 41.333 15 60 15c19.333 0 40.333 -5.33301 63 -16c17.333 -8 38 -21 62 -39c31.333 -23.333 54.666 -46.833 69.999 -70.5s26.666 -55.167 33.999 -94.5z" />
    <glyph glyph-name="x" unicode="x" horiz-adv-x="617" 
d="M632 447l-67.999 0.000976562v-179h-354c0 -58.667 24.667 -108.667 74 -150c20.667 34 39 58 55 72c22.667 20 48 30 76 30c32 0 63 -9.83301 93 -29.5s45 -41.834 45 -66.501c0 -30.667 -14 -56.834 -42 -78.501s-60 -32.5 -96 -32.5c-82 0 -148 23.333 -198 70
s-75 108.334 -75 185.001h-68c5.33301 44 17.333 74.333 36 91c23.333 20.667 56.666 31 99.999 31v-53h286v110h-501v68h637v-68zM485.001 124.001c0 10 -5.83203 18.001 -17.499 24.001s-25.834 9 -42.501 9c-4.66699 -0.666992 -8 -1 -10 -1
c-14 -2 -26.833 -8.5 -38.5 -19.5s-23.167 -26.5 -34.5 -46.5c31.333 -5.33301 55.333 -8 72 -8c18 0 34.333 3.66699 49 11s22 17.666 22 30.999z" />
    <glyph glyph-name="y" unicode="y" horiz-adv-x="627" 
d="M632 447l-63.999 -0.00195312v-435h-68v174h-138v-145c-8 -1.33301 -16 -2.33301 -24 -3s-19.667 -1 -35 -1c-51.333 0 -96 7.33301 -134 22c-54.667 21.333 -94.334 56 -119.001 104l-11 25l19 18c20 17.333 35.5 38.833 46.5 64.5s16.5 52.834 16.5 81.501
c0 34.667 -7.66699 66.334 -23 95.001h-103v68h637v-68zM500.001 254.998v192.001h-327c9.33301 -30 14 -61.667 14 -95c0 -68.667 -20.667 -128.334 -62 -179.001c23.333 -32.667 57.333 -52.667 102 -60c30 -4 51.667 -6.66699 65 -8v150h208z" />
    <glyph glyph-name="z" unicode="z" horiz-adv-x="568" 
d="M580 447h-82v-435h-68v197h-259v-197h-69v196h-85c0 48 13.667 84.333 41 109s65 37 113 37v-78h258v171h-434v68h585v-68zM330 50c0 -8.66699 -2.83398 -16.333 -8.50098 -23s-12.834 -10.667 -21.501 -12c-8.66699 0 -16.5 2.66699 -23.5 8s-10.833 12.333 -11.5 21
c0 9.33301 2.83301 17.5 8.5 24.5s12.834 10.5 21.501 10.5c8.66699 1.33301 16.334 -1 23.001 -7s10.667 -13.333 12 -22z" />
    <glyph glyph-name="braceleft" unicode="{" horiz-adv-x="369" 
d="M353 661c-59.333 0 -99.667 -6.33398 -121 -19.001c-28.667 -17.333 -43 -52.666 -43 -105.999c0 -25.333 2 -49.666 6 -72.999s7.16699 -44.166 9.5 -62.499s3.5 -33.833 3.5 -46.5c0 -20 -3 -35.333 -9 -46s-18.333 -16 -37 -16c33.333 0 50 -18 50 -54
c0 -16.667 -4.33301 -42.334 -13 -77.001c-4 -15.333 -7 -27.333 -9 -36c-4 -16.667 -6 -30.667 -6 -42c0 -28 11 -51 33 -69c28 -22.667 76 -39.667 144 -51c-76 0 -134.667 11.667 -176 35s-62 57 -62 101c0 18 3.33301 36.667 10 56l5.5 41.5
c1.66699 13 2.5 23.5 2.5 31.5c0 21.333 -4.66699 37.333 -14 48c-11.333 12.667 -31 19 -59 19c23.333 0 39.833 6.33301 49.5 19s14.5 31 14.5 55c0 18.667 -1.33301 34.834 -4 48.501l-6 31.5c0 1.33301 -1.83301 12.166 -5.5 32.499s-5.5 37.166 -5.5 50.499
c0 37.333 9.66699 67 29 89c26 29.333 69 44 129 44c25.333 0 52 -2.33301 80 -7z" />
    <glyph glyph-name="bar" unicode="|" 
d="M-53 -25l-0.000976562 -159.001c-2 -9.33301 -7.16699 -17.166 -15.5 -23.499s-23.166 -9.5 -44.499 -9.5c-24 0 -49.333 12 -76 36s-40 48 -40 72c0 10 6.16699 18.333 18.5 25s24.166 10 35.499 10h34v-41h-33c-3.33301 -1.33301 -5 -2.66602 -5 -3.99902
c0 -14.667 8.33301 -28.334 25 -41.001s32.334 -19 47.001 -19c6.66699 1.33301 10 4.33301 10 9v145h44z" />
    <glyph glyph-name="braceright" unicode="}" horiz-adv-x="331" 
d="M302 298c-27.333 0 -46.5 -6.16895 -57.5 -18.502s-16.5 -29.166 -16.5 -50.499c0 -8.66699 0.666992 -17.667 2 -27s3.66602 -24.333 6.99902 -45c6.66699 -19.333 10 -38.333 10 -57c0 -43.333 -20.833 -77 -62.5 -101s-100.167 -36 -175.5 -36
c66.667 11.333 114.334 28.666 143.001 51.999c22.667 18.667 34 42.334 34 71.001c0 12 -1.83301 24.833 -5.5 38.5l-10.5 38.5c-8 31.333 -12 57 -12 77c0 36 16.667 54 50 54c-19.333 0 -32 5.66699 -38 17s-9 27 -9 47c0 16 1 31.333 3 46c0 1.33301 3 18 9 50
c2.66699 16.667 4.66699 31.667 6 45s2 26.666 2 39.999c0 52.667 -14.333 87.334 -43 104.001c-22 12.667 -62.333 19 -121 19l3 -1c28.667 4.66699 56 7 82 7c59.333 0 102 -14.333 128 -43c19.333 -21.333 29 -51 29 -89c0 -16.667 -1.33301 -32.334 -4 -47.001
s-5 -27 -7 -37c-6.66699 -33.333 -10 -60.666 -10 -81.999c0 -23.333 4.83301 -41.166 14.5 -53.499s26.167 -18.5 49.5 -18.5z" />
    <glyph glyph-name="asciitilde" unicode="~" horiz-adv-x="672" 
d="M677 447l-89 0.000976562v-435h-69v435h-134v-374l-3 -14c-3.33301 -9.33301 -10.333 -17.833 -21 -25.5s-21.667 -13.5 -33 -17.5s-23 -6 -35 -6c-44 0 -91.667 20.333 -143 61c-57.333 45.333 -102 103 -134 173l-4 18c0 25.333 6 46.166 18 62.499s29 24.5 51 24.5
h234v98h-320v68h682v-68zM85 64.001c0 -9.33301 -3.5 -17.498 -10.5 -24.498s-15.833 -11.167 -26.5 -12.5c-9.33301 0 -17.666 3.66699 -24.999 11s-11 16 -11 26c0 9.33301 3.66699 17.666 11 24.999s16 11 26 11c9.33301 0 17.666 -3.33301 24.999 -10
s11 -15.334 11 -26.001zM316 83.0029l-0.000976562 196h-206c-7.33301 0 -12.666 -5.33301 -15.999 -16c-0.666992 -1.33301 -1.33398 -4.33301 -2.00098 -9c22.667 -49.333 53.834 -91.833 93.501 -127.5s74.167 -53.5 103.5 -53.5c6 0 11.667 1 17 3z" />
    <glyph glyph-name="c157" horiz-adv-x="898" 
d="M532 249c0 -4.66699 1 -12.999 3 -24.999s4.33301 -23.333 7 -34c-0.666992 -4.66699 -3.5 -31.5 -8.5 -80.5s-7.5 -84.5 -7.5 -106.5c0 -21.333 0.666992 -37.5 2 -48.5s2.33301 -19.833 3 -26.5l1 -38v-48v-13c0 -20.667 -0.5 -36.5 -1.5 -47.5
s-2.83301 -19.5 -5.5 -25.5c4 0 8 2.5 12 7.5l11 13.5v67c0 10.667 1.5 20.5 4.5 29.5s4.5 17.833 4.5 26.5l-11 30c0 16 -0.166992 32 -0.5 48s-0.5 32.333 -0.5 49c0 32.667 2 64 6 94c1.33301 5.33301 2.33301 16.833 3 34.5s1 28.167 1 31.5
c0 25.333 -1 49.166 -3 71.499s-4.66699 33.5 -8 33.5s-7.33301 -14.333 -12 -43zM473 367.001l-29 25.999c4 -10.667 6.83301 -21.834 8.5 -33.501s2.5 -25.5 2.5 -41.5c0 -10.667 -0.666992 -28.167 -2 -52.5s-2 -37.166 -2 -38.499c0 -26.667 4 -49 12 -67
c0 16.667 2 41.334 6 74.001s6 57.334 6 74.001c-4.66699 4 -7 10.667 -7 20c0 6 0.833008 13.667 2.5 23s2.5 14.666 2.5 15.999zM414 318l-20 24.001c-2.66699 -13.333 -4 -29.333 -4 -48c0 -8.66699 0.333008 -21.667 1 -39s1 -30.333 1 -39v-12
c0 -11.333 -1 -22.666 -3 -33.999c-4 -18 -6 -38 -6 -60c0 -20.667 1.66699 -45.334 5 -74.001c8 -68 12 -110.333 12 -127c0 -18.667 -1.16699 -34.667 -3.5 -48s-6.5 -26.333 -12.5 -39c3.33301 -10 5 -18.333 5 -25l15 14c0 11.333 1.66699 21.833 5 31.5l9 27
c2.66699 8.33301 4 16.166 4 23.499c0 8.66699 -1.33301 19.667 -4 33c-6 29.333 -9 45.333 -9 48c0 5.33301 -1.83301 29 -5.5 71s-5.5 69.667 -5.5 83c0 21.333 1.5 39 4.5 53s8.5 25 16.5 33zM681 -280.999l8 3.99707v44v71c0 23.333 0.333008 46.333 1 69v16
c0 37.333 -1.5 69.333 -4.5 96s-4.83301 48 -5.5 64s-1 33.667 -1 53c0 26.667 1 57.667 3 93c4.66699 83.333 7 136 7 158c-6 6 -11 9 -15 9c-2 -3.33301 -3 -8.66602 -3 -15.999c0 -5.33301 0.5 -12 1.5 -20s1.5 -12.333 1.5 -13c0 -6 -0.333008 -10.333 -1 -13
c-4.66699 -29.333 -8.16699 -60.166 -10.5 -92.499s-3.5 -66.166 -3.5 -101.499c0 -46.667 1.66699 -98.667 5 -156c8 -137.333 12 -220 12 -248zM602 446.998l-205.001 -0.000976562l2 -27c0 -10.667 -0.666992 -18.667 -2 -24c41.333 0 77.833 0.833008 109.5 2.5
s63.834 4.83398 96.501 9.50098l-3 18zM708.999 -271.003c-2 -1.33301 -9.00391 -5.00293 -21.0039 -11.0029l-18 -9c-8.66699 0 -18.667 2 -30 6s-19.666 6 -24.999 6c-4 0 -8.66699 -1 -14 -3c-3.33301 3.33301 -8.33301 6.66602 -15 9.99902s-11.667 6.66602 -15 9.99902
c-8.66699 -3.33301 -16.834 -7 -24.501 -11s-14.167 -8.66699 -19.5 -14c-6 2 -12.667 3 -20 3c-13.333 0 -23.333 -4.33301 -30 -13h-19c-3.33301 3.33301 -6.66602 8.33301 -9.99902 15s-6.66602 11.667 -9.99902 15v20c-3.33301 0 -12.666 -6.66699 -27.999 -20
s-24 -23.333 -26 -30c-3.33301 0 -10.666 -2 -21.999 -6s-20.666 -6 -27.999 -6c-5.33301 0 -10 1 -14 3l-10 9v55c2.66699 11.333 4.66699 24.333 6 39s2 29.334 2 44.001c0 22 -2 54.667 -6 98s-6 74.666 -6 93.999c0 10.667 2.5 27.834 7.5 51.501s7.5 40.167 7.5 49.5
c0 5.33301 -0.333008 9.33301 -1 12c-5.33301 34.667 -9.83301 74.334 -13.5 119.001s-5.5 83.667 -5.5 117c-3.33301 6.66699 -5 11.334 -5 14.001h78l-1 24l1 27h-180c-15.333 -22.667 -36 -34 -62 -34c-20 0 -37.333 7.33301 -52 22s-22 32.667 -22 54
c0 20.667 7.16699 38.5 21.5 53.5s31.833 22.5 52.5 22.5c16.667 0 31.5 -4.5 44.5 -13.5s22.167 -20.833 27.5 -35.5l697 -1v-68h-274l2 -21l-2 -13c8.66699 1.33301 19.167 3.83301 31.5 7.5l35.5 10.5c16 -5.33301 29 -13.666 39 -24.999h30l5 -4
c2 -3.33301 1 -15 -3 -35s-8 -41.333 -12 -64c14 -4 21 -11.667 21 -23c0 -9.33301 -3.66699 -20.666 -11 -33.999c-20 -36 -30.167 -55.167 -30.5 -57.5s-0.5 -7.83301 -0.5 -16.5c0 -18 2.16699 -35.667 6.5 -53s10.666 -31.333 18.999 -42s12.5 -25 12.5 -43
c0 -12.667 -2 -28.667 -6 -48c-9.33301 -45.333 -14 -74 -14 -86c0 -14.667 1.5 -26.667 4.5 -36s9.16699 -18.666 18.5 -27.999c0 -8 -2.16699 -19 -6.5 -33s-6.5 -23 -6.5 -27c0 -5.33301 0.833008 -10 2.5 -14s5.16699 -8.66699 10.5 -14c0 -9.33301 -3 -17.333 -9 -24
s-13.333 -11.334 -22 -14.001c-5.33301 0 -11.5 3.16699 -18.5 9.5s-11.833 9.5 -14.5 9.5zM103.995 536.994c-14.667 0 -22 -7.33301 -22 -22c0 -13.333 6.66699 -20 20 -20c14 0 21 8 21 24c0 12 -6.33301 18 -19 18z" />
    <glyph glyph-name="c158" horiz-adv-x="894" 
d="M833 489c0 -20.667 -7.16797 -38.5059 -21.501 -53.5059s-31.833 -22.5 -52.5 -22.5c-12.667 0 -24.334 3 -35.001 9s-19.667 14.333 -27 25h-180l1 -27l-1 -24h78c-3.33301 -6 -5 -10.667 -5 -14c0 -40.667 -1.5 -79 -4.5 -115s-7.83301 -76.333 -14.5 -121
c-0.666992 -2.66699 -1 -6.66699 -1 -12c0 -11.333 1.33301 -23.666 4 -36.999c7.33301 -36.667 11 -58 11 -64c0 -18.667 -2 -50 -6 -94s-6 -77.333 -6 -100c0 -22 0.5 -37.333 1.5 -46s3.16699 -20.334 6.5 -35.001v-55l-10 -9c-4 -2 -8.66699 -3 -14 -3c-6 0 -15 2 -27 6
s-19.667 6 -23 6c-1.33301 4.66699 -7.33301 12 -18 22c-19.333 18.667 -31.333 28 -36 28v-20c-3.33301 -3.33301 -6.66602 -8.33301 -9.99902 -15s-6.66602 -11.667 -9.99902 -15h-19c-6.66699 8.66699 -16.667 13 -30 13c-7.33301 0 -14 -1 -20 -3
c-4 4 -10.333 8.5 -19 13.5s-17 8.83301 -25 11.5c-3.33301 -3.33301 -8.33301 -6.66602 -15 -9.99902s-11.667 -6.66602 -15 -9.99902c-5.33301 2 -10.333 3 -15 3s-12.667 -2 -24 -6s-21.333 -6 -30 -6c-7.33301 4 -13 7 -17 9c-7.33301 4 -14.666 7.66699 -21.999 11
c-3.33301 0 -8.5 -3.16699 -15.5 -9.5s-12.833 -9.5 -17.5 -9.5c-8.66699 2.66699 -16 7.33398 -22 14.001s-9 14.667 -9 24c8.66699 8.66699 13 18.334 13 29.001c0 4.66699 -1.33301 11.334 -4 20.001c-6 19.333 -9 32.333 -9 39c8 8 13.833 17.667 17.5 29
s5.5 23.333 5.5 36c0 15.333 -3.33301 38.333 -10 69s-10 52.334 -10 65.001c0 18 3.83301 31.833 11.5 41.5s14 24 19 43s7.5 36.833 7.5 53.5c0 8 -0.333008 13.667 -1 17l-29.5 56c-7.66699 14 -11.5 25.333 -11.5 34c0 6 1.5 10.833 4.5 14.5s8.5 6.5 16.5 8.5
c0 2.66699 -4 25.334 -12 68.001c-3.33301 18 -4.33301 28.333 -3 31l5 4h30c10 11.333 23 19.666 39 24.999c10.667 -3.33301 21.667 -6.33301 33 -9c18.667 -5.33301 30 -8.33301 34 -9l-2 13l2 21h-274v68h700c5.33301 14.667 14.166 26.667 26.499 36s26.5 14 42.5 14
c20 0 37.333 -7.33301 52 -22s22 -32.667 22 -54zM803.999 452.994c0 14.667 -7.33301 22 -22 22s-22 -7.33301 -22 -22s7.33301 -22 22 -22s22 7.33301 22 22zM493.999 395.994c-1.33301 5.33301 -2 13.334 -2 24.001l2 27h-205l2 -21l-3 -18
c31.333 -4.66699 62.5 -7.83398 93.5 -9.50098s68.5 -2.5 112.5 -2.5zM442.999 391.995l-25 -24.998c0 -4 0.833008 -11 2.5 -21s2.5 -16.333 2.5 -19c0 -8 -2.33301 -14.333 -7 -19c0 -16.667 2 -41.334 6 -74.001s6 -57.334 6 -74.001c4 8.66699 6.83301 18 8.5 28
s2.5 21.667 2.5 35c0 10.667 -1 28 -3 52s-3 42.333 -3 55c0 12 0.666992 23 2 33s4 19.667 8 29zM506.999 -178.003c-5.33301 11.333 -9.33203 25.165 -11.999 41.498s-4 32.166 -4 47.499c0 21.333 1.66699 46.333 5 75c8 68.667 12 111 12 127c0 20 -2 39 -6 57
c-1.33301 6.66699 -2.33301 14.334 -3 23.001s-1 17.334 -1 26.001s0.333008 21.667 1 39s1 30.333 1 39v11c0 11.333 -1 22.666 -3 33.999l-20 -24l-5 -104c7.33301 -7.33301 12.666 -18.833 15.999 -34.5s5 -33.5 5 -53.5c0 -19.333 -1.16699 -42.166 -3.5 -68.499
l-7.5 -83.5c0 -5.33301 -1.33301 -14 -4 -26c-6 -27.333 -9 -46 -9 -56c0 -6.66699 0.666992 -12.834 2 -18.501s4.33301 -15.167 9 -28.5s7 -24.666 7 -33.999l15 -14c0 4.66699 0.5 8.83398 1.5 12.501zM366 -244.004c-2 4.66699 -3.66504 15.332 -4.99805 31.999
s-2 41.334 -2 74.001v28l1 38c3.33301 31.333 5 57.333 5 78c0 28.667 -1.83301 58.667 -5.5 90l-10.5 94c2.66699 10 5 20.833 7 32.5s3 20.5 3 26.5c-4 28.667 -8 43 -12 43c-3.33301 0 -6 -10.833 -8 -32.5s-3 -46.5 -3 -74.5c0 -12.667 0.166992 -24 0.5 -34
s1.66602 -21.5 3.99902 -34.5s3.83301 -27.333 4.5 -43s1 -33.834 1 -54.501v-11c0 -11.333 -0.166992 -22.666 -0.5 -33.999s-0.5 -23 -0.5 -35v-9l-11 -30c0 -10.667 1.5 -20.5 4.5 -29.5s4.5 -17.833 4.5 -26.5v-67c4 -5.33301 7.33301 -9.33301 10 -12
c5.33301 -6 9.66602 -9 12.999 -9zM218.002 333.994c-0.666992 3.33301 -1 7.66699 -1 13c0 6 0.333008 11.667 1 17l2 16c0 5.33301 -1 10.666 -3 15.999c-4 0 -9 -3 -15 -9c0 -27.333 1 -59 3 -95c4.66699 -84.667 7 -137.667 7 -159v-12c0 -13.333 -0.333008 -27 -1 -41
s-2.16699 -30.167 -4.5 -48.5s-3.83301 -37.166 -4.5 -56.499s-1 -42 -1 -68v-69c0 -23.333 0.333008 -47 1 -71v-44l8 -4l5 17c0 42 1.66699 91 5 147c8 134.667 12 220.667 12 258c0 43.333 -0.833008 77.333 -2.5 102s-5.5 55 -11.5 91z" />
    <glyph glyph-name="exclamdown" unicode="&#xa1;" horiz-adv-x="333" 
d="M167 476c14.667 0 27.332 -5.33301 37.999 -16s16 -23.667 16 -39c0 -14.667 -5.16699 -27.167 -15.5 -37.5s-23.166 -15.5 -38.499 -15.5c-14 0 -26.667 5 -38 15c-10.667 12 -16 24.667 -16 38c0 15.333 5.33301 28 16 38c10 11.333 22.667 17 38 17zM156.998 287h19
l43 -396l3 -38c0 -20 -5.66699 -36.5 -17 -49.5s-24 -19.5 -38 -19.5c-14.667 0 -28 6.33301 -40 19c-10.667 12.667 -16 31 -16 55l3 33z" />
    <glyph glyph-name="cent" unicode="&#xa2;" horiz-adv-x="500" 
d="M495 184c-7.33301 -30.667 -33.6641 -66.668 -78.9971 -108.001l-56 -48c-28.667 -26.667 -64.667 -40 -108 -40c-26 0 -52.333 5.66699 -79 17l-48 -134h-35l55 152c-26 25.333 -45 50.666 -57 75.999c-16.667 34 -25 74.667 -25 122
c0 83.333 25.667 146.666 77 189.999c39.333 34 83.666 51 132.999 51l30 -2l33 103h35l-36 -112c32 -13.333 54.667 -27.333 68 -42c7.33301 -8.66699 13 -17.667 17 -27s6 -19 6 -29c0 -12 -3.66699 -22.333 -11 -31c-8.66699 -7.33301 -20.334 -11 -35.001 -11
c-17.333 0 -31.333 6.33301 -42 19c-4.66699 6 -8.16699 16.667 -10.5 32s-5.83301 28.333 -10.5 39l-111 -308c17.333 -11.333 32.666 -19.666 45.999 -24.999c8.66699 -2.66699 15.167 -4.16699 19.5 -4.5s9.16602 -0.5 14.499 -0.5c20 0 39 4.33301 57 13l41 18
c19.333 9.33301 33.333 17.333 42 24c18 14.667 29.333 24.334 34 29.001c18.667 18.667 32.334 38.334 41.001 59.001zM181.002 121.999l108.999 300.001c-9.33301 4 -19.333 6 -30 6c-33.333 0 -59.666 -12 -78.999 -36c-26.667 -32.667 -40 -76.334 -40 -131.001
c0 -23.333 2.66699 -45.333 8 -66s16 -45 32 -73z" />
    <glyph glyph-name="sterling" unicode="&#xa3;" horiz-adv-x="611" 
d="M224 112c-9.33301 10 -20 17.833 -32 23.5s-22.333 8.5 -31 8.5c-18 0 -33 -7 -45 -21s-16.667 -29.667 -14 -47c4.66699 -12 10.167 -20 16.5 -24s14.833 -6 25.5 -6h10c4.66699 1.33301 8 2 10 2c17.333 2 32.5 8.33301 45.5 19s19.5 21.334 19.5 32.001
c0 5.33301 -1.66699 9.66602 -5 12.999zM102 346l-0.000976562 26.0029h108c-6 36 -10 61 -12 75c-4.66699 35.333 -7 66.666 -7 93.999c0 41.333 5 77.333 15 108c6 19.333 19.667 39.333 41 60c31.333 30 68.333 45 111 45c24.667 0 49.5 -4.33301 74.5 -13
s53.5 -23.334 85.5 -44.001v-12c0 -8.66699 -0.166992 -16.667 -0.5 -24s-0.5 -14 -0.5 -20c-40.667 22.667 -73 38.167 -97 46.5s-44.333 12.5 -61 12.5c-32 0 -56.333 -12 -73 -36c-20 -29.333 -30 -75.666 -30 -138.999c0 -38.667 4.66699 -89.667 14 -153h170l-1 -24
h-167c4 -15.333 7.83301 -34.333 11.5 -57s5.5 -43.667 5.5 -63c0 -34.667 -5.66699 -65.334 -17 -92.001c52 -54 92 -81 120 -81c26 0 69.333 28.333 130 85c-15.333 -38.667 -37.166 -70.834 -65.499 -96.501s-57.833 -38.5 -88.5 -38.5
c-18.667 0 -36.167 5.83301 -52.5 17.5s-30.833 30.167 -43.5 55.5c-9.33301 -21.333 -26.666 -39.333 -51.999 -54s-51.333 -22 -78 -22c-22.667 0 -42.167 6 -58.5 18s-27.5 30.667 -33.5 56c0 29.333 10 56 30 80s44.667 36 74 36c27.333 0 54.666 -11.333 81.999 -34
c6 10 9 26.667 9 50c0 22 -2.66699 45.5 -8 70.5s-13 47.5 -23 67.5h-112z" />
    <glyph glyph-name="currency" unicode="&#xa4;" horiz-adv-x="241" 
d="M103 74c8 9.33301 18 14 30 14c9.33301 0 18.333 -3.66699 27 -11s13 -17 13 -29c0 -9.33301 -3.66699 -18.333 -11 -27s-17 -13 -29 -13c-9.33301 0 -18.333 3.66699 -27 11s-13 17 -13 29c0 9.33301 3.33301 18 10 26z" />
    <glyph glyph-name="yen" unicode="&#xa5;" 
d="M-118 -23l17 -0.00195312v-40c20 0 37 -5.33301 51 -16c6 -4.66699 10.333 -10.167 13 -16.5s4 -12.5 4 -18.5c0 -8.66699 -2.66699 -17.667 -8 -27c-1.33301 -2.66699 -4 -6.66699 -8 -12c-10 -10 -26 -15 -48 -15l-2 15c14.667 0 26.334 3.66699 35.001 11s13 16 13 26
s-5 18.5 -15 25.5s-25.667 10.5 -47 10.5c-18.667 0 -32.667 -3.66699 -42 -11s-14 -16.333 -14 -27c0 -10 3.66699 -18.667 11 -26s16.666 -10.666 27.999 -9.99902l-3 -16c-18 0 -31 5 -39 15c-2.66699 3.33301 -5.83398 8.66602 -9.50098 15.999s-5.5 14 -5.5 20
c0 6.66699 1.33301 12.834 4 18.501s7.33398 11.834 14.001 18.501c12.667 12.667 29.667 19 51 19v40z" />
    <glyph glyph-name="brokenbar" unicode="&#xa6;" horiz-adv-x="260" 
d="M156 417v-130c0 -9.33301 -2.66699 -16.5 -8 -21.5s-12.333 -7.5 -21 -7.5s-16 2.5 -22 7.5s-9 12.833 -9 23.5v131c0 5.33301 3.66699 10.333 11 15s15 7 23 7c17.333 0 26 -8.33301 26 -25zM160 183v-130c0 -9.33301 -2.66699 -16.5 -8 -21.5s-12.333 -7.5 -21 -7.5
s-16 2.5 -22 7.5s-9 12.833 -9 23.5v131c0 5.33301 3.66699 10.333 11 15s15 7 23 7c17.333 0 26 -8.33301 26 -25z" />
    <glyph glyph-name="section" unicode="&#xa7;" horiz-adv-x="500" 
d="M184 412c-22 24.667 -37.4961 46.335 -46.4961 65.002s-13.5 39 -13.5 61c0 38 13.167 70.5 39.5 97.5s59.166 40.5 98.499 40.5c35.333 0 64.833 -10.833 88.5 -32.5s35.5 -46.834 35.5 -75.501c0 -13.333 -4.33301 -24.333 -13 -33c-6 -7.33301 -14.667 -11 -26 -11
c-10 0 -18.5 3.5 -25.5 10.5s-11.167 16.167 -12.5 27.5l4 26l2 21c0 13.333 -4.5 24.333 -13.5 33s-22.167 13 -39.5 13c-23.333 0 -43.333 -8.33301 -60 -25s-25 -36.667 -25 -60c0 -19.333 4.33301 -36.666 13 -51.999c7.33301 -10.667 17.166 -22.167 29.499 -34.5
s27.166 -24.833 44.499 -37.5c65.333 -46.667 110 -89 134 -127c17.333 -26.667 26 -54.667 26 -84s-8.66699 -58.833 -26 -88.5s-44.666 -55.834 -81.999 -78.501c23.333 -26.667 39.166 -48.5 47.499 -65.5s12.5 -36.5 12.5 -58.5c0 -39.333 -13.167 -72.333 -39.5 -99
s-59.5 -40 -99.5 -40c-34.667 0 -63.667 11 -87 33s-35 47.667 -35 77c0 12.667 3.66699 22.667 11 30s16.333 11.666 27 12.999c9.33301 0 17.666 -3.83301 24.999 -11.5s11 -18.167 11 -31.5l-3 -29l-4 -24c0 -8.66699 4 -16.667 12 -24
c13.333 -9.33301 28.666 -14 45.999 -14c22 0 41.833 8.5 59.5 25.5s26.5 35.167 26.5 54.5c0 20 -5 38 -15 54c-15.333 23.333 -43.666 51.333 -84.999 84c-60 44 -101.667 84 -125 120c-16.667 25.333 -25 53.333 -25 84c0 29.333 8.5 58.5 25.5 87.5
s44.5 55.167 82.5 78.5zM200.004 396.001c-49.333 -29.333 -74 -65.333 -74 -108c0 -22 6 -43 18 -63c18 -27.333 50 -58.333 96 -93l32 -25.5l28 -23.5c50 30 75 65.667 75 107c0 21.333 -7.16699 43.5 -21.5 66.5s-43.833 51.833 -88.5 86.5l-34 26.5
c-8.66699 7 -19 15.833 -31 26.5z" />
    <glyph glyph-name="dieresis" unicode="&#xa8;" horiz-adv-x="241" 
d="M31 584c8 9.33301 18 14 30 14c9.33301 0 18.333 -3.66699 27 -11s13 -17 13 -29c0 -9.33301 -3.66699 -18.333 -11 -27s-17 -13 -29 -13c-9.33301 0 -18.333 3.66699 -27 11s-13 17 -13 29c0 9.33301 3.33301 18 10 26zM159 585c8 9.33301 18 14 30 14
c9.33301 0 18.333 -3.66699 27 -11s13 -17 13 -29c0 -9.33301 -3.66699 -18.333 -11 -27s-17 -13 -29 -13c-9.33301 0 -18.333 3.66699 -27 11s-13 17 -13 29c0 9.33301 3.33301 18 10 26z" />
    <glyph glyph-name="copyright" unicode="&#xa9;" horiz-adv-x="760" 
d="M380 677c60 0 117.17 -14.833 171.503 -44.5s97.166 -72.334 128.499 -128.001s47 -113.5 47 -173.5c0 -58.667 -15.333 -115.667 -46 -171s-73.334 -98.333 -128.001 -129s-112.334 -46 -173.001 -46c-59.333 0 -116.833 15.5 -172.5 46.5s-98.5 73.333 -128.5 127
s-45 111.167 -45 172.5c0 60.667 15.5 118.834 46.5 174.501s74.167 98.167 129.5 127.5s112 44 170 44zM380.003 647c-54.667 0 -106.667 -13.501 -156 -40.501s-88.333 -65.833 -117 -116.5s-43 -103.667 -43 -159c0 -54 13.833 -106.167 41.5 -156.5
s66.5 -89.5 116.5 -117.5s102.667 -42 158 -42c56.667 0 109.334 13.667 158.001 41s87.167 66.333 115.5 117s42.5 103.334 42.5 158.001c0 54 -14.333 106.667 -43 158s-67.834 90.5 -117.501 117.5s-101.5 40.5 -155.5 40.5zM551.003 553.999l9.99902 -137h-19
c-12 38.667 -31 67.5 -57 86.5s-56.333 28.5 -91 28.5c-26.667 0 -50.334 -5.33301 -71.001 -16s-38 -25.667 -52 -45c-8.66699 -12.667 -16.667 -31 -24 -55c-6.66699 -25.333 -10 -50 -10 -74c0 -68 14.833 -118.5 44.5 -151.5s68.834 -49.5 117.501 -49.5
c63.333 0 114 26.333 152 79l18 -10c-46 -66 -108.333 -99 -187 -99c-64 0 -117.667 21.167 -161 63.5s-65 93.5 -65 153.5c0 62.667 22.833 116 68.5 160s103.834 66 174.501 66l38 -3l53 -15l18 -4c5.33301 0 9.83301 1.66699 13.5 5s7.16699 9 10.5 17h19z" />
    <glyph glyph-name="ordfeminine" unicode="&#xaa;" horiz-adv-x="780" 
d="M520 82c1.33301 6.66699 2.00293 17.3359 2.00293 32.0029c0 25.333 -2.33301 47.333 -7 66c-6.66699 26.667 -17.667 47 -33 61c0 -10 -27 -29 -81 -57c-33.333 -17.333 -62.333 -26 -87 -26c-22.667 0 -41 6.66699 -55 20c-16.667 16 -27.334 41 -32.001 75
c0 20 9.33301 39.333 28 58c22 22 50 33 84 33c21.333 0 43.666 -4.33301 66.999 -13s49.333 -23 78 -43c16 14 27.333 32.167 34 54.5s10 47.5 10 75.5h-337v37h410v-37l-33 1c-0.666992 -13.333 -1.33398 -24 -2.00098 -32c-2.66699 -24.667 -6.66699 -43.334 -12 -56.001
s-14 -27.334 -26 -44.001l-17 -22c12 -20 22.667 -43.833 32 -71.5s14 -54.834 14 -81.501v-12c0 -4.66699 -0.666992 -11 -2 -19h-35v1zM262.003 254.002c0 -18 5.16602 -32.833 15.499 -44.5s24.833 -17.5 43.5 -17.5s39.167 5.16699 61.5 15.5s48.5 27.833 78.5 52.5
c-12.667 13.333 -27.667 24 -45 32s-41.333 14 -72 18c-9.33301 -0.666992 -16.666 -1.66699 -21.999 -3c-33.333 -8 -53.333 -25.667 -60 -53zM403.002 677.002c60 0 117.17 -14.833 171.503 -44.5s97.166 -72.334 128.499 -128.001s47 -113.5 47 -173.5
c0 -58.667 -15.333 -115.667 -46 -171s-73.334 -98.333 -128.001 -129s-112.334 -46 -173.001 -46c-59.333 0 -116.833 15.5 -172.5 46.5s-98.5 73.333 -128.5 127s-45 111.167 -45 172.5c0 60.667 15.5 118.834 46.5 174.501s74.167 98.167 129.5 127.5s112 44 170 44z
M403.005 647.002c-54.667 0 -106.667 -13.501 -156 -40.501s-88.333 -65.833 -117 -116.5s-43 -103.667 -43 -159c0 -54 13.833 -106.167 41.5 -156.5s66.5 -89.5 116.5 -117.5s102.667 -42 158 -42c56.667 0 109.334 13.667 158.001 41s87.167 66.333 115.5 117
s42.5 103.334 42.5 158.001c0 54 -14.333 106.667 -43 158s-67.834 90.5 -117.501 117.5s-101.5 40.5 -155.5 40.5z" />
    <glyph glyph-name="guillemotleft" unicode="&#xab;" horiz-adv-x="550" 
d="M315 391l-133 -130l132 -135l-43 -43l-172 176l174 174zM479 387l-133 -130l132 -135l-43 -43l-172 176l174 174z" />
    <glyph glyph-name="logicalnot" unicode="&#xac;" horiz-adv-x="414" 
d="M34 429h345v-199h-39v159h-306v40z" />
    <glyph glyph-name="minus" unicode="&#xad;" horiz-adv-x="562" 
d="M490 273v-52h-402v52h402z" />
    <glyph glyph-name="registered" unicode="&#xae;" horiz-adv-x="760" 
d="M380 677c60 0 117.17 -14.833 171.503 -44.5s97.166 -72.334 128.499 -128.001s47 -113.5 47 -173.5c0 -58.667 -15.333 -115.667 -46 -171s-73.334 -98.333 -128.001 -129s-112.334 -46 -173.001 -46c-59.333 0 -116.833 15.5 -172.5 46.5s-98.5 73.333 -128.5 127
s-45 111.167 -45 172.5c0 60.667 15.5 118.834 46.5 174.501s74.167 98.167 129.5 127.5s112 44 170 44zM380.003 647c-54.667 0 -106.667 -13.501 -156 -40.501s-88.333 -65.833 -117 -116.5s-43 -103.667 -43 -159c0 -54 13.833 -106.167 41.5 -156.5
s66.5 -89.5 116.5 -117.5s102.667 -42 158 -42c56.667 0 109.334 13.667 158.001 41s87.167 66.333 115.5 117s42.5 103.334 42.5 158.001c0 54 -14.333 106.667 -43 158s-67.834 90.5 -117.501 117.5s-101.5 40.5 -155.5 40.5zM188.003 543.999l189.001 -0.000976562
c45.333 0 80.833 -10.667 106.5 -32s38.5 -47 38.5 -77c0 -24.667 -8.33301 -46.667 -25 -66c-18 -19.333 -45.667 -33.666 -83 -42.999l102 -145c12 -16.667 23 -28.667 33 -36c7.33301 -4.66699 16 -7 26 -7v-16h-90l-144 197h-37v-151c2 -10 6.5 -17.5 13.5 -22.5
s21.833 -7.5 44.5 -7.5v-16h-179v16c16 0 27.167 2 33.5 6s10.666 9 12.999 15s3.5 21.333 3.5 46v255l-1 43c-2 7.33301 -6.16699 13 -12.5 17s-16.833 6 -31.5 6v18zM304.004 339.998c38 0 66 3.99902 84 11.999c17.333 6.66699 30.833 16.834 40.5 30.501
s14.5 29.167 14.5 46.5c0 26.667 -9 49 -27 67c-19.333 17.333 -43 26 -71 26c-13.333 0 -27 -2.33301 -41 -7v-175z" />
    <glyph glyph-name="macron" unicode="&#xaf;" horiz-adv-x="662" 
d="M584 503v-52h-502v52h502z" />
    <glyph glyph-name="degree" unicode="&#xb0;" horiz-adv-x="290" 
d="M215 608c-17.333 -23.333 -40.332 -35.001 -68.999 -35.001c-19.333 0 -37.333 6.33301 -54 19c-24 18 -36 41 -36 69c0 19.333 6.33301 37.333 19 54c17.333 23.333 40.666 35 69.999 35c20 0 38 -6 54 -18c23.333 -17.333 35 -40.666 35 -69.999
c0 -18 -6.33301 -36 -19 -54zM195.001 622.999c8.66699 11.333 13.001 24.667 13.001 40c0 20.667 -8 37 -24 49c-11.333 8.66699 -24.333 13 -39 13c-20.667 0 -37.334 -8.33301 -50.001 -25c-8.66699 -11.333 -13 -24.333 -13 -39c0 -20.667 8.33301 -37 25 -49
c11.333 -8.66699 24.333 -13 39 -13c20.667 0 37 8 49 24z" />
    <glyph glyph-name="plusminus" unicode="&#xb1;" horiz-adv-x="562" 
d="M490 113v-52h-402v52h402zM300 549v-162h156v-55h-156v-156h-47v156h-164v55h164v162h47z" />
    <glyph glyph-name="twosuperior" unicode="&#xb2;" horiz-adv-x="280" 
d="M251 684c0 -5.33301 -7.66895 -8.00098 -23.002 -8.00098c-8 0 -19 2 -33 6c-8.66699 -2.66699 -17 -4 -25 -4c-9.33301 0 -16 2.33301 -20 7c-1.33301 1.33301 -2.66602 3.66602 -3.99902 6.99902c1.33301 8 10 12 26 12c8 0 15.333 -1.66699 22 -5
c11.333 -2 21.333 3 30 15c8.66699 10 13 22.333 13 37c0 11.333 -3 20.333 -9 27c-8 8.66699 -19.333 13 -34 13c-6 0 -10.667 -0.333008 -14 -1c-11.333 -3.33301 -22 -10 -32 -20v15c0.666992 3.33301 7.33398 6.83301 20.001 10.5s22.334 5.5 29.001 5.5
c3.33301 0 7.33301 -0.166992 12 -0.5s10.334 -2.16602 17.001 -5.49902c16.667 -8 25 -24.667 25 -50c0 -13.333 -3.33301 -24.333 -10 -33c-4.66699 -8.66699 -11.667 -15 -21 -19c-2.66699 -1.33301 -7.33398 -2.66602 -14.001 -3.99902c6 0.666992 13.667 1 23 1
c13.333 0 20.666 -2 21.999 -6z" />
    <glyph glyph-name="threesuperior" unicode="&#xb3;" horiz-adv-x="282" 
d="M147 798c13.333 4 25.667 5.99902 37 5.99902c14 0 25.667 -2.66699 35 -8s14 -12.333 14 -21c0 -8 -5.33301 -17 -16 -27c11.333 -7.33301 17 -17 17 -29c0 -14 -11 -23.667 -33 -29c5.33301 -2 9.66602 -4 12.999 -6c0.666992 0 1.33398 -0.666992 2.00098 -2v-3
c-2 0 -12.333 2 -31 6c-10 0 -19.167 1.83301 -27.5 5.5s-12.5 8.5 -12.5 14.5c0 5.33301 4 8 12 8c4 0 8.16699 -0.833008 12.5 -2.5s9.5 -5.16699 15.5 -10.5c9.33301 1.33301 17.333 3.66602 24 6.99902s10 8.33301 10 15c0 6 -4.33301 12.333 -13 19
c-6.66699 -3.33301 -16 -5 -28 -5c-7.33301 0 -13.166 1.16699 -17.499 3.5s-6.5 6.5 -6.5 12.5c2 2.66699 3.66699 4.33398 5 5.00098c5.33301 4 11.333 6 18 6c9.33301 0 18.666 -3 27.999 -9c9.33301 6.66699 14 13.334 14 20.001c0 12 -11.333 18 -34 18
c-11.333 0 -24 -2.33301 -38 -7v13z" />
    <glyph glyph-name="acute" unicode="&#xb4;" horiz-adv-x="196" 
d="M25 389c4.66699 21.333 9.66602 42.999 14.999 64.999c6 32.667 10.667 64.667 14 96h79c0.666992 -9.33301 -13.666 -34.666 -42.999 -75.999c-13.333 -18.667 -35 -47 -65 -85z" />
    <glyph glyph-name="paragraph" unicode="&#xb6;" horiz-adv-x="350" 
d="M337 4h-34v494l34 2v-496zM271 2c-8 2.66699 -15.667 4 -23 4c-6 0 -9.83301 -0.166992 -11.5 -0.5s-2.83398 -0.833008 -3.50098 -1.5c0.666992 23.333 1.16699 49.166 1.5 77.499s0.5 55.833 0.5 82.5v12v29c0 7.33301 -0.666992 12.333 -2 15
c-2.66699 0 -13.5 -0.666992 -32.5 -2s-31.5 -2 -37.5 -2c-61.333 0 -103 14 -125 42c-16.667 20.667 -25 55.334 -25 104.001c0 35.333 19.667 60.333 59 75c26.667 10 62.334 15 107.001 15c10 0 18.833 -0.333008 26.5 -1s14.167 -1 19.5 -1c2 0 3.33301 3.33301 4 10
s1 11 1 13v15c0 4 -0.333008 8 -1 12h42v-498zM198 276c16 16 24 35.668 24 59.001c0 22 -8 41 -24 57s-35.667 24 -59 24c-22 0 -41 -8.33301 -57 -25s-24 -36 -24 -58c0 -22.667 8.33301 -41.834 25 -57.501s36 -23.5 58 -23.5c22.667 0 41.667 8 57 24z" />
    <glyph glyph-name="periodcentered" unicode="&#xb7;" horiz-adv-x="350" 
d="M144 272c11.333 15.333 26.666 23 45.999 23c10.667 0 20.667 -3.66699 30 -11c12 -10 18 -23 18 -39c0 -13.333 -5 -26 -15 -38s-23.333 -18 -40 -18c-11.333 0 -21.666 3.66699 -30.999 11c-12 10 -18 23.667 -18 41c0 12 3.33301 22.333 10 31z" />
    <glyph glyph-name="periodcentered" unicode="&#x2219;" horiz-adv-x="350" 
d="M144 272c11.333 15.333 26.666 23 45.999 23c10.667 0 20.667 -3.66699 30 -11c12 -10 18 -23 18 -39c0 -13.333 -5 -26 -15 -38s-23.333 -18 -40 -18c-11.333 0 -21.666 3.66699 -30.999 11c-12 10 -18 23.667 -18 41c0 12 3.33301 22.333 10 31z" />
    <glyph glyph-name="onesuperior" unicode="&#xb9;" horiz-adv-x="289" 
d="M200 775c0 11.333 -5 15.667 -15 13c-10 0 -14.333 -5 -13 -15c1.33301 -8.66699 6.33301 -13 15 -13c10 1.33301 14.333 6.33301 13 15zM207 757.001l-6 -9.99902c-4 -6.66699 -6 -15.334 -6 -26.001c0 -8.66699 0.833008 -15.834 2.5 -21.501
s5.16699 -13.167 10.5 -22.5c-6.66699 0 -12.5 5.16699 -17.5 15.5s-7.5 21.5 -7.5 33.5c0 9.33301 1.33301 16.666 4 21.999c-7.33301 -1.33301 -13.833 0.333984 -19.5 5.00098s-8.5 11 -8.5 19c0 6.66699 2.33301 13 7 19s10.667 9 18 9c19.333 0 29 -8 29 -24
c0 -7.33301 -2 -13.666 -6 -18.999z" />
    <glyph glyph-name="guillemotright" unicode="&#xbb;" horiz-adv-x="550" 
d="M459 259l-172 -176l-43 43l132 135l-133 130l42 42zM295 255l-172 -176l-43 43l132 135l-133 130l42 42z" />
    <glyph glyph-name="onequarter" unicode="&#xbc;" horiz-adv-x="289" 
d="M204 500c0 -14.667 -4 -27.334 -12 -38.001c-4.66699 -8 -8.16699 -14.167 -10.5 -18.5s-5 -11.666 -8 -21.999s-4.5 -21.166 -4.5 -32.499c0 -14 1.83301 -28.167 5.5 -42.5s10.5 -29.5 20.5 -45.5c-14.667 1.33301 -26.834 12.166 -36.501 32.499
s-14.5 42.5 -14.5 66.5c0 17.333 3 31.666 9 42.999c-15.333 0 -28.5 4.83301 -39.5 14.5s-16.5 21.834 -16.5 36.501s4.83301 27.834 14.5 39.501s21.5 17.5 35.5 17.5c14.667 0 27.834 -4.83301 39.501 -14.5s17.5 -21.834 17.5 -36.501zM242 265h-198
c-8.66699 0 -13 4 -13 12c0 8.66699 4.33301 13 13 13h198c8.66699 0 13 -4.33301 13 -13c0 -8 -4.33301 -12 -13 -12zM180 501c-1.33301 7.33301 -4.83301 13.5 -10.5 18.5s-12.5 7.5 -20.5 7.5c-20 -4 -28.667 -14.333 -26 -31c0 -8 3.16699 -14.667 9.5 -20
s13.5 -7.33301 21.5 -6c17.333 2 26 12.333 26 31zM150 152c16.667 0 30.499 5.5 41.499 16.5s16.5 23.167 16.5 36.5c0 9.33301 -3 16.666 -9 21.999s-15.667 8 -29 8l-1 21c18.667 0 33.834 -5.5 45.501 -16.5s17.5 -24.167 17.5 -39.5
c0 -12.667 -3.83301 -24.334 -11.5 -35.001s-20.167 -19.667 -37.5 -27c37.333 -9.33301 56 -29.333 56 -60c0 -23.333 -8.83301 -41.666 -26.5 -54.999s-38.834 -20 -63.501 -20c-26 0 -46.5 7.83301 -61.5 23.5s-22.5 31.834 -22.5 48.501c0 24.667 15 44.667 45 60
c-15.333 9.33301 -26.166 19.333 -32.499 30s-9.5 21 -9.5 31c0 9.33301 2.66699 19 8 29c1.33301 3.33301 4 7.33301 8 12c12 12 29.333 18 52 18v-20c-14 -2 -24.5 -6.5 -31.5 -13.5s-10.5 -15.167 -10.5 -24.5c0 -12 5.16699 -22.5 15.5 -31.5s23.833 -13.5 40.5 -13.5z
M88.999 73c0 -8.66699 5.5 -18.499 16.5 -29.499s24.5 -16.5 40.5 -16.5c21.333 0 37.833 4.83301 49.5 14.5s17.5 23.5 17.5 41.5c0 10 -5.66699 18.833 -17 26.5s-27.333 11.5 -48 11.5c-18 0 -32.333 -5.33301 -43 -16s-16 -21.334 -16 -32.001z" />
    <glyph glyph-name="onehalf" unicode="&#xbd;" horiz-adv-x="289" 
d="M267 14c0 -4 -4.00098 -7.66602 -12.001 -10.999s-19 -5 -33 -5c-10.667 0 -20.5 0.666992 -29.5 2s-21.5 4.33301 -37.5 9c-18.667 -4.66699 -34.667 -7 -48 -7c-20 0 -34 4.66699 -42 14c-2.66699 2.66699 -5 7.66699 -7 15c2.66699 14.667 18.334 22 47.001 22
c7.33301 0 14.5 -0.666992 21.5 -2s16.167 -5 27.5 -11c21.333 0 41.333 10 60 30c17.333 20.667 26 45.667 26 75c0 23.333 -6.33301 41.666 -19 54.999c-15.333 16 -38 24 -68 24h-17c-28 -2.66699 -52.667 -15.667 -74 -39l1 30c2.66699 4.66699 13 10.667 31 18
c24 10 47 15 69 15c10.667 0 19.834 -0.833008 27.501 -2.5s17.667 -5.16699 30 -10.5s23.166 -17.666 32.499 -36.999s14 -40.333 14 -63c0 -26 -6 -47.333 -18 -64c-9.33301 -17.333 -23.666 -30.333 -42.999 -39c-6 -2.66699 -15 -5.33398 -27 -8.00098
c15.333 2 29.333 3 42 3c29.333 0 44.666 -4.33301 45.999 -13zM203.999 500.001c0 -14.667 -4 -27.334 -12 -38.001c-4.66699 -8 -8.16699 -14.167 -10.5 -18.5s-5 -11.666 -8 -21.999s-4.5 -21.166 -4.5 -32.499c0 -14 1.83301 -28.167 5.5 -42.5s10.5 -29.5 20.5 -45.5
c-14.667 1.33301 -26.834 12.166 -36.501 32.499s-14.5 42.5 -14.5 66.5c0 17.333 3 31.666 9 42.999c-15.333 0 -28.5 4.83301 -39.5 14.5s-16.5 21.834 -16.5 36.501s4.83301 27.834 14.5 39.501s21.5 17.5 35.5 17.5c14.667 0 27.834 -4.83301 39.501 -14.5
s17.5 -21.834 17.5 -36.501zM241.999 265.001h-198c-8.66699 0 -13 4 -13 12c0 8.66699 4.33301 13 13 13h198c8.66699 0 13 -4.33301 13 -13c0 -8 -4.33301 -12 -13 -12zM179.999 501.001c-1.33301 7.33301 -4.83301 13.5 -10.5 18.5s-12.5 7.5 -20.5 7.5
c-20 -4 -28.667 -14.333 -26 -31c0 -8 3.16699 -14.667 9.5 -20s13.5 -7.33301 21.5 -6c17.333 2 26 12.333 26 31z" />
    <glyph glyph-name="threequarters" unicode="&#xbe;" horiz-adv-x="289" 
d="M242 265h-198c-8.66699 0 -13 4 -13 12c0 8.66699 4.33301 13 13 13h198c8.66699 0 13 -4.33301 13 -13c0 -8 -4.33301 -12 -13 -12zM150 152c16.667 0 30.499 5.5 41.499 16.5s16.5 23.167 16.5 36.5c0 9.33301 -3 16.666 -9 21.999s-15.667 8 -29 8l-1 21
c18.667 0 33.834 -5.5 45.501 -16.5s17.5 -24.167 17.5 -39.5c0 -12.667 -3.83301 -24.334 -11.5 -35.001s-20.167 -19.667 -37.5 -27c37.333 -9.33301 56 -29.333 56 -60c0 -23.333 -8.83301 -41.666 -26.5 -54.999s-38.834 -20 -63.501 -20
c-26 0 -46.5 7.83301 -61.5 23.5s-22.5 31.834 -22.5 48.501c0 24.667 15 44.667 45 60c-15.333 9.33301 -26.166 19.333 -32.499 30s-9.5 21 -9.5 31c0 9.33301 2.66699 19 8 29c1.33301 3.33301 4 7.33301 8 12c12 12 29.333 18 52 18v-20c-14 -2 -24.5 -6.5 -31.5 -13.5
s-10.5 -15.167 -10.5 -24.5c0 -12 5.16699 -22.5 15.5 -31.5s23.833 -13.5 40.5 -13.5zM88.999 73c0 -8.66699 5.5 -18.499 16.5 -29.499s24.5 -16.5 40.5 -16.5c21.333 0 37.833 4.83301 49.5 14.5s17.5 23.5 17.5 41.5c0 10 -5.66699 18.833 -17 26.5
s-27.333 11.5 -48 11.5c-18 0 -32.333 -5.33301 -43 -16s-16 -21.334 -16 -32.001zM73.999 536.001c25.333 8 49.333 12.002 72 12.002c28.667 0 52.5 -5.5 71.5 -16.5s28.5 -25.167 28.5 -42.5c0 -18 -10.333 -36 -31 -54c9.33301 -6.66699 17.333 -15.334 24 -26.001
s10 -21.667 10 -33c0 -12.667 -5 -23.667 -15 -33s-27.333 -17 -52 -23c19.333 -7.33301 29.666 -12.666 30.999 -15.999c2 -3.33301 0.666992 -5.5 -4 -6.5s-24 2.83301 -58 11.5c-18.667 0 -36.667 3.66699 -54 11s-26 16.666 -26 27.999c0 10.667 7.66699 16 23 16
c8 0 16.167 -1.83301 24.5 -5.5s18.833 -10.5 31.5 -20.5c24 5.33301 41.5 11.666 52.5 18.999s16.5 15.333 16.5 24c0 11.333 -8.66699 24 -26 38c-1.33301 -0.666992 -8.66602 -2.16699 -21.999 -4.5s-23.666 -3.5 -30.999 -3.5c-16 0 -28.667 2.33301 -38 7
s-14 13 -14 25c4 4.66699 7.66699 8 11 10c10.667 7.33301 22.667 11 36 11c9.33301 0 18 -1 26 -3s18 -6.33301 30 -13c18.667 12.667 28 25.667 28 39c0 10 -5.83301 18.167 -17.5 24.5s-27.834 9.5 -48.501 9.5c-12 0 -24 -1 -36 -3s-26.333 -5.66699 -43 -11v29z" />
    <glyph glyph-name="multiply" unicode="&#xd7;" horiz-adv-x="750" 
d="M561 154c6 -7.33301 8.99707 -14.334 8.99707 -21.001c0 -8 -2.66699 -14.667 -8 -20s-12 -8 -20 -8c-7.33301 0 -13.666 2.66699 -18.999 8l-128 119l-121 -113c-5.33301 -5.33301 -11.666 -8 -18.999 -8s-14 3 -20 9s-9 13 -9 21c0 7.33301 2.66699 13.666 8 18.999
l121 110l-125 119c-6 4 -9 9.33301 -9 16c0 8 3 15 9 21s13.333 9 22 9c6 0 10.667 -1.33301 14 -4l129 -121l126 118c4.66699 2.66699 9.33398 4 14.001 4c8 0 15.167 -3.16699 21.5 -9.5s9.5 -13.166 9.5 -20.499s-3 -12.666 -9 -15.999l-123 -115z" />
    <glyph glyph-name="divide" unicode="&#xf7;" horiz-adv-x="750" 
d="M592 273v-52h-402v52h402zM346 386c11.333 15.333 26.666 23 45.999 23c10.667 0 20.667 -3.66699 30 -11c12 -10 18 -23 18 -39c0 -13.333 -5 -26 -15 -38s-23.333 -18 -40 -18c-11.333 0 -21.666 3.66699 -30.999 11c-12 10 -18 23.667 -18 41
c0 12 3.33301 22.333 10 31zM346 168c11.333 15.333 26.666 23 45.999 23c10.667 0 20.667 -3.66699 30 -11c12 -10 18 -23 18 -39c0 -13.333 -5 -26 -15 -38s-23.333 -18 -40 -18c-11.333 0 -21.666 3.66699 -30.999 11c-12 10 -18 23.667 -18 41
c0 12 3.33301 22.333 10 31z" />
    <glyph glyph-name="OE" unicode="&#x152;" horiz-adv-x="780" 
d="M544 410l-62.998 0.000976562v-281c0 -16 -3.5 -29.167 -10.5 -39.5s-16.833 -15.5 -29.5 -15.5c-26.667 0 -57.334 13.167 -92.001 39.5s-61.334 57.166 -80.001 92.499c-4 7.33301 -7.16699 15 -9.5 23s-3.5 16 -3.5 24c0 14 4.66699 24.667 14 32
c12 9.33301 31 14 57 14h116v111h-243v37h344v-37zM443.002 261.001h-110.998c-12.667 0 -22.334 -2.33301 -29.001 -7c-3.33301 -2 -5 -5.33301 -5 -10c0 -18 16.667 -43.667 50 -77s59.666 -50 78.999 -50c9.33301 0 15 4.66699 17 14zM403.004 677.001
c60 0 117.17 -14.833 171.503 -44.5s97.166 -72.334 128.499 -128.001s47 -113.5 47 -173.5c0 -58.667 -15.333 -115.667 -46 -171s-73.334 -98.333 -128.001 -129s-112.334 -46 -173.001 -46c-59.333 0 -116.833 15.5 -172.5 46.5s-98.5 73.333 -128.5 127
s-45 111.167 -45 172.5c0 60.667 15.5 118.834 46.5 174.501s74.167 98.167 129.5 127.5s112 44 170 44zM403.007 647.001c-54.667 0 -106.667 -13.501 -156 -40.501s-88.333 -65.833 -117 -116.5s-43 -103.667 -43 -159c0 -54 13.833 -106.167 41.5 -156.5
s66.5 -89.5 116.5 -117.5s102.667 -42 158 -42c56.667 0 109.334 13.667 158.001 41s87.167 66.333 115.5 117s42.5 103.334 42.5 158.001c0 54 -14.333 106.667 -43 158s-67.834 90.5 -117.501 117.5s-101.5 40.5 -155.5 40.5z" />
    <glyph glyph-name="oe" unicode="&#x153;" horiz-adv-x="1629" 
d="M197 503c15.333 0 31 2.16602 47 6.49902s26.667 9.5 32 15.5v109h-79v-44h10v-22c0 -10.667 -4.33301 -16 -13 -16c-9.33301 0 -14 5.66699 -14 17v98c0 14.667 5 22 15 22c8 0 12 -6.33301 12 -19v-15h69v56c-22 14.667 -47 23.334 -75 26.001
c-61.333 0 -92 -21.667 -92 -65v-94c0 -30 7.16699 -50 21.5 -60s36.5 -15 66.5 -15zM377 638.999c6 -5.33301 9 -11.665 9 -18.998v-64c0 -18.667 3.33301 -31.834 10 -39.501s19.334 -11.5 38.001 -11.5c9.33301 0 17.166 1 23.499 3s10.833 4.33301 13.5 7v-8h74v37
c-6 3.33301 -9 10.333 -9 21v109h-73v-35c5.33301 -4.66699 8 -10.334 8 -17.001v-70c-4 -2 -7 -3 -9 -3c-8 0 -12 11 -12 33v71c0 10 -2 17 -6 21h-67v-35zM645 636c6 -4.66699 9 -11.001 9 -19.001v-52c0 -9.33301 -3 -16.333 -9 -21v-37h80v37c-7.33301 2 -11 9 -11 21
v31c0 14.667 9 22 27 22c4 0 7 -0.333008 9 -1v62c-8.66699 1.33301 -15 1.33301 -19 0s-9.66699 -6.66602 -17 -15.999v11h-69v-38zM856 528.999c4.66699 -8 15.835 -14.333 33.502 -19s32.834 -7 45.501 -7c22 0 39.333 2.33301 52 7
c18.667 6.66699 30.667 19.334 36 38.001c3.33301 12 5 23 5 33c0 16 -4.33301 29.833 -13 41.5s-22 19.834 -40 24.501c-10.667 2 -21.334 4.33301 -32.001 7c-12.667 5.33301 -18 13.666 -16 24.999c0 6.66699 4 10 12 10c8.66699 0 13 -5.66699 13 -17v-13h67v55
c-12.667 7.33301 -25.334 13 -38.001 17s-27.334 6 -44.001 6c-56 0 -84 -21.667 -84 -65c0 -20 3 -34.333 9 -43s15 -15.334 27 -20.001c22.667 -6 39.167 -11.167 49.5 -15.5s15.5 -10.166 15.5 -17.499c0 -4 -0.166992 -8.33301 -0.5 -13s-3.5 -7.33398 -9.5 -8.00098
c-11.333 -3.33301 -17 2.66699 -17 18v15h-71v-59zM1128 635.999c4.66699 -2.66699 9.00098 -9.33301 13.001 -20c1.33301 -4.66699 4 -12.667 8 -24l32 -87c-1.33301 -4 -2.66602 -6.66699 -3.99902 -8c-4.66699 -5.33301 -12 -8 -22 -8v-38c8 -4 18.667 -6 32 -6
c9.33301 0 16.666 1.33301 21.999 4c10.667 4.66699 18 9.83398 22 15.501s8.66699 17.167 14 34.5l34 104c1.33301 6 3 12.333 5 19s5 11.334 9 14.001v38h-71v-38c4.66699 -0.666992 7 -3.33398 7 -8.00098c-2.66699 -8.66699 -4.33398 -15.667 -5.00098 -21l-6 -27l-9 27
c-2.66699 11.333 -4 18.666 -4 21.999c0 4 2.33301 6.33301 7 7v38h-84v-38zM1388 528c2 -3.33301 7.16797 -7 15.501 -11s17.5 -7.16699 27.5 -9.5s21 -3.5 33 -3.5c20.667 0 37 3.66699 49 11c15.333 9.33301 23 23.333 23 42c0 4.66699 -0.333008 8.33398 -1 11.001
c-2.66699 15.333 -10.667 26.333 -24 33c-6.66699 3.33301 -17.667 6.66602 -33 9.99902s-23.333 5.33301 -24 6c-5.33301 2.66699 -8 7 -8 13c0 6.66699 4.33301 10 13 10s13 -4.66699 13 -14v-10h58v39c-4 4.66699 -9.33301 8.66699 -16 12s-18 7.33301 -34 12
c-8 1.33301 -15 2 -21 2c-20 0 -36 -3 -48 -9c-18 -9.33301 -27 -25 -27 -47c0 -20 9 -33.667 27 -41c20 -4.66699 35 -8.5 45 -11.5s15.667 -7.5 17 -13.5c3.33301 -10 -0.333984 -15 -11.001 -15c-8.66699 0 -13 5 -13 15v13h-61v-44zM113.003 370l0.000976562 -71
c0 -11.333 -2.66699 -18.333 -8 -21v-37h79v37c-4 2 -6.33301 4.5 -7 7.5s-1 8.16699 -1 15.5v69h18v38h-18c0 15.333 7.66699 23 23 23v38c-4.66699 1.33301 -12.167 2.33301 -22.5 3s-17.5 1 -21.5 1c-14.667 0 -25.334 -4.83301 -32.001 -14.5s-10 -21.5 -10 -35.5v-15
h-8v-38h8zM390.004 237c30.667 0 52.167 5.16895 64.5 15.502s18.5 27.166 18.5 50.499v103c0 23.333 -6.33301 40.333 -19 51s-34 16 -64 16c-58.667 0 -88 -23 -88 -69v-95c0 -24.667 6.83301 -42.834 20.5 -54.501s36.167 -17.5 67.5 -17.5zM390.004 286.002
c-10 0 -15 7 -15 21v97c0 12.667 5 19 15 19c8 0 12 -6.33301 12 -19v-97c0 -14 -4 -21 -12 -21zM584.004 429.002c6 -3.33301 8.99902 -11.668 8.99902 -25.001v-97c0 -4.66699 -0.166992 -9.16699 -0.5 -13.5s-3.16602 -8.16602 -8.49902 -11.499v-41h71v44
c-4 2 -6.33301 4.5 -7 7.5s-1 7.83301 -1 14.5v36l44 -102h69v165c0 6 0.5 10.667 1.5 14s3.5 6.33301 7.5 9v40h-74v-40c4.66699 -3.33301 7 -11 7 -23v-40l-40 103h-78v-40zM872.003 366l52 -0.000976562v38c0 9.33301 3.66699 14 11 14v-111c0 -14.667 -3 -23.667 -9 -27
v-39h88v41c-5.33301 2.66699 -8 10.334 -8 23.001v113c4.66699 -0.666992 7.5 -2 8.5 -4s1.5 -4.66699 1.5 -8v-40h53v103h-197v-103zM1172 262.999c4.66699 -8 15.8311 -14.334 33.498 -19.001s32.834 -7 45.501 -7c22 0 39.333 2.33301 52 7
c18.667 6.66699 30.667 19.334 36 38.001c3.33301 12 5 23 5 33c0 16 -4.33301 29.833 -13 41.5s-23 19.834 -43 24.501s-31.667 8 -35 10c-8 5.33301 -11.333 12.666 -10 21.999c0 6.66699 4 10 12 10c8.66699 0 13 -5.66699 13 -17v-12h67v54
c-11.333 6.66699 -23.833 12.167 -37.5 16.5s-28.5 6.5 -44.5 6.5c-56 0 -84 -21.667 -84 -65c0 -15.333 2.33301 -28.166 7 -38.499s14.334 -18.5 29.001 -24.5c22.667 -6 39.167 -11.167 49.5 -15.5s15.5 -10.5 15.5 -18.5c0 -12.667 -3.33301 -19.334 -10 -20.001
c-11.333 -3.33301 -17 2.66699 -17 18v15h-71v-59z" />
    <glyph glyph-name="Scaron" unicode="&#x160;" horiz-adv-x="556" 
d="M251 612c4 9.33301 10.333 16.666 19 21.999s17.667 8 27 8c6 0 12.667 -1.5 20 -4.5s13.666 -8.83301 18.999 -17.5s8 -17.667 8 -27c0 -6 -1 -11.667 -3 -17c-4 -9.33301 -10.333 -16.666 -19 -21.999s-17.667 -8 -27 -8c-6 0 -11.667 1 -17 3
c-9.33301 4 -16.666 10.333 -21.999 19s-8 17.667 -8 27c0 6 1 11.667 3 17zM469 447l-48 0.00195312v-431h-68v176h-197c-2.66699 -27.333 -11 -56.833 -25 -88.5s-29 -56.834 -45 -75.501c-4.66699 -4.66699 -11.334 -7 -20.001 -7c-11.333 0 -21.666 2.66699 -30.999 8
s-16.333 11 -21 17s-7 13.667 -7 23c0 6 1.33301 11.667 4 17c18 18 33 33.667 45 47c24 26 36 61 36 105c1.33301 7.33301 2.33301 15.666 3 24.999s1 18 1 26c0 26 -4.33301 51.667 -13 77c-6 17.333 -18.333 44.333 -37 81h-51v68h474v-68zM353 261.002v186h-231
c13.333 -34.667 23 -66.167 29 -94.5s9 -58.833 9 -91.5h193z" />
    <glyph glyph-name="scaron" unicode="&#x161;" horiz-adv-x="600" 
d="M440 588c14.667 -20.667 25.5 -42.0029 32.5 -64.0029s10.5 -44.333 10.5 -67c0 -71.333 -32 -144.333 -96 -219c-54.667 -63.333 -114.334 -110 -179.001 -140l30 -62l-13 -8c-4.66699 5.33301 -11.667 16.333 -21 33c-4.66699 6.66699 -9 13.334 -13 20.001
c-1.33301 -0.666992 -2.5 -2.5 -3.5 -5.5s-2.16699 -7.16699 -3.5 -12.5c-3.33301 -6.66699 -8.66602 -13.667 -15.999 -21s-13.5 -11.5 -18.5 -12.5s-11.167 -1.5 -18.5 -1.5c-16 0 -34.667 5.33301 -56 16c-4 0.666992 -7.66699 1.33398 -11 2.00098
c-3.33301 -1.33301 -6.33301 1.33398 -9 8.00098s-4 13.667 -4 21c0 6.66699 1.33301 10 4 10c6 -4.66699 18 -0.333984 36 12.999c12.667 9.33301 22 15 28 17s14.167 3.33301 24.5 4s17.833 2 22.5 4c1.33301 0.666992 -2.33398 9 -11.001 25
c-12 22.667 -18.667 35.667 -20 39l10 5l30 -48c74 30 133 70 177 120c35.333 40 61 87 77 141c11.333 38 17 78.333 17 121c0 15.333 -0.666992 27.833 -2 37.5s-2.66602 17.834 -3.99902 24.501zM166 106.997c-1.33301 3.33301 -6.33301 5 -15 5
c-6.66699 0 -15.5 -1.83301 -26.5 -5.5s-19.333 -8.16699 -25 -13.5s-7.5 -10 -5.5 -14s7 -6 15 -6c6 0 14.667 1.66699 26 5c10 4 18 8.66699 24 14s8.33301 10.333 7 15zM181 101.997c-3.33301 -2 -9.83008 -7.50098 -19.4971 -16.501s-18.167 -14.5 -25.5 -16.5
c-12 -2 -22.333 -3.83301 -31 -5.5s-16.334 -4.5 -23.001 -8.5c9.33301 -5.33301 18.666 -9.33301 27.999 -12s17 -4 23 -4c8.66699 0 16.167 1.83301 22.5 5.5s12.666 11.334 18.999 23.001s8.5 23.167 6.5 34.5z" />
    <glyph glyph-name="Ydieresis" unicode="&#x178;" horiz-adv-x="668" 
d="M673 447l-85.998 0.000976562v-435h-66v186h-179v-188c-70.667 0 -137 16.333 -199 49c-66.667 35.333 -110.334 80.666 -131.001 135.999h78c7.33301 -25.333 33.666 -51.333 78.999 -78s81.333 -40 108 -40v188h244v182h-546v68h698v-68z" />
    <glyph glyph-name="florin" unicode="&#x192;" horiz-adv-x="1066" 
d="M1608 715c-34 26 -74.668 45.4971 -122.001 58.4971s-96 19.5 -146 19.5c-81.333 0 -158.666 -13.167 -231.999 -39.5s-125.333 -59.166 -156 -98.499c-80 50.667 -159.667 76 -239 76c-60.667 0 -111.667 -15.667 -153 -47c-44.667 -34 -74.334 -83.667 -89.001 -149
h485c2 -8 3 -17 3 -27c0 -47.333 -23.333 -100.333 -70 -159s-90 -93 -130 -103c28.667 -28.667 49.834 -54.667 63.501 -78s20.5 -44.666 20.5 -63.999c0 -34.667 -24.667 -61.667 -74 -81c-38 -14.667 -77.333 -22 -118 -22c-36.667 0 -68.334 7.16699 -95.001 21.5
s-47 36.5 -61 66.5c-38 80.667 -65.333 163 -82 247c-12 62 -18 126.333 -18 193c0 56 25.667 111.667 77 167c61.333 66 138 99 230 99c38 0 76.833 -5.66699 116.5 -17s82.834 -29.666 129.501 -54.999l42 31c36 24 74 43.333 114 58c57.333 21.333 114 32 170 32
s109.333 -9 160 -27c58.667 -20.667 116.667 -54.667 174 -102zM886.999 476.997l-422.001 -0.00195312c0 -27.333 1.5 -53.166 4.5 -77.499s9.5 -59.166 19.5 -104.499c34 0 71.667 0.166992 113 0.5s86.333 0.833008 135 1.5c34.667 17.333 66.834 44 96.501 80
s47.5 69.333 53.5 100zM756.998 102.995c6.66699 6 10.001 13.666 10.001 22.999c0 15.333 -8.83301 33.333 -26.5 54s-40.834 40 -69.501 58l-164 1c11.333 -35.333 21.333 -61.666 30 -78.999c26 -53.333 54.667 -82.333 86 -87c42 0 74.333 3 97 9
c14.667 3.33301 27 10.333 37 21zM254.999 444.994c-4 9.33301 -10.1689 16.165 -18.502 20.498s-18.166 6.5 -29.499 6.5c-6 0 -13.667 -0.666992 -23 -2s-19.666 -7.66602 -30.999 -18.999s-17 -23.666 -17 -36.999c0 -4.66699 1.33301 -10.667 4 -18
s8.5 -13.5 17.5 -18.5s19.167 -7.5 30.5 -7.5c16 0 29.667 4.33301 41 13c19.333 13.333 29 29 29 47c0 4.66699 -1 9.66699 -3 15zM268.997 316.993c-0.666992 0 -5.16406 -3.00195 -13.4971 -9.00195s-14.5 -9.66699 -18.5 -11c-14 -5.33301 -27.333 -8 -40 -8
c-26 0 -50 8.33301 -72 25s-37.333 38.334 -46 65.001c-4 13.333 -6 26 -6 38c0 26.667 8.16699 51.167 24.5 73.5s37.5 37.833 63.5 46.5c13.333 4 26.666 6 39.999 6c28 0 53.167 -7.83301 75.5 -23.5s37.166 -37.167 44.499 -64.5l4 -18.5
c0.666992 -3 1 -8.16699 1 -15.5c0 -8 -1 -16.667 -3 -26c8 -73.333 22.667 -138.666 44 -195.999c28.667 -75.333 70 -141.333 124 -198c-54 13.333 -101.333 52.333 -142 117c-32.667 52.667 -59.334 119 -80.001 199z" />
    <glyph glyph-name="circumflex" unicode="&#x2c6;" horiz-adv-x="681" 
d="M635 461c-12 18.667 -26.1709 32.333 -42.5039 41s-33.5 13 -51.5 13c-30 0 -62.333 -10.667 -97 -32c-26.667 -16.667 -46.667 -33.667 -60 -51c-23.333 15.333 -46.666 23 -69.999 23c-18 0 -33.167 -4.83301 -45.5 -14.5s-20.833 -24.834 -25.5 -45.501h145
c4 -13.333 -1.5 -30.166 -16.5 -50.499s-29.167 -32.166 -42.5 -35.499c16.667 -16.667 25 -31.334 25 -44.001c0 -9.33301 -6.66699 -16.666 -20 -21.999s-26.333 -8 -39 -8c-22 0 -37 9 -45 27c-11.333 24 -19.166 47.167 -23.499 69.5s-6.5 43.166 -6.5 62.499
c0 16 7.66699 32.333 23 49c18.667 20 41.667 30 69 30c10.667 0 22.334 -1.83301 35.001 -5.5s25.667 -9.16699 39 -16.5c20.667 18 37.334 31.333 50.001 40c39.333 26.667 74.666 40 105.999 40c20 0 37.833 -5.33301 53.5 -16s28.834 -28.667 39.501 -54z
M367.996 377.999l-128 1c0 -9.33301 3 -28 9 -56c12.667 0 25 -0.166992 37 -0.5s23.667 -0.5 35 -0.5c10.667 5.33301 20.667 13.5 30 24.5s15 21.5 17 31.5zM328.996 264.999c2 2 3 5.00098 3 9.00098c0 12 -8.66699 23 -26 33l-3 -1h-49c3.33301 -10 6 -17.667 8 -23
c8 -16.667 16.667 -25.334 26 -26.001c16 0 26.333 0.833008 31 2.5s8 3.5 10 5.5zM177.996 369c-1.33301 4.66699 -7.66797 6.99902 -19.001 6.99902c-3.33301 0 -6.66602 -1.33301 -9.99902 -4c-6 -5.33301 -8 -11.333 -6 -18c2.66699 -5.33301 8 -8 16 -8c4 0 8 1 12 3
c8 6.66699 10.333 13.334 7 20.001zM182.994 329.999l-10 -6c-2.66699 -1.33301 -6.66699 -2 -12 -2c-18 0 -30 8.66699 -36 26c-1.33301 5.33301 -2 9.33301 -2 12c0 17.333 9 29.333 27 36c5.33301 1.33301 9 2 11 2c19.333 0 31.666 -9 36.999 -27c2 -6 2 -12 0 -18
c2.66699 -22.667 7 -42 13 -58c8.66699 -22 21.334 -42 38.001 -60c-16.667 4 -30.5 15 -41.5 33s-19.167 38.667 -24.5 62zM119.994 161.999l-8.99902 -0.000976562v-107h-13v44h-37c0 -6.66699 -1.33301 -14.167 -4 -22.5s-5.66699 -14.5 -9 -18.5
c-2 -2.66699 -5 -2.66699 -9 0c-5.33301 4 -7 9 -5 15c3.33301 4 6 7.66699 8 11c4.66699 7.33301 7 16.333 7 27c0.666992 2.66699 1 5.33398 1 8.00098v6c0 5.33301 -0.333008 9.5 -1 12.5s-3.33398 11.167 -8.00098 24.5h-10v17h89v-17zM97.9951 115.998v46h-43
c4.66699 -14.667 7 -30 7 -46h36zM192.995 194.998h-12v10c0 12.667 -3.66699 19 -11 19c-4.66699 0 -8 -2.66699 -10 -8s-3 -12.333 -3 -21v-16h18v-17h-18v-109h-12v109h-12v17h12v16c0 14 1.66699 24.833 5 32.5s10.333 11.5 21 11.5c14.667 0 22 -12.333 22 -37v-7z
M290.995 161.998l-11.9971 0.00292969c-2 -10 -4.66699 -18.833 -8 -26.5s-9 -13.834 -17 -18.501c9.33301 -4 16.333 -10.5 21 -19.5s5.66699 -17.5 3 -25.5l-1 -1c-2.66699 -6.66699 -8 -11.5 -16 -14.5s-17.667 -3.83301 -29 -2.5
c-4.66699 0.666992 -9.33398 1.66699 -14.001 3c-6.66699 3.33301 -13.667 10.333 -21 21c-4.66699 4.66699 -6.66699 7.66699 -6 9s3.33398 0.666016 8.00098 -2.00098c10.667 -10 20 -15 28 -15c4 -1.33301 9.66699 -2 17 -2c11.333 0 18.666 4.33301 21.999 13
c1.33301 14.667 -7 24 -25 28c-5.33301 -3.33301 -12 -5 -20 -5c-2.66699 0 -5.16699 0.166992 -7.5 0.5s-4.83301 0.833008 -7.5 1.5c-2.66699 2 -4.33398 3.33301 -5.00098 4c-3.33301 3.33301 -5 6.66602 -5 9.99902c-0.666992 4.66699 1.16602 7.5 5.49902 8.5
s9.16602 1.16699 14.499 0.5c8.66699 0 15.334 -1 20.001 -3s8.5 -2 11.5 0s6.83301 6 11.5 12c1.33301 2.66699 3 7.66699 5 15c0 2 0.666992 5 2 9h-91v17h116v-17zM400.998 162.001h-49v-28c11.333 -2 20.333 -7.16699 27 -15.5s10 -21.833 10 -40.5
c0 -16 -10.667 -24 -32 -24v18c12.667 -1.33301 19 3 19 13c0 11.333 -3 19.333 -9 24s-13.333 7.66699 -22 9c-10 -1.33301 -17 -3.66602 -21 -6.99902c-8 -6 -11.333 -15.333 -10 -28c1.33301 -8.66699 8 -12.334 20 -11.001v-18c-9.33301 0 -16.833 2 -22.5 6
s-9.16699 11 -10.5 21c-2 16.667 0.666992 29 8 37s17.333 13.333 30 16v28h-52v17h114v-17zM437.998 162.001h-14v-58h-14v58h-17v17h45v-17zM532.998 163.001l-12 0.00195312v-109h-13v55h-37c-0.666992 -10.667 -1.5 -18.667 -2.5 -24s-3.5 -11.333 -7.5 -18
s-7.33301 -8.66699 -10 -6l-4 11c3.33301 11.333 7 22.666 11 33.999c0.666992 4 1 10 1 18c0 14.667 -3 27.667 -9 39h-7v17h13l5 -8c7.33301 -14.667 11 -30.334 11 -47.001h36v55h25v-17zM525.998 43.0029v-11c-12 -3.33301 -21 -5 -27 -5
c-5.33301 0 -15.333 1.66699 -30 5v11c9.33301 -2.66699 15 -4.16699 17 -4.5s6.33301 -0.5 13 -0.5s15.667 1.66699 27 5z" />
    <glyph glyph-name="tilde" unicode="&#x2dc;" horiz-adv-x="650" 
d="M503 202l-323.997 0.00292969l-26 27c-18.667 3.33301 -33.334 5.66602 -44.001 6.99902c-33.333 4.66699 -60.666 7 -81.999 7l53 -41h-53v-15h53l-53 -41c4.66699 -0.666992 12 -1 22 -1c21.333 0 44.666 2 69.999 6c8.66699 1.33301 20 3.66602 34 6.99902l26 29h325
c-8.66699 -3.33301 -17.334 -10.333 -26.001 -21s-12.334 -24.334 -11.001 -41.001l165 71l-165 70c0 -16.667 4.33301 -30.667 13 -42c11.333 -14.667 19 -22 23 -22zM54.0029 238.003c4.66699 -2 14.333 -8.33398 29 -19.001l27 -21h-13l-53 41
c2.66699 0.666992 6 0.333984 10 -0.999023zM100.002 231.002c6 -2.66699 13.666 -7.66602 22.999 -14.999c6.66699 -5.33301 13.334 -11.333 20.001 -18h-17c-2 3.33301 -9.66699 10 -23 20c-4.66699 3.33301 -13 9.66602 -25 18.999l10 -2
c3.33301 -0.666992 7.33301 -2 12 -4zM140.001 224.003c4.66699 -2 9.33301 -5.66699 14 -11l13 -15h-9l-36 33zM86 186.003c-2 -0.666992 -8 -4.83203 -18 -12.499s-20.333 -16.167 -31 -25.5l7 1c13.333 6.66699 25.333 13 36 19
c20.667 11.333 33.334 18.666 38.001 21.999c-5.33301 0 -10.833 -0.166992 -16.5 -0.5s-10.834 -1.5 -15.501 -3.5zM143 189.005c-16.667 -10.667 -31.168 -19.5 -43.501 -26.5s-21.833 -11.5 -28.5 -13.5l8 1c16.667 4.66699 31.834 10.167 45.501 16.5
s25.167 14.5 34.5 24.5c-6.66699 0 -12 -0.666992 -16 -2z" />
    <glyph glyph-name="endash" unicode="&#x2013;" horiz-adv-x="947" 
d="M934 268l-180 -60.002c0 18.667 -2.33301 30.834 -7 36.501s-11.334 8.5 -20.001 8.5h-17h-456l-40 -30c-27.333 -4 -49.333 -7 -66 -9c-50 -6 -90.667 -9 -122 -9l79 48h-79v23h79l-79 45c32.667 0 73.334 -3.66699 122.001 -11c16.667 -2 38.667 -6 66 -12l37 -22h459
h13c9.33301 0 16.833 2.83301 22.5 8.5s8.5 17.834 8.5 36.501z" />
    <glyph glyph-name="emdash" unicode="&#x2014;" horiz-adv-x="750" 
d="M725 250l-694 -0.000976562c0.666992 3.33301 1 6.83301 1 10.5v7.5c-0.666992 10.667 -1 20.334 -1 29.001h694v-47z" />
    <glyph glyph-name="quoteleft" unicode="&#x2018;" horiz-adv-x="132" 
d="M118 581c-12.667 -8.66699 -24.5 -23.001 -35.5 -43.001s-16.5 -38.333 -16.5 -55c0 -9.33301 1.5 -16.666 4.5 -21.999s8.16699 -8 15.5 -8c4 -4 6.66699 -7.33301 8 -10c4 -6 6 -12.667 6 -20c0 -20.667 -13.667 -32.667 -41 -36c-32.667 0 -49 15 -49 45
c0 22 6.33301 45.667 19 71c19.333 39.333 49 65.333 89 78z" />
    <glyph glyph-name="quoteright" unicode="&#x2019;" horiz-adv-x="132" 
d="M24 388c12.667 8.66699 24.5 23.001 35.5 43.001s16.5 38.333 16.5 55c0 9.33301 -1.5 16.666 -4.5 21.999s-8.16699 8 -15.5 8c-4 4 -6.66699 7.33301 -8 10c-4 6 -6 12.667 -6 20c0 20.667 13.667 32.667 41 36c32.667 0 49 -15 49 -45c0 -22 -6.33301 -45.667 -19 -71
c-19.333 -39.333 -49 -65.333 -89 -78z" />
    <glyph glyph-name="quotesinglbase" unicode="&#x201a;" horiz-adv-x="132" 
d="M24 388c12.667 8.66699 24.5 23.001 35.5 43.001s16.5 38.333 16.5 55c0 9.33301 -1.5 16.666 -4.5 21.999s-8.16699 8 -15.5 8c-4 4 -6.66699 7.33301 -8 10c-4 6 -6 12.667 -6 20c0 20.667 13.667 32.667 41 36c32.667 0 49 -15 49 -45c0 -22 -6.33301 -45.667 -19 -71
c-19.333 -39.333 -49 -65.333 -89 -78z" />
    <glyph glyph-name="quotedblleft" unicode="&#x201c;" horiz-adv-x="284" 
d="M246 581c-12.667 -8.66699 -24.5 -23.001 -35.5 -43.001s-16.5 -38.333 -16.5 -55c0 -9.33301 1.5 -16.666 4.5 -21.999s8.16699 -8 15.5 -8c4 -4 6.66699 -7.33301 8 -10c4 -6 6 -12.667 6 -20c0 -20.667 -13.667 -32.667 -41 -36c-32.667 0 -49 15 -49 45
c0 22 6.33301 45.667 19 71c19.333 39.333 49 65.333 89 78zM116 580.999c-12.667 -8.66699 -24.5 -23.001 -35.5 -43.001s-16.5 -38.333 -16.5 -55c0 -9.33301 1.5 -16.666 4.5 -21.999s8.16699 -8 15.5 -8c4 -4 6.66699 -7.33301 8 -10c4 -6 6 -12.667 6 -20
c0 -20.667 -13.667 -32.667 -41 -36c-32.667 0 -49 15 -49 45c0 22 6.33301 45.667 19 71c19.333 39.333 49 65.333 89 78z" />
    <glyph glyph-name="quotedblright" unicode="&#x201d;" horiz-adv-x="284" 
d="M24 388c12.667 8.66699 24.5 23.001 35.5 43.001s16.5 38.333 16.5 55c0 9.33301 -1.5 16.666 -4.5 21.999s-8.16699 8 -15.5 8c-4 4 -6.66699 7.33301 -8 10c-4 6 -6 12.667 -6 20c0 20.667 13.667 32.667 41 36c32.667 0 49 -15 49 -45c0 -22 -6.33301 -45.667 -19 -71
c-19.333 -39.333 -49 -65.333 -89 -78zM154 388.001c12.667 8.66699 24.5 23.001 35.5 43.001s16.5 38.333 16.5 55c0 9.33301 -1.5 16.666 -4.5 21.999s-8.16699 8 -15.5 8c-4 4 -6.66699 7.33301 -8 10c-4 6 -6 12.667 -6 20c0 20.667 13.667 32.667 41 36
c32.667 0 49 -15 49 -45c0 -22 -6.33301 -45.667 -19 -71c-19.333 -39.333 -49 -65.333 -89 -78z" />
    <glyph glyph-name="quotedblbase" unicode="&#x201e;" horiz-adv-x="284" 
d="M24 388c12.667 8.66699 24.5 23.001 35.5 43.001s16.5 38.333 16.5 55c0 9.33301 -1.5 16.666 -4.5 21.999s-8.16699 8 -15.5 8c-4 4 -6.66699 7.33301 -8 10c-4 6 -6 12.667 -6 20c0 20.667 13.667 32.667 41 36c32.667 0 49 -15 49 -45c0 -22 -6.33301 -45.667 -19 -71
c-19.333 -39.333 -49 -65.333 -89 -78zM154 388.001c12.667 8.66699 24.5 23.001 35.5 43.001s16.5 38.333 16.5 55c0 9.33301 -1.5 16.666 -4.5 21.999s-8.16699 8 -15.5 8c-4 4 -6.66699 7.33301 -8 10c-4 6 -6 12.667 -6 20c0 20.667 13.667 32.667 41 36
c32.667 0 49 -15 49 -45c0 -22 -6.33301 -45.667 -19 -71c-19.333 -39.333 -49 -65.333 -89 -78z" />
    <glyph glyph-name="dagger" unicode="&#x2020;" horiz-adv-x="1061" 
d="M734 -20l-21.999 67.001l-77 -70l-158 -144c-1.33301 3.33301 -2.33301 6.33301 -3 9c-20 4.66699 -30 7.66699 -30 9c0 2.66699 2.33301 6 7 10l81 72l150 136l-67 30c102.667 94.667 163 152.334 181 173.001c64 73.333 96 143.666 96 210.999
c0 46 -13.333 91.667 -40 137c-29.333 50 -76 101.667 -140 155c99.333 -36 175 -85 227 -147c49.333 -58.667 74 -125.334 74 -200.001c0 -74 -23.833 -149.667 -71.5 -227s-116.834 -151 -207.501 -221zM818.001 482.001c0 -76.667 -20.5 -137.499 -61.5 -182.499
s-102.5 -75.833 -184.5 -92.5l-27 -24v-345l-22 -28l-19 25l-1 348l-25 23c-64 0 -121 27 -171 81s-75 119 -75 195c0 70 23.667 131 71 183c40 43.333 83.667 69.666 131 78.999l89 66l88 -64c60 -11.333 108.667 -39 146 -83c40.667 -48 61 -108.333 61 -181z
M609.001 -136.998c4.66699 -4 6.99805 -7.33496 6.99805 -10.002c0 -0.666992 -10 -3.33398 -30 -8.00098c-1.33301 -3.33301 -2.33301 -6.66602 -3 -9.99902l-235 214l-22 -67c-90 70 -158.833 143.667 -206.5 221s-71.5 153.333 -71.5 228s24.333 141.334 73 200.001
c51.333 62 127 111 227 147c-63.333 -52.667 -109.666 -104.334 -138.999 -155.001c-26.667 -46 -40 -92 -40 -138c0 -47.333 15.333 -95.666 46 -144.999c24.667 -39.333 60.334 -81.666 107.001 -126.999l123 -112l-67 -30zM765.999 482
c0 60.667 -15.667 109.002 -47 145.002c-28 32.667 -71.333 58 -130 76c-9.33301 -22.667 -16.5 -47.5 -21.5 -74.5s-7.5 -53.5 -7.5 -79.5c0 -54.667 9.66699 -118.334 29 -191.001l25 -88c56.667 27.333 94.667 52.666 114 75.999c25.333 30.667 38 76 38 136z
M457.999 698.002c-44.667 0 -84.667 -19.999 -120 -59.999c-38.667 -43.333 -58 -95.333 -58 -156c0 -58.667 18 -108.667 54 -150c30 -34.667 65.333 -56.334 106 -65.001l30.5 132.5c11 48.333 16.5 94.833 16.5 139.5c0 29.333 -2.16699 56.5 -6.5 81.5
s-11.833 50.833 -22.5 77.5z" />
    <glyph glyph-name="daggerdbl" unicode="&#x2021;" horiz-adv-x="350" 
d="M291 30c-14.667 27.333 -25.5039 65.999 -32.5039 115.999s-10.5 106.333 -10.5 169c0 58 3 112.667 9 164s14.333 91 25 119c2 5.33301 -6 19 -24 41c-24 29.333 -52 69 -84 119c-28 -51.333 -53 -91.333 -75 -120c-17.333 -22.667 -25.333 -36 -24 -40
c12 -31.333 22 -78.166 30 -140.499s12 -126.166 12 -191.499c0 -56 -2.83301 -104.333 -8.5 -145s-15.167 -73 -28.5 -97c4.66699 -2.66699 9.33398 -5 14.001 -7c16.667 -2 33.334 -3.66699 50.001 -5c17.333 -3.33301 26 -14.666 26 -33.999
c0 -8.66699 -3.33301 -25.667 -10 -51c-3.33301 -12.667 -5 -21.667 -5 -27c0 -18 0.833008 -32.5 2.5 -43.5s5.5 -25.167 11.5 -42.5c2 -5.33301 -1.83301 -11.666 -11.5 -18.999s-14.5 -13.333 -14.5 -18s3.33301 -10.334 10 -17.001
c6.66699 0 13.334 -0.333008 20.001 -1c6.66699 -2 12.667 -6.66699 18 -14c6 8.66699 11.833 13.334 17.5 14.001s10.834 1 15.501 1c6.66699 6.66699 10 12.334 10 17.001s-4.83301 10.667 -14.5 18s-13.5 13.666 -11.5 18.999c4 10.667 6.66699 21 8 31s2 19.333 2 28v27
c0 3.33301 -3.33301 18.666 -10 45.999c-3.33301 13.333 -5 24 -5 32c0 19.333 8.66699 30.666 26 33.999c2 1.33301 14.333 3.66602 37 6.99902c8 3.33301 16.333 7 25 11zM210.996 16.999c2 -26 3.00098 -49.999 3.00098 -71.999c0 -38.667 -2.66699 -69.834 -8 -93.501
s-11.666 -35.5 -18.999 -35.5c-8 0 -15.167 16.833 -21.5 50.5s-9.5 84.167 -9.5 151.5c0 74.667 1.33301 127 4 157s7 45 13 45c5.33301 0 11.666 -19.333 18.999 -58s13.666 -87 18.999 -145zM186.997 -175c-5.33301 0 -10.167 5.5 -14.5 16.5s-6.5 24.5 -6.5 40.5
c0 15.333 2.5 28.5 7.5 39.5s10.5 16.5 16.5 16.5s10.667 -5.16699 14 -15.5s5 -23.833 5 -40.5c0 -16 -2 -29.5 -6 -40.5s-9.33301 -16.5 -16 -16.5zM195.996 718c-9.33301 -17.333 -24.6689 -37.332 -46.002 -59.999c-24 -25.333 -46.667 -44 -68 -56
c24.667 27.333 44.334 52.666 59.001 75.999c2.66699 4 9.66699 18 21 42c3.33301 7.33301 8 16 14 26c8.66699 -8.66699 15.334 -18 20.001 -28z" />
    <glyph glyph-name="bullet" unicode="&#x2022;" horiz-adv-x="350" 
d="M114 294c8.66699 12.667 20 22.5 34 29.5s29 10.5 45 10.5c19.333 0 36.666 -6 51.999 -18c21.333 -16.667 32 -39 32 -67c0 -24.667 -8.66699 -47 -26 -67s-40.666 -30 -69.999 -30c-19.333 0 -37 6 -53 18c-10 8 -17.667 18.333 -23 31s-8 25.667 -8 39
c0 20.667 5.66699 38.667 17 54z" />
    <glyph glyph-name="ellipsis" unicode="&#x2026;" horiz-adv-x="525" 
d="M294 136c13.333 0 25 -3.83301 35 -11.5s15 -17.834 15 -30.501c0 -13.333 -3.83301 -25 -11.5 -35s-17.834 -15 -30.501 -15c-13.333 0 -25 3.83301 -35 11.5s-15 17.834 -15 30.501c0 13.333 3.83301 25 11.5 35s17.834 15 30.501 15zM454 136
c13.333 0 25 -3.83301 35 -11.5s15 -17.834 15 -30.501c0 -13.333 -3.83301 -25 -11.5 -35s-17.834 -15 -30.501 -15c-13.333 0 -25 3.83301 -35 11.5s-15 17.834 -15 30.501c0 13.333 3.83301 25 11.5 35s17.834 15 30.501 15zM134 136c13.333 0 25 -3.83301 35 -11.5
s15 -17.834 15 -30.501c0 -13.333 -3.83301 -25 -11.5 -35s-17.834 -15 -30.501 -15c-13.333 0 -25 3.83301 -35 11.5s-15 17.834 -15 30.501c0 13.333 3.83301 25 11.5 35s17.834 15 30.501 15z" />
    <glyph glyph-name="perthousand" unicode="&#x2030;" horiz-adv-x="1000" 
d="M596 677l-475 -704h-43l474 704h44zM172 677c26 0 49.832 -7.16602 71.499 -21.499s38.834 -35.5 51.501 -63.5s19 -59 19 -93c0 -54.667 -13.667 -97.834 -41 -129.501s-60.333 -47.5 -99 -47.5c-23.333 0 -46.5 7 -69.5 21s-40.833 34.5 -53.5 61.5s-19 58.5 -19 94.5
c0 34 6.33301 65 19 93c11.333 28 28.333 49.167 51 63.5s46 21.5 70 21.5zM169.999 651.001c-9.33301 0 -17.332 -2.33398 -23.999 -7.00098c-10.667 -10 -19.334 -26.167 -26.001 -48.5s-10 -55.166 -10 -98.499c0 -59.333 7.66699 -101.333 23 -126
c10.667 -16.667 24 -25 40 -25c15.333 0 28.333 8.66699 39 26c16 25.333 24 69 24 131c0 58 -8 99 -24 123c-10.667 16.667 -24.667 25 -42 25zM502 329c22 0 45 -7.33398 69 -22.001c22 -14.667 39.5 -36.167 52.5 -64.5s19.5 -58.5 19.5 -90.5
c0 -33.333 -6.33301 -64.666 -19 -93.999c-12.667 -26.667 -30.5 -47.5 -53.5 -62.5s-46.167 -22.5 -69.5 -22.5c-36 0 -68.5 16 -97.5 48s-43.5 75 -43.5 129c0 34 6.66699 65.333 20 94s31.333 50 54 64c11.333 6 23 11 35 15s23 6 33 6zM500 302.999
c-10 0 -18.667 -3.33203 -26 -9.99902c-12 -9.33301 -21 -24.5 -27 -45.5s-9 -54.833 -9 -101.5c0 -58 7.66699 -98.667 23 -122c10 -16 23 -24 39 -24c15.333 0 28.666 8 39.999 24c16 25.333 24 66.666 24 123.999c0 60.667 -8 104 -24 130
c-11.333 16.667 -24.666 25 -39.999 25zM826 329c22 0 45 -7.33301 69 -22s41.667 -35 53 -61c12.667 -26 19 -56 19 -90c0 -38 -5.66699 -71 -17 -99c-12 -26.667 -29.667 -47 -53 -61c-23.333 -15.333 -46.666 -23 -69.999 -23c-24 0 -47 7 -69 21s-39.333 34.5 -52 61.5
s-19 57.5 -19 91.5c0 40 6 73 18 99c11.333 27.333 29.166 48 53.499 62s46.833 21 67.5 21zM826 303c-16 0 -29.001 -7.66797 -39.001 -23.001c-14.667 -23.333 -22 -67.333 -22 -132c0 -59.333 7.33301 -100.666 22 -123.999c11.333 -16 25 -24 41 -24
c9.33301 0 18 3 26 9c6 6 10.833 12.167 14.5 18.5s7.16699 15.5 10.5 27.5c6.66699 20.667 10 56 10 106c0 56 -7.66699 95 -23 117c-11.333 16.667 -24.666 25 -39.999 25z" />
    <glyph glyph-name="guilsinglleft" unicode="&#x2039;" horiz-adv-x="333" 
d="M275 -4h-28l-189 231l189 229h28l-119 -229z" />
    <glyph glyph-name="guilsinglright" unicode="&#x203a;" horiz-adv-x="600" 
d="M525 85c2.66699 0 4.00098 -3.66406 4.00098 -10.9971c0 -6.66699 -1.33301 -13.334 -4 -20.001s-5.66699 -9.33398 -9 -8.00098s-7 1 -11 -1c-23.333 -11.333 -42 -17 -56 -17c-7.33301 0 -13.666 0.5 -18.999 1.5s-11.5 4.83301 -18.5 11.5s-12.167 14 -15.5 22
c-1.33301 5.33301 -2.5 9.16602 -3.5 11.499s-2.16699 4.5 -3.5 6.5l-8 -10c-14 -25.333 -22.667 -39.666 -26 -42.999l-13 8l30 62c-64.667 29.333 -124.334 76 -179.001 140c-64 74 -96 147 -96 219c0 24.667 3.16699 47.334 9.5 68.001s17.5 41.667 33.5 63
c-1.33301 -9.33301 -2.66602 -20.833 -3.99902 -34.5s-2 -23.167 -2 -28.5c0 -44 5.33301 -84 16 -120c15.333 -52.667 41 -99.334 77 -140.001c44 -50 103.333 -90.333 178 -121l30 48l10 -5l-20 -38c-8.66699 -16.667 -12.334 -25.334 -11.001 -26.001
c5.33301 -2 13.166 -3.33301 23.499 -4s18.333 -2 24 -4s17.167 -9.33301 34.5 -22c13.333 -10 23 -12.667 29 -8zM486.001 79.0029c1.33301 3.33301 -0.833008 7.83301 -6.5 13.5s-13.5 10.5 -23.5 14.5c-11.333 3.33301 -20.333 5 -27 5c-8 0 -13 -1.66699 -15 -5
c-1.33301 -4.66699 1 -9.66699 7 -15s14 -10 24 -14c4 -1.33301 8.5 -2.5 13.5 -3.5s9.5 -1.5 13.5 -1.5c8 0 12.667 2 14 6zM498.002 55.0029c-6.66699 4 -15.002 6.83301 -25.002 8.5s-19.167 3.5 -27.5 5.5s-18.166 8.33301 -29.499 19c-7.33301 7.33301 -13 12 -17 14
c-2.66699 -12 -1 -23.5 5 -34.5s12.5 -18.5 19.5 -22.5s14.833 -6 23.5 -6c8 0 15.833 1.16699 23.5 3.5s16.834 6.5 27.501 12.5z" />
    <glyph glyph-name="trademark" unicode="&#x2122;" horiz-adv-x="618" 
d="M580 224c0 -4 -5.66797 -24.3369 -17.001 -61.0039c-6 -19.333 -9 -42 -9 -68c0 -25.333 2.33301 -56.333 7 -93h-60c0 35.333 1.83301 71.333 5.5 108s8.16699 69.667 13.5 99c1.33301 8 2 13.667 2 17c0 14 -4.5 23.833 -13.5 29.5s-22.167 8.5 -39.5 8.5
c-10 0 -42.667 -4 -98 -12c-27.333 -4 -48.666 -6 -63.999 -6c-20 0 -45.667 4.66699 -77 14s-52.333 14 -63 14s-20.167 -2.83301 -28.5 -8.5s-15.333 -15.167 -21 -28.5s-10 -27.166 -13 -41.499s-4.5 -27.166 -4.5 -38.499c0 -15.333 2 -33.333 6 -54
c9.33301 -48.667 14 -83 14 -103h-60c3.33301 10.667 5.66602 21.5 6.99902 32.5s2 21.167 2 30.5c0 19.333 -3 41 -9 65c-13.333 53.333 -20 83.333 -20 90c0 12.667 2.16699 24.334 6.5 35.001s11.5 21.334 21.5 32.001c32.667 34 71.334 56.333 116.001 67
c28.667 6.66699 75.667 10 141 10c78 0 136.667 -8 176 -24c52.667 -21.333 79 -59.333 79 -114zM130.999 259.996l12 3v-262h-12v259zM158.999 272.996h12v-272h-12v272zM188.999 269.996h12v-269h-12v269zM216.999 262.996l12 -2v-260h-12v262zM246.999 254.996l12 -2
v-251h-12v253zM274.999 247.996h12v-246h-12v246zM304.999 245.996h12v-244h-12v244zM332.999 247.996h12v-246h-12v246zM363.999 249.996l12 4v-251h-12v247zM391.999 256.996h12v-254h-12v254zM421.999 261.996l12 1v-260h-12v259zM449.999 264.996h12v-262h-12v262z
M476.999 260.996h12v-256h-12v256zM285.999 312.996c0.666992 -4 3.16797 -7.16797 7.50098 -9.50098s9.5 -3.83301 15.5 -4.5c9.33301 0 16.666 0.833008 21.999 2.5s8 5.83398 8 12.501c0 4.66699 -1.33301 8 -4 10c-4.66699 4 -11.667 5.66699 -21 5
c-9.33301 0 -16.333 -1 -21 -3s-7 -6.33301 -7 -13z" />
    <glyph glyph-name=".null" 
 />
    <glyph glyph-name="nonmarkingreturn" horiz-adv-x="350" 
 />
  </font>
</defs>
</svg>
